<svg width="195" height="53" viewBox="0 0 195 53" fill="none" xmlns="http://www.w3.org/2000/svg">
<path d="M157.718 41.1556L162.842 32.3242H160.852L155.725 41.1556H157.718Z" fill="#0079FF"/>
<path d="M165.014 41.1556L170.137 32.3242H168.148L163.021 41.1556H165.014Z" fill="#0079FF"/>
<path d="M148.671 33.9625L142.068 36.7416L148.671 39.4975V41.0926L139.093 37.0036V36.4796L148.671 32.3906V33.9625Z" fill="#0079FF"/>
<path d="M186.772 36.4796V37.0036L177.155 41.0926V39.4975L183.761 36.7416L177.155 33.9625V32.3906L186.772 36.4796Z" fill="#0079FF"/>
<path d="M34.0189 9.63393C35.775 10.6994 37.2151 12.2139 38.1908 14.0214L33.7536 17.4472C32.1109 15.0042 30.0846 13.7882 27.6747 13.7992C26.6809 13.7655 25.7013 14.0425 24.8724 14.5918C24.5038 14.8456 24.2062 15.1892 24.0077 15.5903C23.8092 15.9914 23.7164 16.4365 23.7382 16.8834C23.7237 17.2566 23.7917 17.6284 23.9373 17.9723C24.0829 18.3163 24.3026 18.6239 24.5806 18.8732C25.4568 19.5559 26.4232 20.1139 27.4525 20.5314L31.0673 22.1232C33.7381 23.3105 35.7157 24.6204 37.0002 26.0531C38.2848 27.4857 38.9281 29.2787 38.9303 31.4321C38.9303 34.324 37.8857 36.6388 35.7964 38.3765C33.7071 40.1143 31.0375 40.9821 27.7875 40.9799C25.2931 41.0256 22.833 40.3952 20.6679 39.1556C18.5029 37.9161 16.7139 36.1135 15.4905 33.9393L19.9609 30.5666C22.1718 33.6618 24.7751 35.2094 27.7709 35.2094C29.1881 35.2094 30.2935 34.8955 31.0872 34.2676C31.4802 33.9655 31.7949 33.5735 32.005 33.1246C32.215 32.6756 32.3143 32.1828 32.2944 31.6875C32.3031 31.0712 32.1071 30.4693 31.7372 29.9763C31.4153 29.5102 30.9968 29.1188 30.5102 28.8288C30.0459 28.5735 29.2964 28.202 28.2683 27.7212L24.8293 26.1758C22.3553 25.0526 20.4507 23.767 19.1153 22.3189C17.788 20.8757 17.0744 18.9728 17.1255 17.0128C17.1255 14.3133 18.1204 12.1355 20.1102 10.4796C22.1 8.82364 24.6237 7.99567 27.6814 7.99567C30.1222 7.99567 32.2347 8.54175 34.0189 9.63393Z" fill="white"/>
<path d="M59.412 17.5765C61.1709 18.6124 62.6196 20.1012 63.6071 21.8877L59.0737 25.4064C57.5261 23.0916 55.6126 21.9342 53.3332 21.9342C52.4936 21.9069 51.6577 22.058 50.8808 22.3776C50.1039 22.6971 49.4037 23.1779 48.8263 23.788C47.6486 25.042 47.0155 26.7113 47.0653 28.4309C47.0316 29.2969 47.1699 30.161 47.4722 30.9733C47.7744 31.7856 48.2347 32.5299 48.8263 33.1633C49.4035 33.7738 50.1037 34.255 50.8805 34.5752C51.6574 34.8953 52.4933 35.047 53.3332 35.0204C55.544 35.0204 57.4576 33.8785 59.0737 31.5946L63.6071 35.0668C62.6137 36.8645 61.1572 38.3634 59.3888 39.4079C57.5221 40.4906 55.3945 41.0411 53.237 40.9997C51.5602 41.036 49.8933 40.7343 48.3356 40.1127C46.7779 39.4911 45.3613 38.5623 44.1702 37.3816C42.9635 36.2323 42.0101 34.8437 41.3711 33.3047C40.7321 31.7656 40.4215 30.1101 40.4592 28.4441C40.4262 26.7912 40.7396 25.1497 41.3793 23.6253C42.019 22.1008 42.9708 20.7272 44.1735 19.5928C45.3688 18.4197 46.7868 17.4976 48.3439 16.8808C49.9011 16.264 51.5659 15.9649 53.2403 16.0013C55.4024 15.9564 57.5359 16.501 59.412 17.5765Z" fill="white"/>
<path d="M80.6795 16.5319V22.2691H78.9451C76.9818 22.2691 75.4221 22.792 74.2658 23.8377C73.1095 24.8835 72.5313 26.4311 72.5313 28.4806V40.3962H66.0181V16.5186H71.9875V19.4104C72.7465 18.3922 73.7409 17.5728 74.8855 17.0224C76.0302 16.4721 77.2911 16.207 78.5604 16.25C79.277 16.2357 79.9916 16.3308 80.6795 16.5319Z" fill="white"/>
<path d="M88.5194 4.9546C88.9184 5.32205 89.2345 5.77032 89.4467 6.26954C89.6588 6.76876 89.7621 7.30746 89.7497 7.84975C89.7587 8.38423 89.6535 8.91448 89.4414 9.40513C89.2292 9.89578 88.9149 10.3356 88.5194 10.6952C87.7241 11.4553 86.6612 11.8712 85.5612 11.8526C85.0186 11.8645 84.4791 11.7683 83.9741 11.5696C83.469 11.3709 83.0086 11.0736 82.6196 10.6952C82.2308 10.3317 81.9226 9.89062 81.7152 9.40043C81.5079 8.91023 81.4058 8.38192 81.4158 7.84975C81.4024 7.30976 81.5026 6.77297 81.71 6.2742C81.9173 5.77544 82.2273 5.32585 82.6196 4.9546C83.009 4.57673 83.4695 4.27986 83.9745 4.08119C84.4794 3.88252 85.0187 3.78599 85.5612 3.7972C86.6609 3.77998 87.7234 4.19566 88.5194 4.9546ZM88.8311 40.4061H82.3212V16.5286H88.8311V40.4061Z" fill="white"/>
<path d="M114.851 19.5199C117.022 21.8679 118.108 24.8426 118.108 28.4441C118.108 32.0457 117.022 35.0359 114.851 37.4148C112.682 39.7915 109.91 40.9809 106.534 40.9832C103.542 40.9832 101.162 40.0192 99.3936 38.0913V49.0816H92.8837V16.5319H98.8531V19.5166C100.558 17.1708 103.115 15.998 106.524 15.998C109.906 16.0002 112.682 17.1741 114.851 19.5199ZM109.714 33.2429C110.906 32.0357 111.502 30.4516 111.502 28.4906C111.502 26.5295 110.915 24.9299 109.741 23.6918C109.17 23.1012 108.483 22.6357 107.723 22.3251C106.964 22.0145 106.147 21.8656 105.327 21.8878C103.749 21.8617 102.224 22.4573 101.082 23.5459C99.8944 24.6514 99.2997 26.283 99.2975 28.4408C99.2975 30.5633 99.8844 32.1949 101.058 33.3357C102.229 34.4505 103.789 35.0642 105.406 35.0462C107.022 35.0283 108.568 34.3801 109.714 33.2395V33.2429Z" fill="white"/>
<path d="M122.11 40.3199H128.624V22.0304H135.376V16.5319H128.624V10.5028H122.11V16.5319H118.35V22.0304H122.11V40.3199Z" fill="white"/>
<path d="M149.115 18.4918C150.532 19.8184 151.24 21.5506 151.238 23.6885C151.27 24.6573 151.097 25.622 150.732 26.5197C150.366 27.4174 149.815 28.2279 149.115 28.8985C147.7 30.2559 145.789 30.9336 143.381 30.9314H139.093V16.4921H143.381C145.789 16.4921 147.7 17.1587 149.115 18.4918ZM140.801 18.0209V29.4025H143.361C145.241 29.4025 146.729 28.8664 147.825 27.7941C148.368 27.2604 148.794 26.62 149.076 25.9134C149.359 25.2067 149.492 24.4491 149.467 23.6885C149.497 22.9286 149.368 22.1707 149.087 21.464C148.806 20.7573 148.379 20.1176 147.835 19.5862C146.747 18.5449 145.256 18.0231 143.361 18.0209H140.801Z" fill="#0079FF"/>
<path d="M162.44 18.0209H154.892V22.4416H160.669V23.9737H154.892V29.4025H162.702V30.9314H153.184V16.4921H162.44V18.0209Z" fill="#0079FF"/>
<path d="M171.292 16.9298C172.06 17.3545 172.71 17.963 173.185 18.7008L171.935 19.6426C171.592 19.0738 171.104 18.606 170.522 18.2868C169.939 17.9675 169.283 17.8083 168.619 17.8252C167.973 17.8072 167.339 17.9992 166.811 18.3724C166.568 18.5494 166.372 18.7842 166.241 19.0557C166.111 19.3273 166.051 19.627 166.065 19.9278C166.059 20.2116 166.111 20.4937 166.218 20.7569C166.339 21.019 166.524 21.247 166.755 21.4201C166.972 21.5973 167.205 21.7539 167.451 21.8877C167.654 21.9972 167.969 22.1531 168.393 22.3587L169.988 23.1247C170.937 23.5337 171.8 24.1201 172.529 24.8525C173.087 25.4852 173.384 26.3071 173.358 27.1508C173.372 27.7044 173.26 28.2541 173.03 28.758C172.8 29.2619 172.459 29.7069 172.031 30.0592C171.093 30.8237 169.908 31.2199 168.698 31.1735C167.616 31.1844 166.553 30.8964 165.624 30.3411C164.696 29.7851 163.925 29.0022 163.382 28.0661L164.649 27.1242C165.73 28.7713 167.072 29.596 168.675 29.5982C169.432 29.6303 170.176 29.3955 170.778 28.9349C171.039 28.7279 171.248 28.4626 171.389 28.1603C171.529 27.858 171.597 27.5271 171.587 27.1939C171.603 26.9305 171.561 26.6668 171.465 26.4211C171.369 26.1754 171.22 25.9536 171.03 25.7712C170.466 25.3184 169.843 24.9436 169.179 24.6569L167.561 23.8775C166.675 23.4782 165.861 22.9347 165.153 22.2691C164.865 21.9705 164.64 21.6169 164.492 21.2295C164.344 20.842 164.276 20.4286 164.291 20.014C164.275 19.4924 164.382 18.9743 164.602 18.5011C164.822 18.0278 165.149 17.6125 165.558 17.288C166.434 16.5845 167.532 16.2165 168.655 16.25C169.579 16.2395 170.488 16.4741 171.292 16.9298Z" fill="#0079FF"/>
<path d="M175.59 16.4921H177.298V30.9314H175.59V16.4921ZM186.772 30.9314H184.607L177.493 23.1877L183.993 16.4921H186.182L179.705 23.1877L186.772 30.9314Z" fill="#0079FF"/>
</svg>
