<svg width="49" height="48" viewBox="0 0 49 48" fill="none" xmlns="http://www.w3.org/2000/svg">
<g clip-path="url(#clip0_711_2921)">
<path d="M26.9494 0.106666C26.8575 0.132922 26.6409 0.159178 26.4703 0.165742C25.7876 0.17887 23.5821 0.736807 22.7813 1.09126C22.7091 1.12408 22.5056 1.20941 22.3218 1.28162C21.8427 1.46541 20.5758 2.06929 20.3789 2.2137C20.287 2.27278 20.136 2.35154 20.0376 2.37123C19.9391 2.39749 19.8604 2.44344 19.8604 2.46969C19.8604 2.49595 19.8078 2.53533 19.7488 2.56159C19.6831 2.58128 19.5453 2.66005 19.4337 2.73225C19.3287 2.80446 19.1711 2.88979 19.0858 2.92917C19.0005 2.96199 18.8364 3.06702 18.7182 3.15891C18.6001 3.25081 18.4819 3.32301 18.4622 3.32301C18.3113 3.32301 16.1977 4.85898 15.6003 5.39722C15.1146 5.83701 14.2153 6.79535 14.2153 6.87412C14.2153 6.89381 14.1563 6.9857 14.0775 7.07104C13.8806 7.29421 13.2898 8.22629 13.1192 8.57418C13.047 8.73828 12.9026 9.0271 12.8107 9.22402C12.489 9.88041 12.3577 10.5959 12.3906 11.4295C12.4299 12.25 12.6137 12.6767 13.1717 13.2412C13.7559 13.8254 14.3794 14.0814 15.364 14.1339C16.0401 14.1667 16.5259 14.1142 17.202 13.9238C17.4186 13.8647 17.7074 13.7925 17.8452 13.7532C17.9831 13.7203 18.1406 13.6678 18.2062 13.6284C18.3572 13.5497 19.204 13.169 19.2433 13.169C19.3615 13.169 20.7465 12.3222 22.0265 11.4689C22.8732 10.9044 23.6149 10.4121 23.6806 10.3793C23.7397 10.3399 24.1401 10.1036 24.5667 9.84759C24.9934 9.59816 25.5185 9.29622 25.7351 9.18463C25.9517 9.07305 26.2602 8.90895 26.4243 8.82362C26.5884 8.74485 26.8969 8.60044 27.1135 8.52167C27.3302 8.43634 27.5993 8.32475 27.7043 8.27881C27.8159 8.23286 27.9734 8.16065 28.0653 8.12127C28.3213 8.01625 28.8989 7.91122 29.4634 7.87184C30.6843 7.79307 31.5377 8.33132 31.9774 9.46032C32.0825 9.72944 32.1022 9.95262 32.1022 10.7403C32.1022 11.6986 32.0168 12.2238 31.7608 12.8408C31.7083 12.9655 31.6361 13.1427 31.5967 13.2346C31.2685 14.0223 30.5924 15.1513 29.8179 16.1753C29.0827 17.1599 27.5008 18.7943 26.4571 19.6542C26.0961 19.9561 25.6957 20.2843 25.571 20.3893C25.2953 20.6191 24.9737 20.8488 24.6192 21.0851C24.4748 21.177 24.2385 21.3345 24.0941 21.4396C23.6872 21.7152 22.6041 22.2929 21.9936 22.5554C21.8164 22.6342 21.5736 22.7392 21.4554 22.7917C21.3438 22.8442 21.1928 22.8836 21.1206 22.8836C21.055 22.8836 20.904 22.9165 20.7859 22.9558C20.3592 23.1068 19.926 22.818 19.926 22.3782C19.926 21.84 20.182 21.4986 21.7967 19.897C23.5427 18.1641 23.7331 17.9081 23.7331 17.2517C23.7331 16.5757 23.4115 16.1162 22.6894 15.7486C22.3744 15.5845 22.2562 15.5648 21.7048 15.5648C21.0616 15.5648 20.6874 15.6567 20.2214 15.939C20.1164 16.0046 19.9523 16.0899 19.8604 16.1359C19.7685 16.1818 19.6831 16.2343 19.6634 16.254C19.6437 16.2737 19.5125 16.3722 19.3681 16.4838C19.0202 16.7463 18.4097 17.3699 18.0618 17.8228C17.819 18.1379 17.6417 18.4333 17.2282 19.2078C16.8869 19.8511 16.5784 21.0457 16.5784 21.7415C16.5784 23.1528 17.3135 24.2818 18.4491 24.6034C18.7904 24.7019 20.182 24.7019 20.6612 24.61C21.1338 24.5115 22.3678 24.1308 22.4466 24.0586C22.4859 24.0258 22.5516 23.9995 22.6041 23.9995C22.7748 23.9995 24.7243 23.0083 25.3938 22.5751C25.5448 22.4767 25.7154 22.3651 25.7811 22.3257C25.8401 22.2929 26.1486 22.1025 26.4703 21.9056C26.7853 21.7087 27.061 21.5249 27.0807 21.5052C27.1004 21.4789 27.3236 21.3148 27.573 21.1442C27.829 20.967 28.1244 20.7635 28.2294 20.6913C28.341 20.6125 28.6495 20.3762 28.9186 20.1596C30.6253 18.8008 32.135 17.3502 33.0145 16.2212C33.159 16.044 33.2902 15.8799 33.3099 15.8602C33.3624 15.8208 33.8088 15.1775 34.1173 14.6918C34.2551 14.4883 34.4652 14.1273 34.5833 13.891C34.7081 13.6547 34.8787 13.3331 34.964 13.169C35.0494 13.0049 35.2332 12.5782 35.3776 12.2172C35.5154 11.8562 35.6533 11.5017 35.6795 11.4295C35.8633 10.9635 36.1456 9.76226 36.2703 8.90238C36.4081 7.93092 36.3031 6.33587 36.034 5.4563C35.9224 5.09528 35.8961 5.02964 35.6533 4.50452C35.1281 3.37552 34.288 2.35154 33.3231 1.68202C33.1918 1.59012 33.0277 1.46541 32.9555 1.3932C32.7192 1.18316 31.518 0.644911 30.8156 0.441428C30.4415 0.329841 29.8835 0.21169 29.575 0.165742C28.8661 0.0738463 27.1661 0.0278985 26.9494 0.106666ZM45.9784 32.5655C45.9587 32.5786 45.6568 32.6377 45.2957 32.6968C44.9347 32.7493 44.344 32.8477 43.9829 32.9134L43.3265 33.025V39.0638C43.3265 45.6212 43.3134 45.3455 43.7007 46.166C43.832 46.4483 44.0158 46.6911 44.298 46.9471C44.9938 47.5838 45.6436 47.7808 47.0286 47.7873C48.2101 47.7873 48.1642 47.8333 48.1379 46.7437L48.1182 45.956L47.6128 45.91C46.7136 45.8313 46.2803 45.4702 46.1819 44.722C46.1556 44.4988 46.1359 41.6894 46.1425 38.4862C46.149 32.9396 46.1359 32.408 45.9784 32.5655ZM27.8028 32.6968C26.3456 32.9134 25.8598 33.0053 25.8007 33.0775C25.7548 33.13 25.7482 35.2239 25.7679 39.2279C25.8007 44.8204 25.8139 45.3258 25.9189 45.595C26.1683 46.2317 26.2996 46.4548 26.6344 46.7896C27.3236 47.4788 28.2032 47.7611 29.6472 47.7611C30.448 47.7611 30.5596 47.7479 30.6121 47.6429C30.6778 47.5182 30.7106 46.3761 30.6581 46.1135C30.6187 45.9494 30.5924 45.9429 30.1001 45.9035C29.4766 45.8641 29.109 45.654 28.853 45.2011L28.6889 44.9057L28.6692 41.5056C28.6561 38.9719 28.6692 38.0792 28.7283 38.007C28.7874 37.9348 29.0105 37.9151 29.7129 37.9151C30.7959 37.9151 30.704 38.0201 30.6778 36.7664L30.6581 35.9131L29.7391 35.8803C29.2337 35.8606 28.7808 35.8212 28.7414 35.795C28.6758 35.7556 28.6561 35.3552 28.6561 34.1671V32.5983L28.5117 32.6049C28.4263 32.6114 28.1113 32.6508 27.8028 32.6968ZM5.05861 35.6571C4.56631 35.7031 3.3848 35.9853 3.02378 36.1428C2.95158 36.1757 2.8203 36.2216 2.7284 36.2479C2.43959 36.3266 1.48125 36.8058 1.48125 36.8714C1.48125 36.9043 1.54032 37.0552 1.60596 37.2128C2.03919 38.1646 2.20329 38.5059 2.23611 38.5059C2.2558 38.5059 2.32144 38.4796 2.38708 38.4468C2.72184 38.2761 3.1288 38.112 3.45044 38.0136C3.64736 37.9545 3.88366 37.8757 3.97556 37.8429C4.34314 37.7116 5.32117 37.646 5.77408 37.7182C6.66678 37.8626 6.99498 38.2761 7.04749 39.3329C7.07375 39.9171 7.07375 39.9303 6.92278 39.9696C6.83745 39.9959 6.23356 40.0156 5.58373 40.0156C4.0215 40.0156 3.54233 40.1075 2.53148 40.5998C1.66504 41.0199 1.02177 41.8141 0.713265 42.8381C0.55573 43.3829 0.575422 44.4003 0.752649 44.9386C1.34341 46.724 2.74809 47.7676 4.70416 47.8727C6.48299 47.9711 8.31434 47.4394 9.48929 46.4942L9.91595 46.1463L9.93564 42.674C9.95533 38.6503 9.94877 38.5124 9.46303 37.5278C9.24642 37.0815 8.51782 36.3726 8.06491 36.1757C7.85486 36.0772 7.62512 35.9787 7.55292 35.9459C7.06062 35.7293 5.81347 35.5849 5.05861 35.6571ZM6.99498 41.9848C7.03437 42.0373 7.06062 42.8184 7.06062 43.7636C7.06062 45.6278 7.08688 45.5096 6.60114 45.7656C6.41735 45.8641 6.21387 45.8838 5.57716 45.8903H4.78292L4.45473 45.6672C4.2775 45.549 4.06745 45.3521 3.99525 45.2405C3.50951 44.5316 3.54233 43.2648 4.05432 42.6412C4.2053 42.4508 4.78292 42.0504 4.88795 42.0504C4.95359 42.0504 5.02579 42.0242 5.06518 41.9913C5.15707 41.8929 5.45901 41.8666 6.227 41.8798C6.77837 41.8863 6.94903 41.906 6.99498 41.9848ZM21.4357 35.8146C20.1295 36.1232 19.0858 36.6811 18.0356 37.6394L17.7599 37.8889V47.5838C17.7599 47.6889 17.8583 47.6954 19.1908 47.6823L20.6152 47.6626L20.6349 43.0875L20.648 38.519L20.8975 38.3221C21.1928 38.0858 21.3373 38.0136 21.718 37.8823C22.1709 37.7313 22.8798 37.6591 23.4115 37.7182C23.674 37.7445 23.9235 37.7576 23.9628 37.7379C24.0088 37.7248 24.1269 37.5016 24.232 37.239C24.3304 36.9765 24.488 36.6351 24.5667 36.4776C24.7833 36.0641 24.7636 35.9591 24.4748 35.8934C24.337 35.8606 24.0876 35.8015 23.9103 35.7621C23.4443 35.644 22.0199 35.6768 21.4357 35.8146ZM35.7123 35.8278C35.4957 35.8606 35.2922 35.9197 35.2594 35.9525C35.22 35.9853 35.1544 36.0116 35.1019 36.0116C35.0494 36.0116 34.8131 36.1035 34.5833 36.2216C34.0779 36.471 33.3034 37.1865 32.9752 37.7182C32.6864 38.1842 32.3516 38.88 32.2991 39.1295C32.2728 39.2345 32.2334 39.3854 32.2006 39.4576C32.1744 39.5299 32.0956 39.8121 32.03 40.0812C31.8527 40.7901 31.8527 43.0613 32.0234 43.7242C32.1809 44.3347 32.5354 45.2668 32.601 45.2668C32.6338 45.2668 32.6601 45.2996 32.6601 45.339C32.6601 45.5884 33.4412 46.5796 33.9926 47.0259C34.2354 47.2228 34.7803 47.5051 35.1872 47.6429C35.627 47.7939 36.5985 47.958 37.0317 47.958C37.9638 47.958 39.6442 47.5576 40.2021 47.2031C40.3334 47.1244 40.5106 47.0325 40.6025 47.0062C40.7994 46.9471 41.2326 46.678 41.2851 46.5861C41.3442 46.4942 40.6091 45.0042 40.5106 45.0042C40.4647 45.0042 40.3465 45.0633 40.2546 45.1355C40.1627 45.2077 40.0511 45.2668 39.9986 45.2668C39.9527 45.2668 39.8542 45.3061 39.782 45.3587C39.7098 45.4046 39.3685 45.5424 39.0271 45.6606C38.443 45.8641 38.3445 45.8772 37.4846 45.8838C36.6707 45.8838 36.5328 45.8707 36.2703 45.7459C35.3513 45.3061 34.8262 44.1968 34.8262 42.7003C34.8262 42.3786 34.8328 42.1095 34.8459 42.1029C34.8525 42.0898 36.3097 42.0701 38.0754 42.0504L41.2917 42.0176L41.272 41.3612C41.2326 40.0747 40.8913 38.3418 40.5959 37.9479C40.5697 37.9086 40.4778 37.7445 40.3924 37.5804C40.038 36.878 39.2897 36.2741 38.4036 35.9787C37.7537 35.7556 36.5657 35.6899 35.7123 35.8278ZM37.1236 37.9151C37.3993 37.9873 37.9769 38.4534 37.9769 38.5978C37.9769 38.6372 38.0229 38.7553 38.0754 38.8538C38.2263 39.1491 38.3445 40.1206 38.2395 40.2453C38.1738 40.3307 37.9178 40.3438 36.5919 40.3438H35.0231L34.9837 40.1797C34.8984 39.8449 35.1281 38.9457 35.3907 38.5978C35.6795 38.2105 35.9355 38.0136 36.3162 37.902C36.5263 37.8429 36.7298 37.8035 36.7757 37.8167C36.8151 37.8298 36.9726 37.8757 37.1236 37.9151ZM13.0995 31.2067C12.6006 31.4627 12.4496 31.5875 12.233 31.9091C12.023 32.2307 12.0164 32.257 12.0164 32.9265V33.6223L12.2658 33.9636C12.5612 34.364 12.7581 34.5084 13.1914 34.6594C13.7756 34.8497 14.281 34.7775 14.8652 34.41C15.5675 33.9636 15.8104 32.8215 15.3837 31.9813C15.2328 31.6859 15.1015 31.5481 14.7076 31.2986C14.3532 31.0689 13.4539 31.0164 13.0995 31.2067ZM14.7076 35.9459C14.6026 35.9787 14.3072 36.0378 14.0512 36.0706C13.8018 36.1035 13.3423 36.1691 13.0338 36.2151C12.7253 36.2544 12.4562 36.3135 12.4234 36.3332C12.3643 36.3857 12.3577 47.5379 12.4103 47.6364C12.4365 47.6692 13.0207 47.6954 13.7887 47.6954C15.1277 47.6954 15.1343 47.6954 15.1671 47.5445C15.1868 47.4657 15.1934 44.8138 15.1868 41.6566C15.1671 35.9656 15.1671 35.9131 15.0358 35.9C14.9636 35.8934 14.8192 35.9131 14.7076 35.9459Z" fill="#040A0F"/>
</g>
<defs>
<clipPath id="clip0_711_2921">
<rect width="47.6544" height="48" fill="white" transform="translate(0.555664)"/>
</clipPath>
</defs>
</svg>
