<svg width="142" height="43" viewBox="0 0 142 43" fill="none" xmlns="http://www.w3.org/2000/svg">
<g clip-path="url(#clip0_181_911)">
<path d="M119.825 15.2122C121.225 15.2067 122.585 15.6757 123.685 16.5428L123.744 16.5898L123.798 16.632C124.124 16.8989 124.422 17.1977 124.688 17.524L139.876 32.7172V25.9258L129.718 15.7524L127.423 13.4581C126.014 12.0504 124.252 11.0475 122.322 10.5542C116.224 8.99572 109.99 12.8039 108.724 18.9784C108.195 21.5617 108.582 24.2488 109.819 26.5774C111.058 28.9059 113.068 30.7301 115.506 31.7362C117.944 32.7421 120.656 32.8669 123.176 32.0891C125.695 31.3112 127.865 29.6794 129.311 27.4744L129.559 27.0606L129.648 26.9095L130.285 25.8812L126.769 22.3629L126.752 22.3852L125.129 24.8629C124.546 25.7869 123.732 26.5426 122.767 27.0555C121.802 27.5687 120.721 27.8214 119.629 27.7888C118.537 27.7562 117.472 27.4394 116.54 26.8696C115.607 26.3001 114.84 25.4971 114.313 24.54C113.786 23.583 113.517 22.5052 113.533 21.4127C113.55 20.3203 113.851 19.2512 114.407 18.3106C114.963 17.3702 115.755 16.5909 116.704 16.0496C117.653 15.5084 118.727 15.2241 119.82 15.2247L119.825 15.2122Z" fill="#004882"/>
<path d="M135.758 18.7257L135.766 18.7158L141.286 9.98438H135.595L132.279 15.2297L132.264 15.252L135.758 18.7257Z" fill="#C20C38"/>
<path d="M1.27849 15.3316C2.05134 13.7077 3.26541 12.3339 4.78197 11.3673C6.26734 10.4412 7.9871 9.9606 9.73735 9.98228C11.1597 9.95333 12.5667 10.2804 13.8305 10.9337C14.9453 11.5073 15.8863 12.3688 16.556 13.4287V10.3019H23.3275V32.4005H19.6729C18.8449 32.3978 18.0518 32.0668 17.4675 31.4802C16.8832 30.8935 16.5554 30.0991 16.556 29.2711C15.868 30.3255 14.92 31.1848 13.8033 31.7661C12.5377 32.4217 11.1277 32.7489 9.70268 32.7176C7.96401 32.734 6.258 32.2451 4.79192 31.3103C3.27427 30.3298 2.0608 28.9447 1.28838 27.3113C0.429435 25.5818 0 23.5815 0 21.3103C0 19.039 0.426187 17.0461 1.27849 15.3316ZM15.1388 17.3509C14.6965 16.8888 14.1655 16.5207 13.5777 16.2687C12.9898 16.0166 12.3572 15.8857 11.7175 15.8839C11.0779 15.882 10.4445 16.0093 9.85522 16.2579C9.26592 16.5066 8.73285 16.8716 8.28792 17.3311C7.35794 18.2958 6.89292 19.6221 6.89292 21.3103C6.89292 22.9984 7.36126 24.3388 8.2978 25.3316C8.73654 25.7997 9.26634 26.1732 9.85465 26.4291C10.443 26.685 11.0774 26.818 11.719 26.8198C12.3605 26.8217 12.9957 26.6924 13.5855 26.4399C14.1753 26.1873 14.7072 25.8169 15.1486 25.3514C16.0852 24.3752 16.5543 23.0414 16.556 21.3499C16.5576 19.6585 16.0852 18.3255 15.1388 17.3509ZM32.0295 0V32.4008H25.2579V3.09219L32.0295 0ZM43.4766 10.9337C44.7341 10.278 46.1371 9.95158 47.5549 9.98468C49.3051 9.96306 51.0249 10.4437 52.5103 11.3697C54.027 12.3369 55.2417 13.7105 56.0162 15.3341C56.8735 17.0486 57.3021 19.0415 57.3021 21.3127C57.3021 23.584 56.8735 25.5843 56.0162 27.3138C55.2422 28.9468 54.0281 30.3317 52.5103 31.3127C51.0299 32.2523 49.3082 32.7413 47.5549 32.72C46.1437 32.7486 44.7479 32.4214 43.4964 31.7686C42.3871 31.1944 41.4404 30.35 40.7437 29.3132V42.9406H33.9697V10.3019H40.7437V13.4287C41.4273 12.3778 42.368 11.519 43.4766 10.9337ZM49.0143 17.331C48.5686 16.8618 48.0298 16.4908 47.4325 16.2416C46.8352 15.9924 46.1925 15.8707 45.5455 15.8841C44.9033 15.8742 44.2663 15.9997 43.6759 16.2525C43.0855 16.5052 42.5549 16.8795 42.1188 17.3509C41.1823 18.3271 40.7139 19.6601 40.7139 21.3499C40.7139 23.0397 41.1823 24.3735 42.1188 25.3514C42.5632 25.8159 43.0973 26.1853 43.6888 26.437C44.2803 26.6888 44.9168 26.8177 45.5597 26.8158C46.2025 26.814 46.8383 26.6815 47.4283 26.4263C48.0183 26.1712 48.5503 25.7987 48.992 25.3316C49.9417 24.3405 50.4166 23.0001 50.4166 21.3103C50.4166 19.6205 49.9492 18.2941 49.0143 17.331ZM78.9223 12.5792C80.4573 14.2558 81.2241 16.5592 81.2241 19.4896V32.4008H74.4853V20.4013C74.4853 18.9147 74.1026 17.7659 73.338 16.9549C72.5733 16.1439 71.5431 15.7309 70.2482 15.716C68.9548 15.716 67.9249 16.129 67.1584 16.9549C66.392 17.7807 66.0096 18.9296 66.0113 20.4013V32.4008H59.2373V3.09219L66.0113 0V13.2705C66.737 12.2625 67.7097 11.458 68.8359 10.9341C70.0842 10.3407 71.4525 10.0431 72.8345 10.0644C75.3623 10.0644 77.3915 10.9027 78.9223 12.5792ZM84.4445 15.3319C85.219 13.7083 86.4336 12.3348 87.9502 11.3676C89.4358 10.4416 91.1557 9.96088 92.9061 9.98257C94.33 9.95136 95.739 10.2776 97.0042 10.9315C98.1193 11.5047 99.0604 12.3662 99.7296 13.4265V10.3021H106.496V32.4007H102.841C102.011 32.4007 101.215 32.071 100.628 31.4842C100.042 30.8973 99.712 30.1014 99.712 29.2714C99.0249 30.3264 98.0768 31.1858 96.9597 31.7664C95.6972 32.4212 94.2905 32.7483 92.8687 32.7178C91.13 32.7346 89.4239 32.2457 87.958 31.3106C86.4373 30.3307 85.2205 28.9457 84.4445 27.3116C83.5873 25.5821 83.1588 23.5818 83.1588 21.3106C83.1588 19.0393 83.5873 17.0464 84.4445 15.3319ZM98.3196 17.3512C97.8774 16.889 97.3464 16.5209 96.7585 16.269C96.1708 16.0168 95.5382 15.8859 94.8987 15.8841C94.259 15.8823 93.6255 16.0095 93.036 16.2582C92.4466 16.5068 91.9135 16.8718 91.4686 17.3314C90.5309 18.296 90.0614 19.6224 90.0614 21.3106C90.0614 22.9987 90.5309 24.3391 91.4686 25.3319C91.9074 25.7999 92.4372 26.1733 93.0255 26.4294C93.6139 26.6853 94.2485 26.8183 94.8902 26.8201C95.5317 26.8219 96.1668 26.6926 96.7565 26.44C97.3463 26.1875 97.8782 25.8172 98.3196 25.3517C99.2559 24.3755 99.7247 23.0416 99.7247 21.3502C99.7247 19.6588 99.2559 18.3258 98.3196 17.3512Z" fill="#004882"/>
</g>
<defs>
<clipPath id="clip0_181_911">
<rect width="141.286" height="43" fill="white"/>
</clipPath>
</defs>
</svg>
