<svg width="22" height="12" viewBox="0 0 22 12" fill="none" xmlns="http://www.w3.org/2000/svg">
<path d="M17 6.66668H5.00004C4.62671 6.66668 4.33337 6.37334 4.33337 6.00001C4.33337 5.62668 4.62671 5.33334 5.00004 5.33334H17C17.3734 5.33334 17.6667 5.62668 17.6667 6.00001C17.6667 6.37334 17.3734 6.66668 17 6.66668Z" fill="#333333"/>
<path d="M13.6667 11.3333C13.5792 11.3344 13.4925 11.3172 13.4122 11.2827C13.3318 11.2483 13.2595 11.1974 13.2 11.1333C12.9333 10.8667 12.9333 10.4533 13.2 10.1867L17.4 5.98668L13.2 1.78668C12.9333 1.52001 12.9333 1.10668 13.2 0.840015C13.4667 0.573348 13.88 0.573348 14.1467 0.840015L18.8133 5.50668C19.08 5.77335 19.08 6.18668 18.8133 6.45335L14.1467 11.12C14.0133 11.2533 13.84 11.32 13.68 11.32L13.6667 11.3333Z" fill="#333333"/>
</svg>
