<svg width="165" height="62" viewBox="0 0 165 62" fill="none" xmlns="http://www.w3.org/2000/svg">
<g clip-path="url(#clip0_181_926)">
<path d="M69.0437 43.5958L65.3776 43.5773L81.06 5.13329H81.9093L97.3149 43.5958H93.9136L89.716 33.0766H73.2453L69.0437 43.5958ZM74.5162 29.8369H88.4369L81.4796 12.5187L74.5162 29.8369ZM105.364 38.7881C106.812 39.8261 108.552 40.3754 110.333 40.3561C111.375 40.3658 112.41 40.1858 113.388 39.8246C114.292 39.4918 115.122 38.9862 115.833 38.3362C116.523 37.6988 117.067 36.9193 117.427 36.0514C117.81 35.107 117.999 34.0955 117.986 33.0765C117.992 32.1344 117.866 31.1961 117.612 30.2889C117.349 29.3911 116.916 28.552 116.338 27.8169C115.66 26.9701 114.853 26.2355 113.947 25.6402C112.762 24.8676 111.496 24.2265 110.172 23.7282C107.374 22.6287 105.25 21.2711 103.798 19.6557C102.346 18.0403 101.62 15.9593 101.618 13.4126C101.61 12.2949 101.826 11.1868 102.256 10.1547C102.671 9.16577 103.286 8.27344 104.062 7.53399C104.877 6.76938 105.834 6.17355 106.88 5.78087C108.051 5.34347 109.294 5.12735 110.545 5.14349C112.129 5.12415 113.693 5.50814 115.089 6.25935C116.436 6.99254 117.562 8.07497 118.348 9.39309L115.806 11.2441C114.531 9.32995 112.778 8.37362 110.545 8.37499C108.987 8.37499 107.713 8.83516 106.721 9.7556C105.727 10.6759 105.232 11.88 105.232 13.3678C105.202 14.8774 105.734 16.3443 106.723 17.4851C107.715 18.6349 109.468 19.7208 111.981 20.743C115.382 22.0897 117.836 23.7451 119.342 25.7095C120.848 27.6737 121.597 30.0942 121.59 32.9706C121.601 34.3948 121.349 35.8088 120.845 37.1409C120.369 38.4085 119.63 39.5606 118.676 40.5209C117.667 41.5097 116.463 42.2786 115.142 42.7792C113.604 43.3488 111.973 43.625 110.333 43.5937C107.967 43.6142 105.641 42.9799 103.612 41.7611C101.59 40.5559 100.001 38.7429 99.0705 36.5808L101.94 34.51C102.675 36.2189 103.858 37.6972 105.364 38.7881ZM163.254 31.9688C161.742 35.4461 159.247 38.406 156.075 40.4846C152.904 42.5635 149.194 43.671 145.401 43.671C141.608 43.671 137.898 42.5635 134.727 40.4846C131.555 38.406 129.06 35.4461 127.548 31.9688C126.508 29.5728 125.983 26.9854 126.006 24.3737C125.983 21.7613 126.508 19.1732 127.548 16.7765C129.061 13.3 131.556 10.3409 134.728 8.26281C137.899 6.18448 141.609 5.07742 145.401 5.07751C149.193 5.07751 152.903 6.18453 156.074 8.26281C159.246 10.3409 161.741 13.3 163.254 16.7765C164.295 19.1729 164.82 21.7612 164.796 24.3737C164.82 26.9855 164.295 29.5732 163.254 31.9688ZM130.871 30.6942C132.46 34.507 135.485 37.5417 139.293 39.1424C141.229 39.9491 143.306 40.3643 145.403 40.3643C147.5 40.3643 149.578 39.949 151.513 39.1424C153.389 38.3519 155.094 37.2062 156.535 35.7685C158.026 34.2698 159.205 32.4903 160.004 30.533C160.801 28.5755 161.203 26.4793 161.185 24.3656C161.203 22.2519 160.802 20.1556 160.004 18.1982C159.205 16.2408 158.026 14.4612 156.535 12.9626C155.094 11.525 153.389 10.3799 151.513 9.5906C149.577 8.78403 147.5 8.36881 145.403 8.36889C143.306 8.36889 141.229 8.78412 139.293 9.5906C137.418 10.3802 135.712 11.5253 134.271 12.9626C132.78 14.4614 131.602 16.2411 130.805 18.1987C130.007 20.156 129.605 22.252 129.623 24.3656C129.603 26.5353 130.027 28.6862 130.869 30.686L130.871 30.6942ZM67.4896 55.9394C67.7564 56.1312 68.0776 56.2326 68.4062 56.2286C68.5986 56.2303 68.7897 56.1972 68.9703 56.1308C69.1368 56.0694 69.2897 55.976 69.4204 55.8559C69.5471 55.7388 69.6472 55.5958 69.7137 55.4365C69.7849 55.2621 69.8202 55.0751 69.8175 54.8867C69.8182 54.7133 69.7949 54.5406 69.7483 54.3736C69.7005 54.2078 69.6209 54.0529 69.514 53.9175C69.3894 53.7591 69.2402 53.6216 69.0722 53.5103C68.8532 53.3677 68.6197 53.2489 68.3756 53.1559C67.9356 53.0004 67.5371 52.7461 67.2106 52.4127C66.9331 52.0952 66.7874 51.6837 66.8032 51.2623C66.8001 51.0527 66.8404 50.8447 66.9214 50.6514C66.9978 50.4688 67.1108 50.3039 67.2534 50.1667C67.4037 50.0264 67.5801 49.9171 67.7727 49.845C67.9887 49.7634 68.2181 49.7233 68.4489 49.7269C68.7408 49.7217 69.0291 49.7919 69.286 49.9306C69.539 50.0634 69.7504 50.2635 69.897 50.5088L69.4265 50.8509C69.3255 50.6854 69.1828 50.5494 69.0126 50.4564C68.8424 50.3635 68.6508 50.317 68.457 50.3215C68.198 50.3116 67.9453 50.4029 67.7524 50.5761C67.6616 50.6609 67.5901 50.7643 67.5427 50.8791C67.4952 50.994 67.473 51.1177 67.4774 51.2418C67.4713 51.5204 67.5694 51.7913 67.7524 52.0014C68.0255 52.2754 68.3569 52.4842 68.7219 52.6122C69.248 52.7905 69.7165 53.1069 70.0783 53.5286C70.2909 53.8311 70.4274 54.1805 70.4759 54.5471C70.5245 54.9137 70.4838 55.2866 70.3572 55.634C70.2682 55.8688 70.1292 56.0813 69.9499 56.2571C69.763 56.4362 69.5411 56.5748 69.2982 56.6643C68.9518 56.7908 68.5819 56.8397 68.2145 56.8077C67.8471 56.7757 67.4913 56.6635 67.1719 56.479C66.7997 56.2564 66.5068 55.9223 66.3348 55.5241L66.8644 55.1412C66.9962 55.4592 67.2124 55.7352 67.4896 55.9394ZM71.5121 56.8271H70.8115L73.7281 49.735H73.8849L76.7993 56.8271H76.0988L75.3248 54.8866H72.2861L71.5121 56.8271ZM72.5202 54.29H75.0886L73.8054 51.0951L72.5202 54.29ZM76.058 49.9101L76.6852 49.735L78.9786 55.4649L81.2638 49.735L81.891 49.9101L79.0498 56.8332H78.893L76.058 49.9101ZM83.3778 56.709H82.7097V49.853H83.3778V56.709ZM85.5407 56.709H84.8727V49.8022L85.0763 49.735L89.6996 55.357V49.8591H90.3656V56.7641L90.162 56.8332L85.5407 51.2132V56.709ZM97.9645 54.6871C97.8245 55.096 97.6082 55.4746 97.3271 55.8029C97.0511 56.1212 96.7101 56.3767 96.3271 56.5523C95.9054 56.7419 95.4471 56.8357 94.9849 56.8271C94.5235 56.8293 94.0662 56.7405 93.6391 56.5658C93.2121 56.3911 92.8236 56.134 92.4961 55.809C92.1731 55.485 91.914 55.103 91.7323 54.6831C91.5454 54.2396 91.4492 53.7633 91.4492 53.2821C91.4492 52.8009 91.5454 52.3245 91.7323 51.8811C92.0102 51.2404 92.4704 50.6955 93.0556 50.3143C93.6408 49.933 94.3252 49.7323 95.0236 49.737C95.5856 49.7302 96.1407 49.861 96.6406 50.1178C97.1163 50.3575 97.5335 50.6988 97.8627 51.1176L97.3536 51.5004C97.0851 51.1478 96.7423 50.8586 96.3495 50.6533C95.9429 50.4387 95.4893 50.3289 95.0297 50.3336C94.6428 50.3314 94.2595 50.4083 93.9034 50.5596C93.188 50.8767 92.625 51.4612 92.3349 52.188C92.0449 52.9148 92.0508 53.7263 92.3514 54.4488C92.4975 54.7968 92.7084 55.114 92.9727 55.3835C93.2308 55.6424 93.5355 55.8504 93.8708 55.9964C94.2202 56.146 94.5967 56.2222 94.9768 56.2204C95.3154 56.2262 95.6519 56.1646 95.9665 56.0392C96.2499 55.9259 96.5081 55.7578 96.7262 55.5444C96.9405 55.332 97.115 55.0831 97.2415 54.8092C97.373 54.5251 97.4557 54.2208 97.486 53.9092H95.545V53.3106H98.1927C98.1876 53.7784 98.1107 54.2426 97.9645 54.6871ZM99.9686 55.9394C100.235 56.1311 100.557 56.2325 100.885 56.2286C101.078 56.2302 101.269 56.1971 101.449 56.1308C101.616 56.0693 101.769 55.9759 101.899 55.8558C102.027 55.7398 102.128 55.5965 102.193 55.4364C102.264 55.262 102.299 55.075 102.297 54.8867C102.298 54.7132 102.275 54.5403 102.227 54.3735C102.179 54.2077 102.1 54.0528 101.993 53.9174C101.868 53.7589 101.719 53.6214 101.551 53.5102C101.333 53.3676 101.1 53.2488 100.857 53.1559C100.412 53.0003 100.009 52.7438 99.6795 52.4065C99.4019 52.089 99.2562 51.6775 99.2721 51.2561C99.269 51.0465 99.3092 50.8385 99.3902 50.6452C99.4666 50.4627 99.5796 50.2977 99.7222 50.1605C99.8725 50.0202 100.049 49.9109 100.242 49.8388C100.457 49.7573 100.687 49.7172 100.918 49.7207C101.21 49.7158 101.499 49.786 101.757 49.9244C102.009 50.0584 102.22 50.2582 102.368 50.5026L101.897 50.8447C101.796 50.6794 101.653 50.5435 101.482 50.4506C101.312 50.3578 101.12 50.3111 100.926 50.3153C100.667 50.3054 100.414 50.3967 100.221 50.5698C100.13 50.6547 100.059 50.7581 100.012 50.8729C99.9641 50.9878 99.9418 51.1115 99.9462 51.2356C99.9402 51.5142 100.038 51.785 100.221 51.9952C100.495 52.2687 100.826 52.4775 101.191 52.606C101.717 52.7848 102.186 53.1012 102.549 53.5224C102.831 53.91 102.974 54.3812 102.956 54.8602C102.958 55.1222 102.912 55.3823 102.82 55.6278C102.73 55.8621 102.591 56.0745 102.413 56.2509C102.226 56.43 102.004 56.5687 101.761 56.6581C101.415 56.7845 101.045 56.8334 100.678 56.8014C100.311 56.7694 99.9556 56.6573 99.6366 56.4729C99.2634 56.2508 98.9697 55.9166 98.7975 55.5178L99.3271 55.135C99.4625 55.4573 99.6846 55.7357 99.9686 55.9394ZM111.036 57.043L110.311 56.1124C110.022 56.3201 109.709 56.4937 109.38 56.6296C109.031 56.7692 108.658 56.8384 108.282 56.8332C107.791 56.8332 107.317 56.6495 106.954 56.3181C106.782 56.1598 106.643 55.9678 106.547 55.7541C106.447 55.5363 106.397 55.2992 106.399 55.0597C106.398 54.846 106.433 54.6336 106.506 54.4325C106.581 54.2331 106.685 54.0463 106.816 53.8787C106.958 53.6985 107.115 53.5315 107.287 53.3798C107.474 53.2125 107.672 53.0567 107.879 52.9135C107.641 52.6278 107.431 52.3196 107.252 51.9932C107.125 51.7621 107.055 51.5036 107.048 51.2397C107.046 51.0348 107.084 50.8313 107.161 50.6411C107.233 50.4631 107.341 50.3017 107.478 50.1666C107.619 50.0305 107.786 49.9239 107.969 49.853C108.164 49.7774 108.371 49.7394 108.58 49.7411C108.774 49.7404 108.965 49.7785 109.144 49.853C109.507 50.0023 109.795 50.2895 109.946 50.6513C110.029 50.8498 110.071 51.0632 110.069 51.2785C110.071 51.4652 110.034 51.6504 109.961 51.8221C109.888 51.9914 109.789 52.1481 109.667 52.2864C109.537 52.4363 109.393 52.5727 109.236 52.6936C109.071 52.823 108.901 52.9459 108.726 53.0622L110.413 55.245C110.57 55.1075 110.724 54.9656 110.873 54.8194C111.023 54.6736 111.166 54.5214 111.302 54.3634L111.685 54.8438C111.545 55.0026 111.401 55.158 111.254 55.3101C111.108 55.4596 110.954 55.6016 110.794 55.7358L111.529 56.6846L111.036 57.043ZM107.13 55.5178C107.187 55.662 107.273 55.7925 107.385 55.9007C107.503 56.0126 107.641 56.101 107.792 56.1613C107.971 56.2291 108.16 56.2622 108.352 56.2591C108.633 56.2587 108.911 56.1983 109.166 56.0819C109.442 55.9578 109.704 55.8035 109.946 55.6217L108.232 53.3819C107.902 53.601 107.603 53.8648 107.346 54.1659C107.142 54.4139 107.032 54.7263 107.036 55.0475C107.035 55.2089 107.068 55.3688 107.13 55.5178ZM109.207 50.5677C109.13 50.4825 109.036 50.4147 108.93 50.369C108.825 50.3234 108.711 50.3009 108.596 50.3031C108.472 50.294 108.347 50.3135 108.232 50.3601C108.116 50.4067 108.013 50.4791 107.93 50.5718C107.778 50.7547 107.698 50.9861 107.704 51.2234C107.704 51.3304 107.722 51.4366 107.759 51.537C107.797 51.6422 107.849 51.7426 107.91 51.8364C107.975 51.9361 108.05 52.04 108.132 52.1683C108.213 52.2966 108.299 52.4248 108.391 52.5755C108.529 52.4869 108.665 52.3939 108.798 52.2966C108.92 52.2062 109.033 52.1046 109.136 51.9932C109.231 51.8876 109.311 51.7682 109.37 51.6389C109.43 51.5052 109.46 51.3598 109.458 51.2132C109.461 50.973 109.369 50.7411 109.203 50.5677H109.207ZM115.914 56.1124H118.628V56.709H115.247V49.853H115.914V56.1124ZM125.702 54.681C125.423 55.3219 124.964 55.8677 124.379 56.2513C123.794 56.6345 123.11 56.8387 122.411 56.8387C121.712 56.8387 121.028 56.6345 120.443 56.2513C119.858 55.8677 119.399 55.3219 119.12 54.681C118.932 54.2379 118.835 53.7614 118.835 53.28C118.835 52.7987 118.932 52.3222 119.12 51.8791C119.399 51.2382 119.858 50.6925 120.443 50.3089C121.028 49.9256 121.712 49.7214 122.411 49.7214C123.11 49.7214 123.794 49.9256 124.379 50.3089C124.964 50.6925 125.423 51.2382 125.702 51.8791C125.89 52.3222 125.987 52.7986 125.987 53.28C125.987 53.7615 125.89 54.2378 125.702 54.681ZM119.73 54.4468C119.881 54.7977 120.097 55.1163 120.368 55.3856C120.632 55.6453 120.943 55.8525 121.284 55.9964C121.641 56.1443 122.024 56.2204 122.41 56.2204C122.798 56.2204 123.18 56.1443 123.537 55.9964C123.883 55.8504 124.198 55.6388 124.463 55.3733C125.017 54.8139 125.327 54.0588 125.327 53.2719C125.327 52.485 125.017 51.7299 124.463 51.1705C124.197 50.906 123.883 50.6952 123.537 50.5494C123.181 50.4003 122.798 50.3235 122.411 50.3235C122.024 50.3235 121.641 50.4003 121.284 50.5494C120.938 50.6949 120.624 50.9058 120.357 51.1705C119.947 51.5935 119.669 52.1272 119.558 52.7059C119.446 53.2847 119.506 53.8834 119.73 54.4285V54.4468ZM126.908 56.8271H126.209L129.126 49.735H129.283L132.197 56.8271H131.497L130.723 54.8866H127.681L126.908 56.8271ZM127.916 54.29H130.485L129.201 51.0951L127.916 54.29ZM133.492 56.709H132.826V49.8022L133.03 49.735L137.653 55.357V49.8591H138.321V56.7641L138.118 56.8332L133.494 51.2193L133.492 56.709ZM140.444 55.9394C140.71 56.131 141.032 56.2324 141.36 56.2286C141.552 56.2302 141.742 56.1971 141.922 56.1308C142.089 56.0693 142.243 55.9759 142.375 55.8558C142.501 55.7384 142.601 55.5954 142.668 55.4364C142.739 55.2618 142.773 55.0748 142.769 54.8867C142.771 54.7133 142.748 54.5407 142.702 54.3735C142.653 54.2076 142.573 54.0528 142.466 53.9174C142.343 53.7583 142.194 53.6207 142.026 53.5102C141.807 53.3676 141.574 53.2488 141.33 53.1559C140.885 53.0004 140.483 52.7439 140.154 52.4065C139.876 52.0893 139.73 51.6775 139.747 51.2561C139.745 51.0466 139.784 50.8389 139.863 50.6452C139.94 50.4627 140.054 50.2978 140.197 50.1605C140.347 50.0197 140.523 49.9103 140.716 49.8388C140.932 49.7573 141.162 49.7173 141.393 49.7207C141.684 49.7155 141.973 49.7857 142.229 49.9244C142.482 50.0575 142.694 50.2575 142.841 50.5026L142.364 50.861C142.263 50.6955 142.121 50.5594 141.951 50.4666C141.78 50.3737 141.589 50.3272 141.395 50.3316C141.136 50.3213 140.883 50.4126 140.69 50.5862C140.599 50.6711 140.528 50.7745 140.48 50.8893C140.433 51.0042 140.411 51.1278 140.415 51.2519C140.409 51.5305 140.507 51.8014 140.69 52.0115C140.963 52.2862 141.294 52.4951 141.66 52.6223C142.186 52.8006 142.654 53.117 143.016 53.5387C143.229 53.8414 143.365 54.1907 143.414 54.5572C143.463 54.9237 143.422 55.2967 143.295 55.6441C143.205 55.8781 143.066 56.0903 142.888 56.2672C142.701 56.4459 142.479 56.5845 142.236 56.6744C141.953 56.7806 141.652 56.8325 141.35 56.8271C140.913 56.8309 140.484 56.7139 140.11 56.4891C139.738 56.2664 139.445 55.9323 139.272 55.5342L139.802 55.1513C139.939 55.4679 140.161 55.7405 140.444 55.9394ZM147.169 56.709V49.853H148.608C148.93 49.8474 149.251 49.8985 149.555 50.0037C149.815 50.0934 150.056 50.2316 150.265 50.4109C150.458 50.5841 150.611 50.7984 150.711 51.0381C150.914 51.541 150.914 52.1031 150.711 52.606C150.611 52.846 150.458 53.0603 150.265 53.2332C150.057 53.4141 149.816 53.5525 149.555 53.6404C149.251 53.7465 148.931 53.7982 148.608 53.7931H147.835V56.709H147.169ZM149.762 52.8402C149.899 52.7107 150.009 52.5543 150.084 52.3807C150.159 52.2072 150.197 52.0202 150.197 51.8312C150.197 51.6422 150.158 51.4554 150.084 51.2818C150.009 51.1082 149.899 50.9518 149.762 50.8223C149.429 50.5602 149.013 50.4278 148.591 50.4497H147.835V53.2128H148.591C149.014 53.2347 149.429 53.1023 149.762 52.8402ZM152.45 56.1124H155.165V56.709H151.784V49.853H152.45V56.1124ZM155.654 51.8791C155.932 51.2379 156.392 50.6929 156.978 50.3119C157.564 49.9306 158.249 49.73 158.947 49.735C159.409 49.7314 159.867 49.8158 160.297 49.9834C160.712 50.1469 161.092 50.3881 161.416 50.694L160.965 51.1461C160.699 50.8921 160.389 50.6892 160.049 50.5474C159.7 50.4022 159.325 50.3288 158.947 50.3316C158.56 50.3295 158.176 50.4064 157.819 50.5576C157.285 50.7849 156.829 51.1643 156.509 51.6486C156.189 52.1329 156.019 52.7006 156.019 53.2811C156.019 53.8614 156.189 54.4289 156.509 54.9132C156.829 55.3976 157.285 55.7771 157.819 56.0045C158.176 56.1544 158.56 56.2306 158.947 56.2286C159.325 56.2313 159.7 56.158 160.049 56.0126C160.388 55.8714 160.699 55.6692 160.965 55.4161L161.416 55.866C161.092 56.172 160.712 56.4132 160.297 56.5767C159.868 56.746 159.409 56.8311 158.947 56.8271C158.006 56.8323 157.101 56.4665 156.428 55.809C156.1 55.4871 155.837 55.1048 155.654 54.6831C155.467 54.2395 155.371 53.7633 155.37 53.2821C155.37 52.8009 155.467 52.3246 155.654 51.8811V51.8791Z" fill="#272425" stroke="#272425" stroke-width="0.210459" stroke-miterlimit="10"/>
<path d="M0 0H59.3511L0.170998 61.875V0" fill="#E22630"/>
<path d="M56.9274 32.9076L38.8497 33.215L56.9274 14.3575V32.9076ZM56.9274 41.2113V59.0691H13.7578L30.9739 41.1237H56.9274" fill="#272425"/>
</g>
<defs>
<clipPath id="clip0_181_926">
<rect width="165" height="61.875" fill="white"/>
</clipPath>
</defs>
</svg>
