<svg width="184" height="44" viewBox="0 0 184 44" fill="none" xmlns="http://www.w3.org/2000/svg">
<path d="M22.4935 22.2261C21.8903 22.8018 21.3283 23.4118 20.8006 24.0629C19.8206 25.2691 19.3956 26.0504 19.3956 26.6741C19.3956 27.3526 20.1632 27.7912 21.3695 27.7912C24.3234 27.7912 28.086 25.5775 28.086 23.8435C28.086 23.2747 27.5308 22.9457 27.0648 22.7675C25.9888 22.3495 24.7894 22.1439 23.3844 22.1439C23.0897 22.137 22.7882 22.1644 22.4935 22.2261Z" fill="#333333"/>
<path d="M50.7234 21.9932C50.7234 15.3795 47.2623 9.25238 41.6081 5.83244C32.6779 0.43182 21.0679 3.29662 15.6673 12.22C10.2667 21.1433 13.1315 32.7602 22.0548 38.1608C30.985 43.5614 42.595 40.6966 47.9956 31.7733C46.8031 32.6848 45.4461 33.1851 44.1645 33.1851C43.8218 33.1851 43.486 33.1508 43.1501 33.0754C41.0255 32.6094 39.5589 31.3209 39.0311 29.4362C38.4143 27.2705 39.1477 24.7072 40.8953 22.9047C40.9296 22.8705 43.7875 20.0262 44.9663 18.8954C46.3302 17.5726 46.8305 16.7091 46.8579 16.3253C46.2754 16.3664 43.9794 17.6275 41.5053 19.4231C38.4006 21.6779 35.1589 24.577 32.1433 27.8324C31.5265 28.5041 31.3483 28.6754 31.1084 28.6754C30.8137 28.6754 30.4093 28.2711 30.4093 27.9764C30.4093 27.7639 30.5396 27.4761 31.1769 26.7633C32.109 25.6941 32.109 25.6941 36.5296 21.1433C38.0031 19.6493 39.5315 17.7097 39.9221 16.9695C40.066 16.6748 40.1072 16.5514 40.1072 16.4144C40.1072 16.3938 40.1003 16.3733 40.0935 16.3527C39.7165 16.3664 38.2978 17.1683 36.4542 18.6761C34.5489 20.2318 33.6237 21.0885 32.39 22.5072C32.3215 22.5963 32.1227 22.8362 31.876 22.8362C31.5813 22.8088 31.3483 22.5689 31.3277 22.2673C31.3277 22.1166 31.3277 21.6711 33.7607 19.3957C36.2829 17.0518 38.7707 15.544 40.1072 15.544C40.6829 15.544 41.0804 15.9757 41.0804 16.5926C41.0804 17.4081 40.5938 18.3197 39.2779 19.9097C40.4361 18.9639 41.6355 18.0798 42.8829 17.2574C44.5963 16.1197 46.0149 15.496 46.8785 15.496C47.5364 15.4891 48.0847 16.0032 48.1053 16.6611C48.1053 17.3396 47.7695 17.9907 46.8511 19.0667C46.4467 19.5328 45.4872 20.506 43.9109 22.048L42.5059 23.4324L42.129 23.8025C40.5801 25.2966 39.8878 27.3664 40.3744 29.0661C40.7582 30.4231 41.848 31.362 43.438 31.7116C43.671 31.7595 43.9109 31.787 44.1508 31.787C45.172 31.787 46.2754 31.3552 47.2623 30.5602C49.2978 28.9153 50.5315 26.1053 50.6822 22.7676C50.7096 22.4935 50.7234 22.2468 50.7234 21.9932ZM29.443 20.9789C28.4766 21.253 27.4623 21.4997 26.633 21.6711C26.9346 21.7396 27.2361 21.8356 27.524 21.9589C28.648 22.4455 29.2168 23.1926 29.2168 24.1726C29.2168 25.2212 28.6274 26.1807 27.4075 27.0923C25.6392 28.415 23.5489 29.1757 21.6299 29.1757C19.7109 29.1757 18.5663 28.2711 18.5663 26.7496V26.6262C18.1688 27.106 17.6685 27.7091 17.5383 27.8736C17.1614 28.4013 16.8461 28.648 16.5582 28.648C16.2087 28.648 15.8386 28.3122 15.8386 28.0038C15.8386 27.7502 16.0031 27.4486 16.4692 26.8798C17.6822 25.3926 18.7308 24.1795 19.6698 23.1652C20.033 22.7951 20.3757 22.4044 20.7047 21.9932C20.6978 21.9795 20.6841 21.9589 20.6704 21.9315C20.6019 21.8356 20.5676 21.7259 20.5607 21.6025C20.5607 21.0885 21.2255 21.0337 21.5751 21.0337C23.2816 19.2518 24.6592 17.8194 25.6804 16.7776C23.7134 17.0381 22.1097 17.4493 21.1159 17.9564C20.876 18.1004 20.6019 18.1895 20.3209 18.21C19.9987 18.1895 19.7383 17.929 19.7178 17.6069C19.7178 17.134 20.1358 16.8804 21.0131 16.5172C22.6168 15.8524 24.6935 15.4275 27.1882 15.2698L27.2498 15.215C27.6748 14.8381 27.8118 14.7558 28.086 14.7558C28.3601 14.7558 28.5794 15.0231 28.6137 15.2835C29.2168 15.2767 29.8268 15.3384 30.4162 15.4617C32.0405 15.7976 32.9315 16.7022 32.9315 18.0181C32.9109 19.3477 31.7801 20.3072 29.443 20.9789Z" fill="#333333"/>
<path d="M28.4149 16.5857C28.1476 16.5857 28.0997 16.5857 27.6268 16.62C27.1813 17.1134 26.6673 17.6617 26.0916 18.2785C25.6598 18.7446 25.1869 19.2517 24.6797 19.7932L24.2 20.314C23.9601 20.5676 23.8093 20.7321 23.6174 20.9446C29.4019 20.1153 31.9994 18.7034 31.9994 17.6343C31.9994 16.9284 30.8274 16.5857 28.4149 16.5857Z" fill="#333333"/>
<path d="M113.331 23.0485C113.139 23.0485 113.043 23.1102 112.639 23.494L112.488 23.6173C112.392 22.7949 111.981 22.4454 111.22 22.4454C109.993 22.4454 107.745 23.5557 106.1 24.9401C101.577 28.8261 99.2193 30.3818 97.7526 30.3818C97.4031 30.3818 97.218 30.2585 97.218 30.0049C97.218 29.6279 97.6635 28.6479 98.4174 27.284C99.3015 25.7008 99.5551 25.3856 100.419 24.755C104.812 21.4379 105.956 20.451 108.232 17.9905C110.336 15.722 111.288 14.2553 111.288 13.3095C111.288 12.8366 111.035 12.5488 110.596 12.5488C109.301 12.5488 105.984 15.2971 101.961 19.7245C100.542 21.2391 99.2741 22.884 98.1638 24.6317L93.2293 28.2572C91.3308 29.6485 89.6106 30.375 88.7676 30.375C88.418 30.375 88.233 30.2516 88.233 29.998C88.233 29.6211 88.6785 28.641 89.4324 27.2771C90.3165 25.694 90.5701 25.3787 91.4336 24.7482C95.8268 21.431 96.9713 20.4441 99.2467 17.9837C101.358 15.7083 102.303 14.2485 102.303 13.3027C102.303 12.8298 102.05 12.5419 101.604 12.5419C100.309 12.5419 96.9919 15.2902 92.9688 19.7176C91.5501 21.2323 90.2822 22.8771 89.1788 24.6248L84.2442 28.2504C82.3458 29.6416 81.1532 30.2242 80.1115 30.3407C79.0698 30.4572 78.1788 30.0528 78.1788 29.1345C78.1788 28.7781 78.2405 28.4217 78.3707 28.0927C79.3233 27.7569 80.2417 27.3457 81.119 26.8659C83.7439 25.5021 84.9159 24.3644 84.9159 23.1924C84.9159 22.5276 84.5047 22.1781 83.7165 22.1781C82.7364 22.1781 81.4068 22.8429 79.6386 24.1999C78.1514 25.3719 77.3906 26.2834 76.7327 27.8049L76.5545 28.312C75.2386 28.9357 72.4149 30.0871 69.0978 30.2516C70.2286 29.7307 71.3047 29.0933 72.3053 28.3463C74.2037 26.9208 75.1221 25.4404 75.1221 23.8572C75.1221 22.4043 74.2654 21.294 72.5931 20.5675C71.7364 20.218 71.2635 20.0946 69.3651 19.7451C70.7495 19.5532 73.2853 18.9843 75.7526 18.2921C79.4193 17.2504 81.1601 15.7974 81.1601 13.8304C81.1601 11.8292 79.8031 10.5133 77.3358 10.0061C76.2255 9.78681 75.4716 9.71827 74.0804 9.71827C74.1078 9.63603 74.1146 9.55378 74.1146 9.46469C74.1146 9.17684 73.861 8.86157 73.6075 8.86157C73.2922 8.86157 73.162 8.92325 72.4698 9.52637L72.2779 9.67715C68.2617 9.93073 64.8486 10.6024 62.1894 11.699C60.7364 12.3021 60.2909 12.6447 60.2909 13.1519C60.3252 13.4877 60.5856 13.7482 60.9215 13.7824C61.1751 13.7824 61.5863 13.6591 62.0592 13.4055C63.9302 12.4597 66.9937 11.7332 70.6261 11.322C68.8853 13.0902 66.3838 15.6877 63.1352 19.1008C62.1209 19.1008 61.6822 19.2927 61.6822 19.6697C61.6822 19.7999 61.7302 19.9164 61.8056 20.0192C61.8673 20.1152 61.9084 20.2248 61.9289 20.3345C61.9289 20.4578 61.4218 21.0609 60.1265 22.4522C58.4199 24.289 56.6174 26.4067 54.9109 28.4902C54.2461 29.3127 53.9651 29.7856 53.9651 30.1008C53.9651 30.4161 54.4106 30.7999 54.7875 30.7999C55.1028 30.7999 55.5483 30.4504 56.1171 29.6622C56.686 28.9631 58.1389 27.2018 58.5775 26.722C58.4679 27.1538 58.4131 27.6061 58.4268 28.0516C58.4268 30.327 60.1676 31.6566 63.0735 31.6566C64.6704 31.636 66.2467 31.3482 67.7476 30.7999C67.9464 30.7999 68.1451 30.8136 68.3439 30.8136C71.8461 30.8136 74.8822 29.6828 76.4585 28.97C76.4585 29.0454 76.4517 29.1139 76.4517 29.1962C76.4517 30.3681 77.1439 30.9644 78.4735 30.9644C81.119 30.9644 82.709 30.1077 85.3956 28.0859C86.4099 27.3594 87.4517 26.5986 88.466 25.8379C87.6436 27.4211 87.2392 28.6547 87.2392 29.6005C87.2392 30.4572 87.6847 30.8958 88.5003 30.8958C89.8504 30.8958 91.6941 30.1077 94.3807 28.079C95.395 27.3525 96.4367 26.5918 97.4511 25.831C96.6286 27.4142 96.2243 28.6479 96.2243 29.5937C96.2243 30.4504 96.6698 30.889 97.4853 30.889C98.9726 30.889 100.426 30.1282 102.482 28.5793C103.085 28.1064 103.174 28.0379 103.777 27.5993C103.544 28.1064 103.421 28.6479 103.4 29.203C103.4 30.0254 103.941 30.56 104.73 30.56C105.655 30.56 105.991 30.3407 108.903 27.8734C108.177 29.1002 108.047 29.4223 108.047 29.9569C108.047 30.4915 108.492 30.8821 109.088 30.8821C109.945 30.8821 110.13 30.8205 110.13 30.5669C110.13 30.375 110.069 30.3133 109.815 30.3133C109.369 30.3133 109.116 30.2173 109.116 29.9638C109.116 29.7444 109.335 29.3606 109.842 28.737C110.569 27.8528 111.199 27.0578 111.768 26.3656C112.214 25.8585 112.214 25.8585 112.591 25.3856C113.852 23.8366 113.852 23.8366 113.852 23.4597C113.838 23.2061 113.619 23.0485 113.331 23.0485ZM105.429 18.0522C108.842 14.2279 110.075 13.0217 110.521 13.0217C110.651 13.0354 110.747 13.1451 110.74 13.2753C110.74 14.9544 106.347 19.6011 100.624 23.9326C101.536 22.5413 102.68 21.1775 105.429 18.0522ZM96.4436 18.0522H96.4504C99.8635 14.2279 101.097 13.0217 101.543 13.0217C101.673 13.0354 101.769 13.1451 101.762 13.2753C101.762 14.9544 97.3688 19.6011 91.6461 23.9326C92.5576 22.5413 93.6953 21.1775 96.4436 18.0522ZM83.3258 22.7606C83.5109 22.7675 83.6548 22.9251 83.648 23.1102V23.1376C83.648 24.0834 81.2149 26.1737 78.59 27.469C79.3713 25.5089 82.1539 22.7606 83.3258 22.7606ZM67.7956 16.469C69.7557 14.3513 71.4006 12.6105 72.6959 11.1918C73.6212 11.1301 73.676 11.1301 74.1489 11.1301C78.4187 11.1301 80.3445 11.7606 80.3445 13.1862C80.3445 15.5918 74.5601 17.8672 65.39 19.0666C66.3769 17.9837 66.5003 17.8603 67.7956 16.469ZM62.6417 30.1282C60.4554 30.1282 59.0642 29.2715 59.0642 27.9488C59.0642 26.8385 59.7564 25.5158 61.4355 23.4597C62.3265 22.3631 63.286 21.3282 64.314 20.3619C64.8417 20.2522 65.3832 20.1974 65.9246 20.2111C68.2959 20.2111 70.2903 20.5606 72.0585 21.2528C73.3265 21.7257 73.957 22.4522 73.957 23.3363C73.9638 26.3656 67.6723 30.1282 62.6417 30.1282ZM108.972 27.1538C107.012 28.8946 105.682 29.8404 105.182 29.8404C104.976 29.8472 104.805 29.6828 104.798 29.4771V29.4292C104.798 28.6684 105.812 27.4279 108.437 25.0977C110.144 23.5488 110.843 23.0759 111.378 23.0759C111.693 23.0759 111.85 23.2678 111.85 23.5831C111.844 24.2753 110.932 25.3856 108.972 27.1538ZM152.574 19.2173C153.65 19.2173 154.754 18.4566 154.754 17.7301C154.754 17.2229 154.439 16.8734 153.966 16.8734C152.924 16.8734 151.848 17.6958 151.848 18.4566C151.848 18.9363 152.136 19.2173 152.574 19.2173ZM160.614 19.2173H160.703C161.141 19.1968 161.573 19.0734 161.971 18.8678C162.601 18.5525 162.896 18.203 162.896 17.7301C162.896 17.2229 162.581 16.8734 162.108 16.8734C161.066 16.8734 159.99 17.6958 159.99 18.484C159.956 18.8678 160.237 19.1968 160.614 19.2173Z" fill="#333333"/>
<path d="M169.585 23.0487C169.393 23.0487 169.297 23.1103 168.886 23.4941L168.735 23.6175C168.639 22.7951 168.228 22.4455 167.474 22.4455C166.247 22.4455 163.979 23.5353 162.355 24.9403C162.169 25.091 161.998 25.2555 161.841 25.3994C159.126 27.4966 155.919 29.0455 153.616 29.8885L154.637 28.6617C155.206 27.9695 155.809 27.2773 156.378 26.544C157.009 25.7832 157.674 24.9951 158.338 24.1727C159.003 23.3845 159.222 22.9733 159.222 22.5278C159.222 22.1166 158.935 21.9247 158.366 21.9247C158.016 21.9247 157.441 22.3359 156.31 23.4736C151.156 28.086 147.804 30.334 146.605 30.334C145.988 30.334 145.783 30.2723 145.783 29.9228C145.783 29.5459 146.255 28.8811 148.216 26.5714C150.649 23.7272 150.745 23.5969 150.745 23.1241C150.745 22.7608 150.45 22.4593 150.08 22.4593C149.511 22.4593 149.1 22.6512 148.654 23.1515C148.181 23.7203 146.502 25.0773 142.459 28.2437C140.69 29.635 139.073 30.3272 138.408 30.3272C137.963 30.3272 137.716 30.2312 137.716 29.9776C137.716 29.7583 137.935 29.3745 138.442 28.7508C139.169 27.8667 139.799 27.0717 140.368 26.3795C140.814 25.8723 140.814 25.8723 141.191 25.3994C142.459 23.8505 142.459 23.8505 142.459 23.4736C142.459 23.1857 142.239 23.0281 141.951 23.0281C141.76 23.0281 141.664 23.0898 141.252 23.4736L141.102 23.5969C141.006 22.7745 140.594 22.425 139.841 22.425C138.614 22.425 136.366 23.5353 134.721 24.9197C130.198 28.8057 127.874 30.3614 126.181 30.3614C125.77 30.3614 125.489 30.1421 125.489 29.8885C125.489 29.2854 127.168 27.5172 134.755 20.1153C137.476 17.463 138.929 15.9758 139.532 15.2767C140.958 13.5976 141.492 12.5901 141.492 11.5758C141.492 10.7191 140.731 10.0269 139.847 10.0269C138.518 10.0269 136.242 11.0412 133.522 12.8437C131.369 14.2281 129.382 15.7496 126.058 18.4431C125.174 19.1695 125.016 19.2998 124.29 19.8686C125.236 18.9434 125.743 18.3814 126.942 16.9284C129.19 14.2075 130.012 12.7203 130.012 11.4593C130.012 10.6368 129.505 10.1022 128.786 10.1022C126.702 10.1022 122.686 12.5627 118.67 16.2979C116.264 18.5459 114.811 20.1839 114.811 20.7253C114.811 20.9789 115.099 21.2941 115.353 21.2941C115.503 21.2941 115.73 21.1434 115.922 20.8829C117.923 18.6075 119.369 17.2163 122.59 14.5913C125.338 12.3434 127.902 10.7328 128.786 10.7328C128.978 10.7328 129.135 10.9247 129.135 11.1783C129.135 11.4935 129.039 11.7471 128.786 12.2543C128.093 13.5839 125.496 16.805 123.186 19.149C115.963 26.5851 115.963 26.5851 114.441 28.3259C113.584 29.2717 113.269 29.7789 113.269 30.0667C113.269 30.3546 113.776 30.8549 114.057 30.8549C114.277 30.8549 114.53 30.6356 115.483 29.587C120.445 24.2412 125.695 19.5328 130.821 15.8318C134.741 12.9876 138.758 10.7122 139.799 10.7122C139.964 10.7054 140.101 10.8356 140.108 11.0001V11.0343C140.108 11.9184 138.936 13.5633 136.914 15.5234C133.94 18.3677 131.507 20.7733 128.313 24.063C124.139 28.367 123.728 28.8674 123.728 29.9091C123.728 30.6356 124.358 31.2044 125.181 31.2044C127.614 31.2044 129.423 29.7994 131.061 28.6138C131.678 28.1614 131.753 28.0723 132.356 27.6337C132.123 28.1409 131.993 28.696 131.986 29.258C131.986 30.0804 132.528 30.615 133.316 30.615C134.241 30.615 134.584 30.3957 137.49 27.9284C136.763 29.1552 136.633 29.4773 136.633 30.0119C136.633 30.5465 137.079 30.9371 137.675 30.9371C139.443 30.9371 141.232 29.916 143.589 28.0586C145.255 26.7427 146.591 25.653 148.113 24.392C145.522 27.4898 144.7 28.7851 144.7 29.8337C144.7 30.4642 145.241 30.9097 145.968 30.9097C148.449 30.9097 151.361 28.5247 156.906 23.734C155.199 25.8518 153.335 28.1614 151.279 30.6287C149.278 31.1976 147.77 31.9857 146.255 33.3496C144.391 35.0287 142.966 37.4275 142.966 38.9147C142.966 39.4493 143.281 39.8399 143.726 39.8399C144.391 39.8399 145.111 39.2711 146.859 37.4343C151.252 32.7876 151.252 32.7876 152.773 30.9508L152.938 30.7589C155.522 29.8817 157.989 28.696 160.285 27.2225C160.182 27.3664 160.093 27.5172 160.011 27.6748C159.778 28.1751 159.647 28.7166 159.627 29.2717C159.627 30.0941 160.168 30.6287 160.956 30.6287C161.882 30.6287 162.217 30.4094 165.13 27.9421C164.404 29.1689 164.274 29.491 164.274 30.0256C164.274 30.5602 164.719 30.9508 165.315 30.9508C166.172 30.9508 166.357 30.8892 166.357 30.6356C166.357 30.4437 166.295 30.382 166.042 30.382C165.596 30.382 165.35 30.286 165.35 30.0325C165.35 29.8132 165.569 29.4293 166.076 28.8057C166.802 27.9216 167.433 27.1265 168.002 26.4343C168.447 25.9272 168.447 25.9272 168.824 25.4543C170.092 23.8917 170.092 23.8917 170.092 23.5147C170.092 23.2063 169.873 23.0487 169.585 23.0487ZM137.586 27.154C135.626 28.8948 134.296 29.8406 133.789 29.8406C133.583 29.8474 133.412 29.6829 133.405 29.4773V29.4293C133.405 28.6686 134.419 27.4281 137.044 25.0979C138.751 23.549 139.45 23.0761 139.984 23.0761C140.3 23.0761 140.457 23.268 140.457 23.5832C140.464 24.2755 139.546 25.3857 137.586 27.154ZM147.325 35.344C144.508 38.5994 144.193 38.949 143.816 38.949C143.665 38.949 143.562 38.7982 143.562 38.572C143.562 37.592 144.638 35.6661 145.899 34.3365C147.284 32.911 149.093 31.7733 150.799 31.3004C150.299 31.8966 150.299 31.8966 147.325 35.344ZM165.219 27.154C163.259 28.8948 161.93 29.8406 161.429 29.8406C161.224 29.8474 161.052 29.6829 161.045 29.4773V29.4293C161.045 28.6686 162.06 27.4281 164.685 25.0979C166.391 23.549 167.09 23.0761 167.625 23.0761C167.94 23.0761 168.098 23.268 168.098 23.5832C168.098 24.2755 167.186 25.3857 165.219 27.154Z" fill="#333333"/>
</svg>
