<svg width="106" height="60" viewBox="0 0 106 60" fill="none" xmlns="http://www.w3.org/2000/svg">
<g clip-path="url(#clip0_181_941)">
<path fill-rule="evenodd" clip-rule="evenodd" d="M0 34.8318V59.4955H4.0354V57.6637C4.73749 58.3984 5.58055 58.984 6.51417 59.3854C7.44779 59.7869 8.45278 59.9959 9.46903 60C11.8584 60 13.8407 59.1239 15.4071 57.3805C16.9823 55.6194 17.7788 53.3982 17.7788 50.6991C17.7788 48.0973 16.9911 45.9203 15.4248 44.1681C14.7243 43.3487 13.8566 42.6887 12.8801 42.2323C11.9035 41.776 10.8405 41.5338 9.76265 41.522C8.68474 41.5103 7.6168 41.7293 6.63051 42.1643C5.64422 42.5993 4.7624 43.2403 4.04425 44.0442V34.3451L0 34.8318ZM12.2743 46.7876C13.2184 47.9385 13.7037 49.3978 13.6372 50.8849C13.6372 52.4601 13.177 53.7787 12.2389 54.8318C11.8107 55.3327 11.2765 55.7322 10.6751 56.0016C10.0737 56.2709 9.41991 56.4034 8.76106 56.3893C8.08382 56.415 7.40946 56.2883 6.78765 56.0188C6.16584 55.7492 5.61241 55.3436 5.16814 54.8318C4.2175 53.6949 3.73081 52.2411 3.80531 50.761C3.80531 49.1062 4.26549 47.7699 5.18584 46.7345C5.63912 46.2243 6.19921 45.8203 6.82631 45.5511C7.45341 45.2819 8.13211 45.1542 8.81416 45.177C10.2035 45.177 11.354 45.7079 12.2743 46.7876Z" fill="#20365C"/>
<path d="M90.4248 34.8319V59.4956H94.4691V51.0443C94.4691 48.8938 94.7434 47.3717 95.3098 46.4867C95.885 45.6106 96.8762 45.177 98.2832 45.177C99.3894 45.177 100.186 45.4956 100.673 46.1239C101.177 46.7434 101.425 47.7611 101.425 49.1593V59.4956H105.469V48.7876C105.469 46.3452 104.965 44.5664 103.965 43.4513C103.358 42.8095 102.621 42.3058 101.802 41.9744C100.984 41.6431 100.103 41.4918 99.2213 41.531C97.4438 41.5478 95.7402 42.2444 94.4602 43.4779V34.3363L90.4248 34.823V34.8319ZM20.885 42.0177H24.9116V43.5752C25.4797 42.9383 26.1495 42.4 26.8939 41.9823C27.4779 41.6814 28.1682 41.5398 28.9735 41.5398C30.0355 41.5398 31.1505 41.8761 32.3098 42.5752L30.4602 46.2744C29.8207 45.7672 29.0368 45.476 28.2213 45.4425C26.0089 45.4425 24.9116 47.1062 24.9116 50.4337V59.4956H20.885V42.0177Z" fill="#20365C"/>
<path fill-rule="evenodd" clip-rule="evenodd" d="M46.1062 42.0176H50.1504V59.4955H46.1062V57.6637C45.3626 58.4299 44.4684 59.0339 43.48 59.4377C42.4915 59.8414 41.4302 60.0361 40.3628 60.0095C39.2954 59.9829 38.245 59.7355 37.2779 59.2831C36.3108 58.8306 35.4478 58.1828 34.7433 57.3805C33.1514 55.5263 32.3143 53.1415 32.3982 50.6991C32.3982 48.0796 33.177 45.9026 34.7433 44.1504C35.4466 43.3376 36.3149 42.6839 37.2903 42.2325C38.2657 41.7811 39.326 41.5425 40.4008 41.5324C41.4755 41.5224 42.5401 41.7412 43.5238 42.1742C44.5075 42.6073 45.3878 43.2447 46.1062 44.0442V42.0088V42.0176ZM36.5132 50.6991C36.5132 52.3805 36.9557 53.7433 37.8584 54.7964C38.7787 55.8584 39.9469 56.3893 41.3451 56.3893C42.8407 56.3893 44.0442 55.876 44.9734 54.8495C45.9186 53.7155 46.4104 52.2716 46.354 50.7964C46.354 49.1504 45.8849 47.8053 44.9646 46.7345C44.5196 46.2258 43.9674 45.8223 43.3476 45.5529C42.7278 45.2836 42.0559 45.1552 41.3805 45.1769C39.9911 45.1769 38.8318 45.7079 37.8938 46.7522C36.9608 47.8515 36.4689 49.2579 36.5132 50.6991Z" fill="#20365C"/>
<path d="M54.0885 42.0177H58.1504V43.6283C59.5664 42.2301 61.1504 41.531 62.9204 41.531C64.9558 41.531 66.5398 42.1681 67.6726 43.4513C68.6549 44.5398 69.1504 46.3186 69.1504 48.7787V59.4956H65.0885V49.7345C65.0885 48.0088 64.8496 46.8141 64.3805 46.1593C63.9115 45.4956 63.0531 45.1593 61.823 45.1593C60.4867 45.1593 59.531 45.6018 58.9735 46.4867C58.4248 47.3628 58.1504 48.8849 58.1504 51.0619V59.4956H54.0885V42.0177ZM74.3982 50.2301C74.3976 49.1604 74.7149 48.1146 75.3097 47.2255C75.9044 46.3364 76.75 45.6441 77.7389 45.2364C78.7279 44.8286 79.8157 44.7239 80.8642 44.9355C81.9128 45.1471 82.8749 45.6655 83.6283 46.4248L86.3717 43.6991C84.8605 42.177 82.8679 41.2263 80.734 41.0092C78.6001 40.7922 76.457 41.3222 74.6702 42.5089C72.8835 43.6956 71.5638 45.4655 70.9363 47.5166C70.3088 49.5677 70.4124 51.7729 71.2294 53.7562C72.0463 55.7394 73.526 57.3778 75.4161 58.3918C77.3062 59.4059 79.4896 59.7327 81.5938 59.3167C83.6979 58.9006 85.5926 57.7674 86.9545 56.1103C88.3165 54.4533 89.0613 52.375 89.062 50.2301H85.1947C85.1947 51.6618 84.6259 53.0348 83.6136 54.0472C82.6012 55.0596 81.2282 55.6283 79.7965 55.6283C78.3648 55.6283 76.9917 55.0596 75.9793 54.0472C74.967 53.0348 74.3982 51.6618 74.3982 50.2301Z" fill="#20365C"/>
<path fill-rule="evenodd" clip-rule="evenodd" d="M54.0886 0V33.2124H55.0443V0H54.0709H54.0886ZM60.0178 23.6991C60.8815 23.6991 61.7098 23.356 62.3205 22.7453C62.9313 22.1345 63.2744 21.3062 63.2744 20.4425C63.2744 19.5788 62.9313 18.7504 62.3205 18.1397C61.7098 17.529 60.8815 17.1858 60.0178 17.1858C59.154 17.1858 58.3257 17.529 57.715 18.1397C57.1042 18.7504 56.7611 19.5788 56.7611 20.4425C56.7611 21.3062 57.1042 22.1345 57.715 22.7453C58.3257 23.356 59.154 23.6991 60.0178 23.6991ZM63.2655 12.3894C63.2886 12.8307 63.2215 13.2722 63.0685 13.6868C62.9154 14.1014 62.6796 14.4805 62.3754 14.8011C62.0711 15.1216 61.7048 15.3769 61.2987 15.5513C60.8926 15.7258 60.4553 15.8157 60.0133 15.8157C59.5714 15.8157 59.134 15.7258 58.728 15.5513C58.3219 15.3769 57.9556 15.1216 57.6513 14.8011C57.347 14.4805 57.1112 14.1014 56.9582 13.6868C56.8051 13.2722 56.7381 12.8307 56.7611 12.3894C56.8046 11.5562 57.1662 10.7714 57.7713 10.1971C58.3765 9.62267 59.179 9.30245 60.0133 9.30245C60.8477 9.30245 61.6502 9.62267 62.2553 10.1971C62.8605 10.7714 63.2221 11.5562 63.2655 12.3894ZM49.1239 19.6726C49.9877 19.6726 50.816 19.3295 51.4267 18.7187C52.0375 18.108 52.3806 17.2796 52.3806 16.4159C52.3806 15.5522 52.0375 14.7239 51.4267 14.1131C50.816 13.5024 49.9877 13.1593 49.1239 13.1593C48.2602 13.1593 47.4319 13.5024 46.8212 14.1131C46.2104 14.7239 45.8673 15.5522 45.8673 16.4159C45.8673 17.2796 46.2104 18.108 46.8212 18.7187C47.4319 19.3295 48.2602 19.6726 49.1239 19.6726Z" fill="#1DAFEC"/>
</g>
<defs>
<clipPath id="clip0_181_941">
<rect width="105.487" height="60" fill="white"/>
</clipPath>
</defs>
</svg>
