<svg width="287" height="354" viewBox="0 0 287 354" fill="none" xmlns="http://www.w3.org/2000/svg">
<rect width="287" height="354" rx="10" fill="#3D3D3D"/>
<rect x="0.25" y="0.25" width="286.5" height="353.5" rx="9.75" stroke="#616161" stroke-opacity="0.25" stroke-width="0.5"/>
<path d="M142.926 286.422C218.898 286.422 280.486 254.085 280.486 214.195C280.486 174.305 218.898 141.968 142.926 141.968C66.9539 141.968 5.36633 174.305 5.36633 214.195C5.36633 254.085 66.9539 286.422 142.926 286.422Z" fill="#F5F5F5"/>
<path d="M27.8178 239.033C34.4858 239.033 39.8913 236.173 39.8913 232.645C39.8913 229.117 34.4858 226.258 27.8178 226.258C21.1498 226.258 15.7443 229.117 15.7443 232.645C15.7443 236.173 21.1498 239.033 27.8178 239.033Z" fill="#E6E6E6"/>
<path d="M57.8128 257.773C64.4808 257.773 69.8863 254.913 69.8863 251.385C69.8863 247.857 64.4808 244.997 57.8128 244.997C51.1448 244.997 45.7393 247.857 45.7393 251.385C45.7393 254.913 51.1448 257.773 57.8128 257.773Z" fill="#E6E6E6"/>
<path d="M210.621 219.234C196.888 211.968 174.621 211.968 160.888 219.234C149.246 225.393 147.477 234.795 155.572 241.943C155.105 242.065 154.658 242.222 154.264 242.43L110.877 265.385C109.035 266.36 109.035 267.939 110.877 268.914L113.593 270.351C115.435 271.326 118.37 271.25 120.15 270.183L160.558 245.949C160.734 245.843 160.88 245.729 161.023 245.614C174.766 252.81 196.932 252.789 210.622 245.546C224.355 238.28 224.355 226.5 210.621 219.234Z" fill="#E6E6E6"/>
<path d="M267.588 196.622C278.47 202.239 278.58 211.519 267.832 217.349C257.084 223.179 239.546 223.352 228.659 217.737C217.772 212.121 217.663 202.841 228.415 197.009C239.168 191.178 256.706 191.005 267.588 196.622Z" fill="#E0E0E0"/>
<path d="M151.535 73.8951L31.2422 137.659L31.546 138.14L151.839 74.3764L151.535 73.8951Z" fill="#E0E0E0"/>
<path d="M151.544 87.2808L31.2372 151.032L31.5409 151.513L151.848 87.7621L151.544 87.2808Z" fill="#E0E0E0"/>
<path d="M151.553 100.676L31.2188 164.376L31.5222 164.858L151.857 101.158L151.553 100.676Z" fill="#E0E0E0"/>
<path d="M151.555 114.038L31.2207 177.738L31.5245 178.22L151.859 114.52L151.555 114.038Z" fill="#E0E0E0"/>
<path d="M151.552 127.413L31.217 191.113L31.5205 191.594L151.855 127.894L151.552 127.413Z" fill="#E0E0E0"/>
<path d="M151.551 140.781L31.2164 204.481L31.5202 204.963L151.855 141.263L151.551 140.781Z" fill="#E0E0E0"/>
<path d="M42.6098 118.752H42.0031V212.329H42.6098V118.752Z" fill="#E0E0E0"/>
<path d="M53.5507 112.962H52.944V206.54H53.5507V112.962Z" fill="#E0E0E0"/>
<path d="M64.4917 107.174H63.885V200.752H64.4917V107.174Z" fill="#E0E0E0"/>
<path d="M75.4334 101.386H74.8267V194.963H75.4334V101.386Z" fill="#E0E0E0"/>
<path d="M86.3738 95.597H85.7671V189.175H86.3738V95.597Z" fill="#E0E0E0"/>
<path d="M97.3153 89.8085H96.7086V183.386H97.3153V89.8085Z" fill="#E0E0E0"/>
<path d="M108.256 84.0193H107.65V177.597H108.256V84.0193Z" fill="#E0E0E0"/>
<path d="M119.197 78.2312H118.591V171.809H119.197V78.2312Z" fill="#E0E0E0"/>
<path d="M130.138 72.4425H129.532V166.021H130.138V72.4425Z" fill="#E0E0E0"/>
<path d="M141.079 66.6539H140.473V160.232H141.079V66.6539Z" fill="#E0E0E0"/>
<path d="M31.365 218.35C31.3128 218.35 31.26 218.338 31.2129 218.313C31.1194 218.263 31.0614 218.171 31.0614 218.072V124.54C31.0614 124.441 31.1194 124.349 31.2129 124.299L151.565 60.6244C151.659 60.5744 151.775 60.5744 151.869 60.6244C151.962 60.6738 152.02 60.7659 152.02 60.8653V154.397C152.02 154.496 151.962 154.587 151.869 154.637L31.5172 218.313C31.4701 218.337 31.4173 218.35 31.365 218.35ZM31.6681 124.701V217.591L151.414 154.237V61.3466L31.6681 124.701Z" fill="#E0E0E0"/>
<path d="M162.445 159.9L42.1248 223.613L42.4286 224.095L162.749 160.382L162.445 159.9Z" fill="#E0E0E0"/>
<path d="M173.409 165.697L53.0745 229.41L53.3783 229.892L173.713 166.179L173.409 165.697Z" fill="#E0E0E0"/>
<path d="M184.326 171.477L64.0057 235.19L64.3096 235.672L184.63 171.959L184.326 171.477Z" fill="#E0E0E0"/>
<path d="M195.267 177.266L74.9463 240.979L75.2501 241.461L195.571 177.748L195.267 177.266Z" fill="#E0E0E0"/>
<path d="M42.4539 212.044L42.1503 212.526L96.8534 241.468L97.157 240.986L42.4539 212.044Z" fill="#E0E0E0"/>
<path d="M53.3943 206.256L53.0907 206.738L107.794 235.681L108.098 235.199L53.3943 206.256Z" fill="#E0E0E0"/>
<path d="M64.3356 200.468L64.032 200.95L118.736 229.893L119.039 229.411L64.3356 200.468Z" fill="#E0E0E0"/>
<path d="M75.2772 194.677L74.9735 195.159L129.677 224.102L129.981 223.62L75.2772 194.677Z" fill="#E0E0E0"/>
<path d="M86.2187 188.891L85.915 189.372L140.619 218.315L140.922 217.833L86.2187 188.891Z" fill="#E0E0E0"/>
<path d="M97.16 183.102L96.8563 183.584L151.56 212.527L151.864 212.045L97.16 183.102Z" fill="#E0E0E0"/>
<path d="M108.101 177.313L107.797 177.795L162.5 206.738L162.804 206.256L108.101 177.313Z" fill="#E0E0E0"/>
<path d="M119.042 171.526L118.739 172.008L173.442 200.95L173.746 200.469L119.042 171.526Z" fill="#E0E0E0"/>
<path d="M129.984 165.737L129.68 166.219L184.384 195.161L184.687 194.679L129.984 165.737Z" fill="#E0E0E0"/>
<path d="M140.925 159.949L140.621 160.431L195.325 189.374L195.629 188.892L140.925 159.949Z" fill="#E0E0E0"/>
<path d="M86.0322 247.272C85.98 247.272 85.9272 247.26 85.8801 247.236L31.2129 218.313C31.1194 218.263 31.0614 218.171 31.0614 218.072C31.0614 217.973 31.1194 217.881 31.2129 217.831L151.565 154.156C151.659 154.106 151.775 154.106 151.869 154.156L206.537 183.079C206.63 183.129 206.688 183.221 206.688 183.32C206.688 183.419 206.63 183.511 206.537 183.561L86.1844 247.236C86.1373 247.26 86.0845 247.272 86.0322 247.272ZM31.9718 218.072L86.0328 246.674L205.778 183.32L151.717 154.717L31.9718 218.072Z" fill="#E0E0E0"/>
<path d="M61.3927 127.516C61.3927 133.567 57.6474 140.593 53.0255 143.215C48.4088 145.837 44.6641 143.052 44.6641 137.007C44.6641 130.956 48.4088 123.93 53.0255 121.308V132.917L60.9846 124.363C61.2492 125.279 61.3927 126.335 61.3927 127.516Z" fill="#455A64"/>
<path d="M61.7548 122.677C60.666 118.901 57.5147 117.513 53.7975 119.621V131.228L61.7548 122.677Z" fill="#27DEBF"/>
<path d="M80.5408 118.043L85.4605 124.121C84.076 126.217 82.377 127.956 80.5408 128.996C75.9241 131.618 72.1793 128.839 72.1793 122.788C72.1793 116.737 75.9247 109.711 80.5408 107.089V118.043Z" fill="#455A64"/>
<path d="M86.7326 123.645C88.8219 120.469 90.18 116.471 90.18 112.828C90.18 106.778 86.4352 103.998 81.8157 106.617V117.57L86.7326 123.645Z" fill="#27DEBF"/>
<path d="M134.361 78.2775V89.2309L126.402 90.3576C127.488 85.3469 130.644 80.3851 134.361 78.2775Z" fill="#455A64"/>
<path d="M127.815 91.6142C127.55 92.8303 127.407 94.049 127.407 95.231C127.407 101.28 131.152 104.061 135.772 101.441C140.391 98.822 144.136 91.7941 144.136 85.7451C144.136 79.6961 140.391 76.9151 135.772 79.5346V90.4891L127.815 91.6142Z" fill="#27DEBF"/>
<path d="M107.863 92.0981V103.052L102.949 114.704C100.858 113.897 99.496 111.438 99.496 107.792C99.496 101.746 103.241 94.7145 107.863 92.0981Z" fill="#455A64"/>
<path d="M104.29 115.052C105.67 115.584 107.369 115.396 109.206 114.355C113.826 111.735 117.571 104.707 117.571 98.6584C117.571 92.6088 113.826 89.8284 109.206 92.4479V103.402L104.29 115.052Z" fill="#27DEBF"/>
<path d="M47.9738 157.77V154.192C47.9738 154.107 48.0386 154.004 48.1184 153.962L57.9958 148.67C58.0756 148.628 58.1404 148.662 58.1404 148.747V152.325C58.1404 152.409 58.0756 152.512 57.9958 152.554L48.1184 157.847C48.0386 157.889 47.9738 157.854 47.9738 157.77Z" fill="#27DEBF"/>
<path d="M75.3771 143.345V139.767C75.3771 139.683 75.4419 139.58 75.5217 139.537L85.3991 134.245C85.4789 134.203 85.5438 134.238 85.5438 134.322V137.9C85.5438 137.985 85.4789 138.088 85.3991 138.13L75.5217 143.422C75.4419 143.464 75.3771 143.43 75.3771 143.345Z" fill="#27DEBF"/>
<path d="M102.781 128.921V125.343C102.781 125.258 102.846 125.155 102.926 125.113L112.803 119.821C112.883 119.779 112.948 119.813 112.948 119.898V123.476C112.948 123.56 112.883 123.663 112.803 123.705L102.926 128.998C102.845 129.04 102.781 129.005 102.781 128.921Z" fill="#27DEBF"/>
<path d="M130.184 114.496V110.918C130.184 110.834 130.249 110.731 130.328 110.689L140.206 105.396C140.286 105.354 140.35 105.389 140.35 105.473V109.051C140.35 109.136 140.286 109.239 140.206 109.281L130.328 114.573C130.249 114.615 130.184 114.581 130.184 114.496Z" fill="#27DEBF"/>
<path d="M171.097 98.4159L160.156 115.655L149.215 145.224L138.274 139.735L127.333 167.319L116.392 161.831L105.451 167.839L94.5096 181.724L83.568 180.998L72.627 201.582L61.686 201.015L50.745 214.956V228.325L53.2092 229.629L173.561 165.939V99.7198L171.097 98.4159Z" fill="#263238"/>
<path d="M53.2092 216.26L64.1508 202.319L75.0918 202.886L86.0328 182.302L96.9739 183.028L107.915 169.143L118.856 163.135L129.797 168.623L140.738 141.039L151.679 146.528L162.621 116.959L173.562 99.7198V165.939L53.2092 229.629V216.26Z" fill="#455A64"/>
<path d="M50.745 214.957L53.2092 216.26L64.1508 202.319L61.686 201.015L50.745 214.957Z" fill="#37474F"/>
<path d="M83.5681 180.998L86.0328 182.302L75.0918 202.886L72.6271 201.582L83.5681 180.998Z" fill="#37474F"/>
<path d="M94.5096 181.724L96.9738 183.028L107.915 169.143L105.451 167.839L94.5096 181.724Z" fill="#37474F"/>
<path d="M138.274 139.735L140.738 141.039L129.797 168.623L127.333 167.319L138.274 139.735Z" fill="#37474F"/>
<path d="M160.156 115.655L162.62 116.959L151.679 146.528L149.215 145.224L160.156 115.655Z" fill="#37474F"/>
<path d="M161.987 103.769C161.939 103.769 161.89 103.757 161.847 103.731C161.731 103.66 161.699 103.516 161.776 103.409L171.125 90.4818C171.202 90.375 171.36 90.3461 171.476 90.4166C171.592 90.4876 171.624 90.6312 171.546 90.7379L162.198 103.665C162.15 103.733 162.069 103.769 161.987 103.769Z" fill="#455A64"/>
<path d="M150.612 133.128C150.585 133.128 150.557 133.124 150.53 133.115C150.398 133.074 150.327 132.942 150.372 132.821L159.726 107.542C159.771 107.421 159.915 107.355 160.047 107.397C160.179 107.438 160.25 107.57 160.206 107.691L150.852 132.97C150.816 133.067 150.717 133.128 150.612 133.128Z" fill="#455A64"/>
<path d="M148.583 134.653C148.541 134.653 148.5 134.643 148.461 134.624L140.856 130.817C140.734 130.755 140.689 130.614 140.756 130.502C140.823 130.389 140.978 130.348 141.1 130.409L148.704 134.217C148.827 134.278 148.872 134.419 148.805 134.532C148.759 134.608 148.672 134.653 148.583 134.653Z" fill="#455A64"/>
<path d="M129.648 155.673C129.619 155.673 129.59 155.668 129.562 155.658C129.429 155.615 129.362 155.482 129.409 155.361L138.657 132.048C138.704 131.928 138.848 131.866 138.98 131.91C139.112 131.953 139.18 132.086 139.132 132.207L129.885 155.52C129.848 155.614 129.751 155.673 129.648 155.673Z" fill="#455A64"/>
<path d="M127.564 157.19C127.523 157.19 127.481 157.18 127.442 157.161L118.975 152.913C118.852 152.851 118.807 152.71 118.874 152.598C118.941 152.485 119.096 152.445 119.218 152.506L127.686 156.754C127.809 156.815 127.853 156.956 127.786 157.069C127.74 157.145 127.653 157.19 127.564 157.19Z" fill="#455A64"/>
<path d="M108.534 157.442C108.449 157.442 108.364 157.402 108.317 157.329C108.245 157.219 108.284 157.077 108.404 157.011L116.106 152.781C116.225 152.715 116.381 152.751 116.453 152.861C116.525 152.971 116.486 153.114 116.366 153.179L108.664 157.409C108.624 157.431 108.579 157.442 108.534 157.442Z" fill="#455A64"/>
<path d="M97.4014 170.405C97.3498 170.405 97.2981 170.391 97.2533 170.361C97.1397 170.286 97.1144 170.141 97.1959 170.038L105.411 159.613C105.493 159.509 105.651 159.486 105.764 159.561C105.878 159.636 105.903 159.781 105.821 159.885L97.6064 170.309C97.557 170.372 97.4801 170.405 97.4014 170.405Z" fill="#455A64"/>
<path d="M94.4805 172.115C94.4747 172.115 94.4684 172.114 94.4621 172.114L86.4961 171.585C86.3572 171.576 86.2516 171.465 86.2625 171.337C86.2728 171.21 86.383 171.109 86.5334 171.123L94.4994 171.651C94.6383 171.661 94.7439 171.771 94.733 171.9C94.7232 172.021 94.6119 172.115 94.4805 172.115Z" fill="#455A64"/>
<path d="M75.2239 189.947C75.186 189.947 75.1487 189.939 75.1131 189.923C74.9874 189.867 74.9352 189.728 74.9966 189.613L83.6944 173.249C83.7552 173.134 83.9079 173.087 84.0331 173.142C84.1588 173.198 84.211 173.337 84.1496 173.453L75.4518 189.816C75.4076 189.899 75.3174 189.947 75.2239 189.947Z" fill="#455A64"/>
<path d="M72.5966 191.994C72.592 191.994 72.5869 191.993 72.5823 191.993L64.6042 191.58C64.4648 191.573 64.358 191.463 64.366 191.335C64.3741 191.208 64.4739 191.118 64.6335 191.117L72.6115 191.53C72.751 191.537 72.8578 191.647 72.8497 191.775C72.8417 191.899 72.7298 191.994 72.5966 191.994Z" fill="#455A64"/>
<path d="M52.2122 205.447C52.1605 205.447 52.1089 205.433 52.0641 205.403C51.951 205.328 51.9252 205.184 52.0061 205.079L61.5632 192.901C61.6465 192.797 61.8037 192.774 61.9168 192.848C62.0299 192.923 62.0557 193.068 61.9748 193.172L52.4177 205.35C52.3683 205.413 52.2908 205.447 52.2122 205.447Z" fill="#455A64"/>
<path d="M62.5075 193.667C62.3135 193.667 62.1304 193.623 61.9645 193.536C61.5271 193.304 61.2769 192.793 61.2769 192.131C61.2769 190.944 62.046 189.606 63.027 189.087C63.4988 188.837 63.966 188.81 64.3432 189.009C64.7806 189.24 65.0308 189.752 65.0308 190.413C65.0308 191.602 64.2617 192.939 63.2801 193.457C63.0161 193.597 62.7532 193.667 62.5075 193.667ZM63.7973 189.341C63.609 189.341 63.423 189.414 63.2801 189.489C62.4547 189.926 61.7837 191.111 61.7837 192.131C61.7837 192.622 61.9415 192.988 62.2182 193.134C62.4903 193.278 62.8083 193.171 63.027 193.055C63.8524 192.619 64.524 191.434 64.524 190.413C64.524 189.923 64.3661 189.557 64.0895 189.411C63.9953 189.361 63.896 189.341 63.7973 189.341Z" fill="#455A64"/>
<path d="M84.3902 173.715C84.1961 173.715 84.013 173.671 83.8472 173.583C83.4098 173.353 83.1589 172.84 83.1589 172.179C83.1589 170.991 83.9281 169.654 84.9096 169.135C85.3815 168.885 85.8487 168.857 86.2252 169.057C86.6626 169.288 86.9135 169.8 86.9135 170.461C86.9135 171.649 86.1443 172.986 85.1628 173.505C84.8987 173.645 84.6364 173.715 84.3902 173.715ZM85.6799 169.389C85.4917 169.389 85.3057 169.462 85.1628 169.537C84.3374 169.974 83.6658 171.159 83.6658 172.179C83.6658 172.67 83.8236 173.035 84.1003 173.182C84.3741 173.326 84.6915 173.218 84.9096 173.103C85.735 172.666 86.4066 171.481 86.4066 170.461C86.4066 169.97 86.2488 169.605 85.9721 169.459C85.878 169.409 85.7787 169.389 85.6799 169.389Z" fill="#455A64"/>
<path d="M73.4485 194.131C73.2545 194.131 73.0714 194.087 72.9055 193.999C72.4681 193.768 72.2173 193.256 72.2173 192.595C72.2173 191.407 72.9864 190.07 73.968 189.551C74.4392 189.301 74.9071 189.273 75.2836 189.472C75.721 189.703 75.9718 190.216 75.9718 190.877C75.9718 192.065 75.2027 193.402 74.2211 193.921C73.9571 194.06 73.6948 194.131 73.4485 194.131ZM74.7383 189.804C74.55 189.804 74.364 189.877 74.2211 189.952C73.3957 190.389 72.7241 191.574 72.7241 192.594C72.7241 193.086 72.882 193.451 73.1586 193.597C73.433 193.741 73.7504 193.633 73.968 193.518C74.794 193.081 75.465 191.896 75.465 190.876C75.465 190.385 75.3071 190.02 75.0305 189.874C74.9363 189.824 74.837 189.804 74.7383 189.804Z" fill="#455A64"/>
<path d="M95.3306 174.259C95.1366 174.259 94.9529 174.215 94.787 174.127C94.3496 173.896 94.0994 173.384 94.0994 172.723C94.0994 171.535 94.8685 170.198 95.8501 169.679C96.3219 169.429 96.7897 169.401 97.1662 169.601C97.6031 169.831 97.8539 170.344 97.8539 171.005C97.8539 172.193 97.0847 173.53 96.1032 174.049C95.8392 174.188 95.5768 174.259 95.3306 174.259ZM96.6209 169.932C96.4332 169.932 96.2473 170.005 96.1038 170.08C95.2778 170.517 94.6068 171.702 94.6068 172.722C94.6068 173.213 94.7646 173.579 95.0413 173.724C95.3157 173.87 95.6331 173.761 95.8506 173.647C96.676 173.209 97.3476 172.024 97.3476 171.004C97.3476 170.513 97.1898 170.148 96.9131 170.002C96.8184 169.952 96.7191 169.932 96.6209 169.932Z" fill="#455A64"/>
<path d="M106.272 160.272C106.078 160.272 105.895 160.229 105.729 160.141C105.292 159.91 105.041 159.398 105.041 158.737C105.041 157.549 105.81 156.212 106.792 155.693C107.264 155.442 107.731 155.415 108.107 155.614C108.545 155.845 108.795 156.357 108.795 157.019C108.795 158.206 108.026 159.543 107.045 160.063C106.781 160.202 106.518 160.272 106.272 160.272ZM107.562 155.946C107.374 155.946 107.188 156.019 107.045 156.094C106.219 156.532 105.548 157.717 105.548 158.737C105.548 159.228 105.706 159.593 105.982 159.739C106.257 159.883 106.573 159.776 106.792 159.661C107.617 159.224 108.289 158.038 108.289 157.019C108.289 156.527 108.131 156.162 107.854 156.016C107.76 155.966 107.661 155.946 107.562 155.946Z" fill="#455A64"/>
<path d="M117.213 154.483C117.019 154.483 116.836 154.44 116.67 154.352C116.233 154.121 115.982 153.609 115.982 152.948C115.982 151.76 116.751 150.423 117.733 149.903C118.204 149.653 118.671 149.626 119.049 149.825C119.486 150.056 119.736 150.568 119.736 151.229C119.736 152.417 118.967 153.754 117.986 154.274C117.722 154.413 117.459 154.483 117.213 154.483ZM118.504 150.157C118.315 150.157 118.129 150.23 117.986 150.305C117.16 150.742 116.489 151.927 116.489 152.948C116.489 153.439 116.647 153.804 116.924 153.95C117.198 154.095 117.515 153.987 117.733 153.872C118.559 153.435 119.23 152.25 119.23 151.229C119.23 150.739 119.072 150.373 118.796 150.227C118.701 150.177 118.602 150.157 118.504 150.157Z" fill="#455A64"/>
<path d="M128.154 159.972C127.96 159.972 127.777 159.929 127.611 159.841C127.174 159.61 126.923 159.097 126.923 158.436C126.923 157.249 127.692 155.911 128.674 155.392C129.145 155.142 129.612 155.115 129.99 155.314C130.427 155.545 130.678 156.057 130.678 156.718C130.678 157.906 129.908 159.243 128.927 159.762C128.663 159.902 128.4 159.972 128.154 159.972ZM129.444 155.646C129.256 155.646 129.07 155.718 128.927 155.794C128.115 156.223 127.43 157.433 127.43 158.436C127.43 158.927 127.588 159.292 127.864 159.438C128.138 159.582 128.455 159.475 128.674 159.36C129.499 158.923 130.171 157.738 130.171 156.718C130.171 156.227 130.013 155.862 129.736 155.715C129.642 155.666 129.543 155.646 129.444 155.646Z" fill="#455A64"/>
<path d="M139.096 132.388C138.902 132.388 138.719 132.344 138.553 132.256C138.115 132.025 137.865 131.513 137.865 130.852C137.865 129.664 138.634 128.327 139.615 127.808C140.087 127.557 140.554 127.53 140.931 127.729C141.368 127.96 141.619 128.473 141.619 129.133C141.619 130.321 140.85 131.658 139.868 132.177C139.604 132.317 139.341 132.388 139.096 132.388ZM140.386 128.061C140.197 128.061 140.011 128.133 139.868 128.209C139.042 128.646 138.371 129.832 138.371 130.851C138.371 131.342 138.529 131.707 138.806 131.854C139.08 131.998 139.397 131.891 139.615 131.775C140.441 131.338 141.112 130.153 141.112 129.133C141.112 128.642 140.954 128.277 140.678 128.131C140.583 128.081 140.484 128.061 140.386 128.061Z" fill="#455A64"/>
<path d="M149.172 137.435C148.978 137.435 148.795 137.391 148.629 137.304C148.192 137.073 147.941 136.561 147.941 135.9C147.941 134.712 148.71 133.375 149.692 132.856C150.164 132.605 150.631 132.578 151.007 132.777C151.445 133.008 151.696 133.521 151.696 134.182C151.696 135.369 150.926 136.707 149.945 137.226C149.681 137.365 149.419 137.435 149.172 137.435ZM150.462 133.109C150.274 133.109 150.088 133.181 149.945 133.257C149.119 133.694 148.448 134.879 148.448 135.899C148.448 136.39 148.606 136.755 148.882 136.902C149.156 137.046 149.474 136.939 149.692 136.823C150.517 136.386 151.189 135.201 151.189 134.181C151.189 133.69 151.031 133.325 150.754 133.179C150.66 133.129 150.561 133.109 150.462 133.109Z" fill="#455A64"/>
<path d="M160.114 107.867C159.92 107.867 159.737 107.823 159.57 107.736C159.134 107.504 158.883 106.992 158.883 106.331C158.883 105.143 159.652 103.806 160.633 103.287C161.105 103.037 161.573 103.009 161.949 103.209C162.386 103.44 162.637 103.952 162.637 104.613C162.637 105.801 161.868 107.138 160.887 107.657C160.622 107.797 160.36 107.867 160.114 107.867ZM161.404 103.54C161.215 103.54 161.03 103.613 160.887 103.689C160.061 104.126 159.39 105.311 159.39 106.331C159.39 106.821 159.547 107.187 159.824 107.333C160.098 107.478 160.415 107.371 160.633 107.255C161.445 106.826 162.13 105.615 162.13 104.613C162.13 104.121 161.973 103.756 161.696 103.61C161.602 103.56 161.502 103.54 161.404 103.54Z" fill="#455A64"/>
<path d="M171.919 91.0688C171.725 91.0688 171.542 91.0251 171.375 90.9373C170.938 90.7064 170.688 90.1941 170.688 89.5334C170.688 88.3457 171.457 87.0086 172.438 86.4889C172.91 86.2391 173.376 86.2112 173.755 86.4105C174.191 86.642 174.442 87.1538 174.442 87.815C174.442 89.0027 173.673 90.3398 172.691 90.8595C172.427 90.9988 172.165 91.0688 171.919 91.0688ZM173.209 86.7425C173.02 86.7425 172.834 86.8145 172.691 86.8903C171.865 87.3274 171.194 88.513 171.194 89.5329C171.194 90.0236 171.352 90.3892 171.629 90.5354C171.903 90.6806 172.221 90.5723 172.438 90.4571C173.264 90.02 173.935 88.8344 173.935 87.8144C173.935 87.3237 173.777 86.9581 173.501 86.8119C173.407 86.7624 173.307 86.7425 173.209 86.7425Z" fill="#455A64"/>
<path d="M183.186 102.878C183.147 102.878 183.106 102.869 183.069 102.851C182.945 102.792 182.897 102.652 182.962 102.538L191.607 87.4025C191.672 87.2889 191.828 87.2463 191.949 87.3047C192.072 87.3641 192.121 87.504 192.055 87.6176L183.411 102.753C183.365 102.832 183.277 102.878 183.186 102.878Z" fill="#27DEBF"/>
<path d="M171.822 135.256C171.798 135.256 171.772 135.253 171.748 135.246C171.614 135.208 171.539 135.079 171.58 134.956L181.07 106.745C181.111 106.623 181.253 106.554 181.387 106.591C181.52 106.629 181.595 106.759 181.554 106.881L172.065 135.092C172.031 135.192 171.931 135.256 171.822 135.256Z" fill="#27DEBF"/>
<path d="M169.949 136.618C169.895 136.618 169.842 136.603 169.796 136.571L161.152 130.582C161.04 130.505 161.018 130.359 161.102 130.257C161.186 130.155 161.347 130.136 161.456 130.212L170.101 136.201C170.213 136.278 170.235 136.424 170.151 136.526C170.101 136.586 170.025 136.618 169.949 136.618Z" fill="#27DEBF"/>
<path d="M150.065 155.195C150.037 155.195 150.007 155.191 149.979 155.181C149.847 155.137 149.78 155.004 149.828 154.884L159.069 131.658C159.116 131.538 159.262 131.476 159.393 131.519C159.524 131.563 159.592 131.696 159.544 131.816L150.303 155.042C150.266 155.137 150.169 155.195 150.065 155.195Z" fill="#27DEBF"/>
<path d="M147.839 157.012C147.819 157.012 147.798 157.01 147.777 157.005L139.588 155.093C139.452 155.062 139.37 154.936 139.404 154.811C139.438 154.687 139.576 154.613 139.712 154.644L147.902 156.556C148.037 156.587 148.12 156.714 148.085 156.838C148.056 156.942 147.952 157.012 147.839 157.012Z" fill="#27DEBF"/>
<path d="M128.224 181.289C128.196 181.289 128.168 181.285 128.14 181.276C128.008 181.234 127.938 181.102 127.984 180.981L137.223 156.612C137.269 156.491 137.413 156.427 137.545 156.469C137.677 156.511 137.747 156.643 137.701 156.764L128.463 181.133C128.427 181.229 128.329 181.289 128.224 181.289Z" fill="#27DEBF"/>
<path d="M126.157 182.677C126.096 182.677 126.037 182.657 125.988 182.618L117.261 175.487C117.156 175.402 117.148 175.255 117.241 175.159C117.334 175.064 117.493 175.056 117.598 175.141L126.325 182.272C126.43 182.357 126.438 182.503 126.345 182.6C126.296 182.651 126.226 182.677 126.157 182.677Z" fill="#27DEBF"/>
<path d="M114.972 174.368C114.951 174.368 114.931 174.365 114.91 174.36L106.785 172.464C106.649 172.432 106.567 172.306 106.601 172.182C106.636 172.057 106.775 171.984 106.909 172.014L115.035 173.911C115.17 173.943 115.252 174.069 115.218 174.192C115.189 174.298 115.085 174.368 114.972 174.368Z" fill="#27DEBF"/>
<path d="M95.521 193.55C95.4878 193.55 95.4545 193.544 95.4218 193.531C95.2932 193.481 95.2335 193.345 95.288 193.227L104.22 173.972C104.275 173.853 104.423 173.8 104.552 173.849C104.681 173.9 104.741 174.036 104.686 174.154L95.7541 193.409C95.7139 193.497 95.6198 193.55 95.521 193.55Z" fill="#27DEBF"/>
<path d="M85.1081 196.899C84.9835 196.899 84.875 196.815 84.8578 196.698C84.8395 196.572 84.9365 196.454 85.0748 196.437L92.9116 195.463C93.0494 195.45 93.178 195.535 93.1969 195.662C93.2153 195.789 93.1183 195.906 92.9799 195.923L85.1431 196.897C85.131 196.898 85.1196 196.899 85.1081 196.899Z" fill="#27DEBF"/>
<path d="M72.6271 216.247C72.5875 216.247 72.5467 216.238 72.51 216.22C72.386 216.162 72.3378 216.021 72.4026 215.908L82.1956 198.761C82.2611 198.647 82.4166 198.604 82.5372 198.663C82.6612 198.722 82.7094 198.862 82.6439 198.976L72.8515 216.123C72.8056 216.202 72.7178 216.247 72.6271 216.247Z" fill="#27DEBF"/>
<path d="M82.9223 199.253C82.7283 199.253 82.5452 199.21 82.3793 199.122C81.9419 198.891 81.691 198.379 81.691 197.717C81.691 196.53 82.4602 195.193 83.4417 194.673C83.9136 194.423 84.3808 194.396 84.7573 194.595C85.1947 194.826 85.4456 195.338 85.4456 195.999C85.4456 197.187 84.6764 198.524 83.6949 199.043C83.4308 199.183 83.1685 199.253 82.9223 199.253ZM84.212 194.927C84.0238 194.927 83.8378 195 83.6949 195.075C82.8695 195.512 82.1979 196.697 82.1979 197.717C82.1979 198.209 82.3557 198.574 82.6324 198.72C82.9068 198.865 83.2236 198.756 83.4417 198.642C84.2672 198.204 84.9387 197.019 84.9387 195.999C84.9387 195.508 84.7809 195.143 84.5042 194.997C84.4101 194.947 84.3108 194.927 84.212 194.927Z" fill="#27DEBF"/>
<path d="M104.804 174.372C104.61 174.372 104.427 174.328 104.261 174.24C103.824 174.009 103.573 173.497 103.573 172.836C103.573 171.648 104.342 170.311 105.324 169.792C105.795 169.542 106.263 169.515 106.64 169.714C107.077 169.945 107.328 170.457 107.328 171.118C107.328 172.306 106.559 173.643 105.577 174.162C105.313 174.302 105.05 174.372 104.804 174.372ZM106.094 170.046C105.906 170.046 105.72 170.119 105.577 170.194C104.752 170.631 104.08 171.816 104.08 172.836C104.08 173.327 104.238 173.692 104.514 173.838C104.788 173.983 105.105 173.876 105.324 173.76C106.149 173.324 106.821 172.138 106.821 171.118C106.821 170.627 106.663 170.262 106.386 170.116C106.292 170.066 106.193 170.046 106.094 170.046Z" fill="#27DEBF"/>
<path d="M93.8639 197.789C93.6699 197.789 93.4868 197.746 93.3209 197.658C92.8835 197.427 92.6327 196.915 92.6327 196.253C92.6327 195.066 93.4018 193.729 94.3828 193.209C94.8546 192.959 95.3213 192.931 95.6984 193.131C96.1358 193.362 96.3867 193.874 96.3867 194.535C96.3867 195.723 95.6175 197.06 94.636 197.579C94.3719 197.719 94.1096 197.789 93.8639 197.789ZM95.1531 193.463C94.9649 193.463 94.7789 193.536 94.636 193.611C93.8249 194.041 93.1395 195.25 93.1395 196.253C93.1395 196.744 93.2974 197.109 93.5741 197.255C93.8467 197.4 94.1641 197.293 94.3828 197.177C95.1945 196.748 95.8798 195.538 95.8798 194.535C95.8798 194.044 95.722 193.679 95.4453 193.532C95.3512 193.482 95.2519 193.463 95.1531 193.463Z" fill="#27DEBF"/>
<path d="M115.746 176.744C115.552 176.744 115.369 176.7 115.203 176.612C114.765 176.381 114.515 175.869 114.515 175.208C114.515 174.019 115.284 172.682 116.265 172.164C116.737 171.914 117.204 171.885 117.581 172.085C118.018 172.316 118.269 172.829 118.269 173.49C118.269 174.677 117.5 176.015 116.518 176.534C116.254 176.673 115.992 176.744 115.746 176.744ZM117.036 172.418C116.847 172.418 116.661 172.49 116.518 172.566C115.707 172.994 115.021 174.205 115.021 175.208C115.021 175.699 115.179 176.064 115.456 176.21C115.73 176.355 116.048 176.247 116.265 176.132C117.091 175.695 117.762 174.51 117.762 173.49C117.762 172.998 117.604 172.633 117.328 172.487C117.234 172.437 117.134 172.418 117.036 172.418Z" fill="#27DEBF"/>
<path d="M126.687 185.581C126.493 185.581 126.309 185.538 126.143 185.45C125.707 185.218 125.456 184.707 125.456 184.046C125.456 182.857 126.225 181.52 127.206 181.002C127.678 180.751 128.145 180.724 128.522 180.923C128.959 181.154 129.21 181.666 129.21 182.328C129.21 183.515 128.44 184.852 127.459 185.372C127.195 185.511 126.933 185.581 126.687 185.581ZM127.977 181.255C127.789 181.255 127.603 181.327 127.46 181.403C126.648 181.832 125.963 183.042 125.963 184.045C125.963 184.536 126.121 184.901 126.398 185.047C126.671 185.191 126.988 185.084 127.206 184.969C128.032 184.532 128.703 183.347 128.703 182.327C128.703 181.836 128.546 181.471 128.269 181.325C128.174 181.275 128.075 181.255 127.977 181.255Z" fill="#27DEBF"/>
<path d="M137.628 156.942C137.434 156.942 137.251 156.898 137.085 156.81C136.648 156.579 136.397 156.067 136.397 155.406C136.397 154.218 137.166 152.881 138.147 152.362C138.619 152.111 139.086 152.085 139.464 152.283C139.9 152.515 140.151 153.027 140.151 153.688C140.151 154.876 139.382 156.213 138.401 156.732C138.137 156.871 137.874 156.942 137.628 156.942ZM138.918 152.616C138.729 152.616 138.543 152.688 138.401 152.764C137.589 153.193 136.904 154.403 136.904 155.406C136.904 155.897 137.061 156.262 137.338 156.408C137.612 156.553 137.929 156.445 138.147 156.33C138.959 155.901 139.644 154.69 139.644 153.688C139.644 153.197 139.487 152.832 139.21 152.685C139.116 152.635 139.016 152.616 138.918 152.616Z" fill="#27DEBF"/>
<path d="M148.569 159.495C148.375 159.495 148.192 159.452 148.026 159.364C147.589 159.133 147.338 158.621 147.338 157.96C147.338 156.772 148.107 155.435 149.089 154.916C149.561 154.665 150.028 154.638 150.405 154.837C150.842 155.068 151.093 155.58 151.093 156.242C151.093 157.429 150.324 158.766 149.342 159.286C149.077 159.426 148.815 159.495 148.569 159.495ZM149.859 155.17C149.67 155.17 149.485 155.242 149.342 155.318C148.516 155.755 147.845 156.94 147.845 157.96C147.845 158.451 148.002 158.816 148.279 158.963C148.553 159.108 148.871 159 149.088 158.884C149.914 158.448 150.585 157.262 150.585 156.242C150.585 155.751 150.428 155.386 150.151 155.24C150.057 155.19 149.957 155.17 149.859 155.17Z" fill="#27DEBF"/>
<path d="M159.51 131.996C159.316 131.996 159.133 131.953 158.966 131.865C158.53 131.633 158.279 131.121 158.279 130.46C158.279 129.273 159.048 127.935 160.029 127.416C160.502 127.166 160.969 127.139 161.345 127.338C161.782 127.569 162.033 128.081 162.033 128.742C162.033 129.93 161.264 131.267 160.283 131.786C160.018 131.926 159.756 131.996 159.51 131.996ZM160.8 127.67C160.611 127.67 160.426 127.742 160.283 127.818C159.471 128.247 158.786 129.458 158.786 130.46C158.786 130.951 158.943 131.317 159.22 131.463C159.494 131.608 159.811 131.5 160.029 131.384C160.841 130.955 161.526 129.745 161.526 128.742C161.526 128.251 161.369 127.886 161.092 127.74C160.998 127.69 160.898 127.67 160.8 127.67Z" fill="#27DEBF"/>
<path d="M170.451 139.576C170.257 139.576 170.074 139.532 169.908 139.444C169.471 139.213 169.22 138.701 169.22 138.04C169.22 136.852 169.989 135.515 170.97 134.996C171.442 134.746 171.908 134.718 172.287 134.918C172.723 135.149 172.974 135.661 172.974 136.322C172.974 137.509 172.205 138.846 171.224 139.366C170.96 139.506 170.697 139.576 170.451 139.576ZM171.741 135.25C171.553 135.25 171.367 135.322 171.224 135.397C170.399 135.834 169.727 137.02 169.727 138.039C169.727 138.531 169.885 138.896 170.162 139.042C170.436 139.187 170.753 139.079 170.971 138.964C171.797 138.527 172.468 137.341 172.468 136.321C172.468 135.83 172.31 135.465 172.033 135.318C171.939 135.27 171.839 135.25 171.741 135.25Z" fill="#27DEBF"/>
<path d="M181.393 107.051C181.199 107.051 181.015 107.007 180.849 106.919C180.412 106.688 180.161 106.176 180.161 105.515C180.161 104.327 180.931 102.99 181.912 102.471C182.384 102.22 182.852 102.193 183.228 102.392C183.665 102.623 183.916 103.136 183.916 103.797C183.916 104.984 183.147 106.322 182.165 106.841C181.901 106.981 181.639 107.051 181.393 107.051ZM182.682 102.725C182.494 102.725 182.309 102.797 182.165 102.873C181.339 103.31 180.668 104.495 180.668 105.515C180.668 106.006 180.826 106.372 181.103 106.518C181.377 106.662 181.694 106.555 181.912 106.439C182.737 106.002 183.409 104.817 183.409 103.797C183.409 103.305 183.251 102.94 182.975 102.794C182.88 102.745 182.781 102.725 182.682 102.725Z" fill="#27DEBF"/>
<path d="M192.334 87.8937C192.14 87.8937 191.957 87.8501 191.79 87.7628C191.353 87.5313 191.102 87.0195 191.102 86.3584C191.102 85.1706 191.872 83.8335 192.853 83.3144C193.325 83.064 193.793 83.0361 194.169 83.236C194.606 83.4669 194.857 83.9793 194.857 84.6404C194.857 85.8281 194.088 87.1652 193.106 87.6844C192.842 87.8238 192.579 87.8937 192.334 87.8937ZM193.623 83.5679C193.435 83.5679 193.25 83.6405 193.106 83.7163C192.28 84.1534 191.609 85.3384 191.609 86.3584C191.609 86.8491 191.767 87.2147 192.044 87.3609C192.318 87.5061 192.636 87.3983 192.853 87.2825C193.679 86.8454 194.35 85.6603 194.35 84.6404C194.35 84.1492 194.192 83.7841 193.916 83.6379C193.821 83.5879 193.722 83.5679 193.623 83.5679Z" fill="#27DEBF"/>
<path opacity="0.4" d="M192.979 96.0178L182.038 115.175L171.208 147.373L162.621 141.424L160.156 140.12L149.215 167.62L138.274 165.066L127.538 193.383L118.856 186.289L116.392 184.985L105.451 182.431L94.5091 206.018L83.5681 207.377L72.6271 226.534V239.902L75.0913 241.206L195.444 177.532V97.3218L192.979 96.0178Z" fill="#27DEBF"/>
<path opacity="0.3" d="M75.0918 227.838L86.0328 208.681L96.9738 207.322L107.915 183.735L118.856 186.29L129.797 195.229L140.738 166.37L151.679 168.924L162.62 141.424L173.562 149.004L184.503 116.479L195.444 97.3219V177.532L75.0918 241.206V227.838Z" fill="#27DEBF"/>
<path d="M72.6271 226.534L75.0918 227.838V241.206L72.6271 239.902V226.534Z" fill="#27DEBF"/>
<path opacity="0.05" d="M72.6271 226.534L75.0918 227.838V241.206L72.6271 239.902V226.534Z" fill="#333333"/>
<path opacity="0.3" d="M94.5092 206.018L96.9739 207.322L107.915 183.735L105.451 182.431L94.5092 206.018Z" fill="#27DEBF"/>
<path opacity="0.15" d="M94.5092 206.018L96.9739 207.322L107.915 183.735L105.451 182.431L94.5092 206.018Z" fill="#333333"/>
<path opacity="0.3" d="M83.5681 207.377L86.0328 208.681L75.0918 227.838L72.6271 226.534L83.5681 207.377Z" fill="#27DEBF"/>
<path opacity="0.15" d="M83.5681 207.377L86.0328 208.681L75.0918 227.838L72.6271 226.534L83.5681 207.377Z" fill="#333333"/>
<path opacity="0.3" d="M140.738 166.37L138.274 165.066L127.538 193.383L129.797 195.229L140.738 166.37Z" fill="#27DEBF"/>
<path opacity="0.15" d="M140.738 166.37L138.274 165.066L127.538 193.383L129.797 195.229L140.738 166.37Z" fill="#333333"/>
<path opacity="0.3" d="M149.215 167.62L151.679 168.924L162.62 141.424L160.156 140.12L149.215 167.62Z" fill="#27DEBF"/>
<path opacity="0.15" d="M149.215 167.62L151.679 168.924L162.62 141.424L160.156 140.12L149.215 167.62Z" fill="#333333"/>
<path opacity="0.3" d="M184.503 116.479L182.038 115.175L171.208 147.373L173.562 149.004L184.503 116.479Z" fill="#27DEBF"/>
<path opacity="0.15" d="M184.503 116.479L182.038 115.175L171.208 147.373L173.562 149.004L184.503 116.479Z" fill="#333333"/>
<path d="M205.357 79.6313L202.892 78.3274L196.731 91.3664L199.195 92.6704L200.428 92.0181V172.555L202.892 173.858L207.821 171.251V88.1068L211.518 86.1506L205.357 79.6313Z" fill="#27DEBF"/>
<path d="M211.518 86.1507L205.357 79.6315L199.195 92.6705L202.892 90.7143V173.859L207.821 171.251V88.1069L211.518 86.1507Z" fill="#27DEBF"/>
<path opacity="0.15" d="M196.731 91.3664L199.195 92.6704L205.357 79.6313L202.892 78.3274L196.731 91.3664Z" fill="#333333"/>
<path opacity="0.15" d="M200.428 172.555L202.892 173.859V90.7142L200.428 92.0182V172.555Z" fill="#333333"/>
<path d="M216.542 223.962C216.542 219.712 213.477 215.462 207.349 212.22C195.092 205.735 175.22 205.735 162.962 212.22C156.834 215.462 153.77 219.712 153.77 223.962V231.79C153.77 236.04 156.834 240.29 162.963 243.532C175.22 250.017 195.093 250.017 207.35 243.532C213.478 240.29 216.542 236.04 216.542 231.79V223.962H216.542ZM164.479 214.629C169.953 211.733 177.296 210.138 185.155 210.138C193.014 210.138 200.357 211.733 205.831 214.629C210.781 217.248 213.506 220.562 213.506 223.963C213.506 227.362 210.78 230.676 205.831 233.295C200.357 236.192 193.015 237.786 185.155 237.786C177.296 237.786 169.954 236.192 164.479 233.295C159.53 230.677 156.805 227.363 156.805 223.963C156.805 220.562 159.53 217.248 164.479 214.629Z" fill="#27DEBF"/>
<path opacity="0.3" d="M162.961 235.704C175.218 242.188 195.09 242.188 207.347 235.704C219.605 229.219 219.605 218.705 207.347 212.22C195.09 205.735 175.218 205.735 162.961 212.22C150.704 218.705 150.704 229.219 162.961 235.704ZM156.803 223.963C156.803 220.562 159.529 217.248 164.478 214.629C169.952 211.733 177.295 210.138 185.154 210.138C193.013 210.138 200.356 211.733 205.83 214.629C210.779 217.248 213.505 220.562 213.505 223.963C213.505 227.362 210.779 230.676 205.83 233.295C200.355 236.192 193.013 237.786 185.154 237.786C177.295 237.786 169.952 236.192 164.478 233.295C159.529 230.676 156.803 227.362 156.803 223.963Z" fill="white"/>
<path d="M156.801 223.962C156.801 225.297 157.22 226.61 158.027 227.878C159.271 225.903 161.463 224.051 164.48 222.459C169.949 219.561 177.295 217.965 185.156 217.965C193.011 217.965 200.358 219.561 205.827 222.459C208.844 224.051 211.036 225.903 212.286 227.878C213.088 226.61 213.507 225.297 213.507 223.962C213.507 220.563 210.781 217.247 205.827 214.627C200.358 211.734 193.012 210.137 185.156 210.137C177.295 210.137 169.949 211.734 164.48 214.627C159.527 217.247 156.801 220.563 156.801 223.962Z" fill="#27DEBF"/>
<path opacity="0.1" d="M156.801 223.962C156.801 225.297 157.22 226.61 158.027 227.878C159.271 225.903 161.463 224.051 164.48 222.459C169.949 219.561 177.295 217.965 185.156 217.965C193.011 217.965 200.358 219.561 205.827 222.459C208.844 224.051 211.036 225.903 212.286 227.878C213.088 226.61 213.507 225.297 213.507 223.962C213.507 220.563 210.781 217.247 205.827 214.627C200.358 211.734 193.012 210.137 185.156 210.137C177.295 210.137 169.949 211.734 164.48 214.627C159.527 217.247 156.801 220.563 156.801 223.962Z" fill="#333333"/>
<path opacity="0.4" d="M164.478 218.173C169.952 215.277 177.295 213.682 185.154 213.682C193.013 213.682 200.356 215.277 205.829 218.173C209.913 220.334 212.478 222.969 213.252 225.734C212.478 228.499 209.913 231.134 205.829 233.295C200.355 236.191 193.013 237.786 185.154 237.786C177.295 237.786 169.952 236.191 164.478 233.295C160.394 231.134 157.829 228.499 157.056 225.734C157.829 222.969 160.394 220.334 164.478 218.173Z" fill="white"/>
<path opacity="0.1" d="M177.759 240.106V247.927C172.338 247.238 167.196 245.774 162.964 243.533C156.833 240.289 153.767 236.039 153.767 231.789V223.962C153.767 223.105 153.895 222.249 154.144 221.397H154.15C152.663 226.454 155.601 231.806 162.964 235.706C167.196 237.947 172.338 239.41 177.759 240.106Z" fill="#333333"/>
<path d="M163.895 240.687C163.901 239.402 162.924 237.836 161.712 237.189C161.109 236.867 160.563 236.834 160.164 237.04L160.163 237.038L160.157 237.041L160.156 237.042L149.591 242.567C149.589 242.569 149.587 242.57 149.584 242.571L149.582 242.572V242.573C149.186 242.783 148.94 243.232 148.937 243.871C148.931 245.156 149.909 246.722 151.12 247.37C151.727 247.693 152.276 247.726 152.675 247.516L163.239 241.992L163.238 241.991C163.642 241.783 163.893 241.333 163.895 240.687Z" fill="#37474F"/>
<path d="M163.239 241.991C163.642 241.784 163.893 241.333 163.895 240.687C163.898 240.203 163.759 239.679 163.522 239.179L149.898 246.319C150.247 246.756 150.668 247.127 151.121 247.369C151.727 247.693 152.276 247.725 152.675 247.516L163.239 241.992V241.991Z" fill="#263238"/>
<path d="M152.905 247.342C152.912 245.669 151.639 243.631 150.063 242.788C149.289 242.375 148.589 242.331 148.073 242.586L148.07 242.582L148.04 242.597L148.039 242.598L113.001 259.746L118.228 268.212L152.053 249.038C152.576 248.767 152.9 248.18 152.905 247.342Z" fill="#27DEBF"/>
<path opacity="0.1" d="M118.228 268.212L152.054 249.038C152.575 248.767 152.9 248.18 152.904 247.341C152.908 246.443 152.536 245.445 151.953 244.578L115.533 263.846L118.228 268.212Z" fill="#333333"/>
<path d="M115.586 267.958C113.518 266.854 111.85 264.181 111.859 261.986C111.869 259.792 113.554 258.907 115.622 260.012C117.69 261.117 119.359 263.79 119.349 265.984C119.339 268.178 117.655 269.061 115.586 267.958Z" fill="#27DEBF"/>
<g opacity="0.2">
<path d="M115.586 267.958C113.518 266.854 111.85 264.181 111.859 261.986C111.869 259.792 113.554 258.907 115.622 260.012C117.69 261.117 119.359 263.79 119.349 265.984C119.339 268.178 117.655 269.061 115.586 267.958Z" fill="#333333"/>
</g>
<path d="M33.9148 103.951C33.8356 103.951 33.7576 103.945 33.6806 103.934L31.3181 103.599C30.9289 103.543 30.5902 103.344 30.3888 103.052C30.1879 102.761 30.1368 102.396 30.2493 102.051L31.5431 98.0493C31.6223 97.8047 31.4788 97.4218 31.2308 97.213C30.98 97.001 30.7441 96.7685 30.5265 96.5208C30.4037 96.3819 30.1861 96.2904 29.9927 96.4219L27.0372 98.4722C26.7002 98.7052 26.3065 98.7741 25.9632 98.661C25.6177 98.5474 25.3628 98.2671 25.2641 97.8915L24.4593 94.836C24.2992 94.2248 24.5345 93.4205 25.0081 92.965L27.9125 90.1714C28.1656 89.9289 28.4039 89.395 28.4234 89.0289C28.459 88.3388 28.541 87.6182 28.6679 86.8865C28.7081 86.6535 28.5399 86.3832 28.3069 86.3079L26.4436 85.7094C26.0792 85.5926 25.7881 85.3522 25.6234 85.0334C25.4592 84.7142 25.4426 84.3554 25.5758 84.0225L27.373 79.5604C27.6238 78.935 28.3625 78.4537 29.0921 78.4427L31.3433 78.4079C31.6619 78.4032 32.1044 78.1602 32.2726 77.8993C32.7462 77.164 33.253 76.4565 33.7794 75.7953C34.0072 75.5092 34.1662 74.9663 34.1198 74.6344L33.6921 71.6047C33.6049 70.9861 33.92 70.205 34.428 69.7884L37.7354 67.0627C38.0459 66.8065 38.4293 66.7081 38.7875 66.7855C39.1457 66.8659 39.4361 67.1174 39.5825 67.4761L40.5434 69.8236C40.5744 69.9004 40.6249 69.952 40.6921 69.9762C40.7672 70.0046 40.8637 69.9967 40.9572 69.9541C41.4474 69.7368 41.9417 69.5538 42.4267 69.4086C42.7929 69.2992 43.232 68.9584 43.3663 68.6791L45.28 64.7225C45.5808 64.1023 46.3896 63.6978 47.1203 63.8015L49.484 64.137C49.8732 64.1928 50.2113 64.3916 50.4122 64.6836C50.6131 64.975 50.6653 65.34 50.5528 65.6851L49.259 69.6863C49.1798 69.9309 49.3227 70.3139 49.5701 70.5232C49.8198 70.7326 50.0569 70.9656 50.2756 71.2154C50.3995 71.3559 50.6177 71.4474 50.8094 71.3148L53.7638 69.264C54.1001 69.0304 54.4922 68.962 54.8389 69.0751C55.1844 69.1887 55.4393 69.4691 55.5386 69.8447L56.3422 72.8997C56.5035 73.5114 56.2681 74.3157 55.7928 74.7717L52.8901 77.5648C52.6364 77.8078 52.3976 78.3411 52.3793 78.7062C52.3431 79.4052 52.2593 80.1264 52.1347 80.8496C52.0928 81.0832 52.2616 81.3535 52.4946 81.4282L54.3584 82.0268C54.7235 82.1441 55.0151 82.3845 55.1787 82.7033C55.3428 83.0225 55.3595 83.3818 55.2252 83.7148L53.4291 88.1763C53.176 88.8022 52.4372 89.283 51.7088 89.294L49.4576 89.3288C49.1402 89.3335 48.6971 89.576 48.5283 89.8384C48.0582 90.5701 47.5502 91.2776 47.0215 91.9414C46.7937 92.2281 46.6347 92.7704 46.6823 93.1018L47.1099 96.1326C47.196 96.7511 46.8809 97.5317 46.3752 97.9483L43.0667 100.675C42.7556 100.931 42.3733 101.033 42.0134 100.951C41.6552 100.871 41.3659 100.619 41.2196 100.261L40.2587 97.9136C40.2277 97.8368 40.1772 97.7853 40.11 97.7611C40.0331 97.7327 39.9395 97.739 39.8443 97.7832C39.3523 98.0004 38.8587 98.184 38.376 98.3286C38.0098 98.438 37.5695 98.7789 37.4329 99.0587L35.5203 103.015C35.2523 103.569 34.5778 103.951 33.9148 103.951ZM30.1965 95.3951C30.6189 95.3951 31.0414 95.575 31.3433 95.9185C31.5316 96.1326 31.7313 96.3288 31.9414 96.506C32.4844 96.9636 32.7399 97.7274 32.5481 98.3223L31.2543 102.324C31.2274 102.406 31.2354 102.48 31.275 102.539C31.3158 102.598 31.3864 102.636 31.4782 102.649L33.8408 102.984C34.1065 103.024 34.4515 102.852 34.5612 102.624L36.4749 98.6674C36.767 98.0651 37.4886 97.5806 38.0505 97.4134C38.489 97.2819 38.9391 97.1146 39.3879 96.9158C39.749 96.7559 40.1445 96.7364 40.4998 96.8669C40.843 96.9926 41.1065 97.244 41.2419 97.5749L42.2022 99.9219C42.2287 99.9871 42.2585 100.013 42.2671 100.017C42.2694 100.015 42.3096 100.005 42.3658 99.9576L45.6744 97.2319C45.9241 97.0257 46.1123 96.5592 46.0699 96.253L45.6422 93.2233C45.5613 92.6525 45.7897 91.8567 46.1749 91.3733C46.684 90.7348 47.1719 90.0536 47.6254 89.3482C47.9801 88.7985 48.7608 88.3762 49.4415 88.3656L51.6916 88.3309C51.9849 88.3267 52.3442 88.0937 52.4453 87.8418L54.2413 83.3797C54.2775 83.2903 54.2735 83.1951 54.2298 83.1114C54.1868 83.0273 54.1093 82.9636 54.0123 82.9321L52.1474 82.3335C51.4385 82.1057 50.9787 81.3867 51.0981 80.6971C51.2181 80.0086 51.2967 79.3221 51.3323 78.6583C51.3627 78.0634 51.706 77.3076 52.1319 76.8999L55.0346 74.1068C55.2636 73.887 55.4008 73.4188 55.3227 73.1243V73.1232L54.5191 70.0677C54.5054 70.0177 54.4899 69.9909 54.4807 69.9793C54.4732 69.9856 54.4422 69.9967 54.3974 70.0282L51.4425 72.0786C50.8226 72.5099 49.9667 72.3958 49.4576 71.8156C49.2722 71.6041 49.0713 71.4064 48.8601 71.2291C48.3159 70.7699 48.0605 70.0056 48.2534 69.4118L49.5471 65.4105C49.573 65.3284 49.5661 65.2548 49.5265 65.1959C49.4846 65.137 49.4151 65.0986 49.3227 65.0859L46.9601 64.7504C46.6949 64.7104 46.3494 64.8845 46.2398 65.1107L44.326 69.0672C44.0356 69.6685 43.3147 70.1529 42.7516 70.3212C42.3125 70.4527 41.8619 70.62 41.4141 70.8183C41.0497 70.9798 40.6536 70.9977 40.3017 70.8677C39.9596 70.742 39.6962 70.4906 39.5607 70.1597L38.6004 67.8127C38.574 67.7475 38.5441 67.7217 38.5355 67.7175C38.5327 67.7191 38.4931 67.7296 38.4368 67.7764L35.1283 70.5027C34.8774 70.7089 34.6892 71.1749 34.7328 71.4805L35.1604 74.5113C35.2408 75.0836 35.0106 75.8789 34.6266 76.3613C34.1198 76.9972 33.6319 77.6789 33.1761 78.3869C32.8231 78.9355 32.0424 79.3584 31.36 79.3689L29.1099 79.4037C28.8166 79.4079 28.4584 79.6409 28.3574 79.8918L26.5602 84.3549C26.5246 84.4438 26.5292 84.539 26.5716 84.6232C26.6153 84.7073 26.6933 84.771 26.7903 84.8025L28.6547 85.4011C29.3624 85.6283 29.8234 86.3474 29.7045 87.0364C29.5829 87.7334 29.5048 88.4198 29.4703 89.0758C29.4394 89.6717 29.0955 90.4276 28.6719 90.8342L25.7675 93.6278C25.5396 93.8476 25.4013 94.3163 25.4793 94.6108L26.2835 97.6664C26.2961 97.7158 26.3128 97.7427 26.322 97.7547C26.3294 97.7479 26.3593 97.7369 26.404 97.7064L29.3596 95.656C29.6127 95.4803 29.9049 95.3951 30.1965 95.3951ZM37.6062 92.7804C37.1774 92.7804 36.7624 92.7251 36.367 92.6126C34.8992 92.1955 33.8454 91.0293 33.3977 89.3303C32.4121 85.5831 34.6266 80.0485 38.3358 76.9935C40.4028 75.2903 42.6236 74.6076 44.4345 75.1231C45.9017 75.5402 46.9561 76.7058 47.4038 78.4053C48.3894 82.1531 46.1749 87.6871 42.4669 90.7426C40.8516 92.0734 39.1405 92.7804 37.6062 92.7804ZM43.1855 75.9147C41.9181 75.9147 40.4556 76.5385 39.0372 77.7078C35.584 80.5524 33.5119 85.6652 34.4177 89.1057C34.7799 90.4817 35.5616 91.3775 36.6769 91.6952C38.1268 92.1055 39.9791 91.499 41.7649 90.0289C45.2169 87.1843 47.289 82.071 46.3838 78.631C46.0216 77.2544 45.2399 76.3592 44.1246 76.0415C43.8267 75.9563 43.5127 75.9147 43.1855 75.9147Z" fill="#27DEBF"/>
<path d="M67.8933 94.0285C67.8325 94.0285 67.7728 94.0243 67.712 94.0159L65.9997 93.7718C65.6921 93.7287 65.4246 93.5709 65.2638 93.3394C65.1043 93.108 65.0629 92.8187 65.1513 92.5452L66.0893 89.6448C66.1375 89.497 66.0433 89.2535 65.8895 89.123C65.7058 88.9684 65.5325 88.7985 65.3695 88.6123C65.3212 88.5581 65.2076 88.4823 65.1066 88.5549L62.9638 90.0414C62.6952 90.2276 62.3772 90.2802 62.1017 90.1903C61.8216 90.0987 61.6161 89.8741 61.5369 89.5743L60.9537 87.3588C60.8308 86.8907 61.0111 86.2747 61.375 85.9255L63.4787 83.9009C63.6475 83.7394 63.8116 83.3701 63.8254 83.1256C63.8507 82.6206 63.9115 82.0946 64.0045 81.5628C64.0263 81.4329 63.9299 81.2761 63.8013 81.2351L62.4507 80.8012C62.1637 80.7096 61.9341 80.5208 61.8043 80.2699C61.6746 80.0185 61.6608 79.735 61.7653 79.4725L63.07 76.2371C63.2652 75.7537 63.8357 75.3823 64.3988 75.3734L66.0307 75.3486C66.2316 75.3455 66.5221 75.1856 66.6288 75.0194C66.9686 74.4907 67.3383 73.9753 67.7252 73.4882C67.8767 73.2983 67.9869 72.9254 67.9559 72.706L67.6459 70.5094C67.5794 70.0366 67.8204 69.4401 68.2073 69.1213L70.6061 67.1451C70.854 66.9411 71.156 66.8601 71.451 66.9253C71.7391 66.9905 71.9722 67.1914 72.0893 67.4776L72.785 69.1792C72.8745 69.2534 72.9181 69.2491 72.9618 69.2286C73.3257 69.0677 73.685 68.9346 74.0386 68.8289C74.2785 68.7568 74.577 68.5264 74.6642 68.3455L76.0539 65.4767C76.2846 64.9949 76.9 64.6772 77.4837 64.7608L79.1971 65.0043C79.5048 65.0485 79.7723 65.2068 79.9318 65.4383C80.0914 65.6692 80.1327 65.9585 80.0443 66.2315L79.1064 69.1324C79.0582 69.2802 79.1524 69.5237 79.3062 69.6542C79.4899 69.8083 79.6632 69.9787 79.8262 70.1649C79.8756 70.2201 79.9835 70.2943 80.0891 70.2228L82.2319 68.7358C82.5005 68.5485 82.815 68.4964 83.094 68.5864C83.3741 68.6779 83.5808 68.9025 83.6588 69.2029L84.2409 71.4178C84.3648 71.8855 84.1846 72.5019 83.8218 72.8512L81.717 74.8763C81.5482 75.0378 81.3841 75.4065 81.3714 75.65C81.345 76.1561 81.2842 76.6815 81.1935 77.2133C81.1694 77.3443 81.2658 77.5005 81.3944 77.5415L82.745 77.9755C83.0343 78.0681 83.2639 78.2579 83.3925 78.5099C83.5222 78.7608 83.5348 79.0433 83.4292 79.3052L82.1257 82.5401C81.9328 83.023 81.3611 83.3949 80.7974 83.4038L79.1656 83.4291C78.9647 83.4322 78.6742 83.5921 78.5674 83.7583C78.2276 84.2864 77.858 84.8014 77.4711 85.289C77.3196 85.4794 77.2094 85.8518 77.2404 86.0712L77.5503 88.2677C77.6169 88.7401 77.3758 89.3376 76.9889 89.6569L74.5913 91.6331C74.3422 91.8377 74.0323 91.915 73.7453 91.8524C73.456 91.7872 73.2241 91.5857 73.107 91.3001L72.4113 89.599C72.3195 89.5217 72.277 89.5301 72.2345 89.5491C71.8775 89.7079 71.5147 89.842 71.1571 89.9494C70.916 90.0209 70.6187 90.2513 70.5314 90.4322L69.1418 93.3015C68.9346 93.7313 68.4099 94.0285 67.8933 94.0285ZM65.2007 87.6607C65.5336 87.6607 65.8654 87.8017 66.1019 88.071C66.2351 88.223 66.3763 88.3614 66.5255 88.4876C66.9445 88.84 67.1397 89.4297 66.9916 89.8894L66.0537 92.7898L66.1444 92.9197L67.8566 93.1637C68.0208 93.1827 68.2205 93.0796 68.2814 92.9512L69.671 90.0824C69.8903 89.6248 70.4379 89.2556 70.8649 89.1283C71.1795 89.0341 71.4998 88.9158 71.8229 88.7722C72.1099 88.6449 72.4211 88.6307 72.7035 88.7343C72.9755 88.8342 73.1845 89.0336 73.2912 89.295L73.9869 90.9961L76.3593 89.0146C76.5165 88.8847 76.644 88.5691 76.6176 88.3771L76.3076 86.1806C76.2468 85.7471 76.4201 85.1449 76.7106 84.7798C77.0802 84.3154 77.4315 83.8236 77.7564 83.3191C78.0285 82.8973 78.6277 82.5738 79.1506 82.5664L80.7814 82.5412C80.9547 82.5385 81.1843 82.3902 81.2429 82.2413L82.547 79.0059C82.5688 78.9507 82.5562 78.9049 82.5413 78.876C82.5298 78.8523 82.4988 78.8092 82.4333 78.7882L81.0827 78.3542C80.5282 78.1759 80.1689 77.6152 80.2642 77.076C80.3503 76.5769 80.4065 76.0824 80.4318 75.608C80.4548 75.1598 80.7142 74.5886 81.0356 74.2798L83.1394 72.2552C83.2829 72.1174 83.3758 71.8029 83.3265 71.6198V71.6183L82.7444 69.4033L80.6557 70.9082C80.1655 71.2485 79.4945 71.1596 79.0927 70.7035C78.9595 70.5515 78.8183 70.4127 78.669 70.2875C78.25 69.9345 78.0549 69.3454 78.203 68.8857L79.1414 65.9848L79.1661 65.8738L79.0519 65.8549L77.3385 65.6113C77.1709 65.5871 76.9746 65.6955 76.9138 65.8233L75.5241 68.6926C75.3048 69.1497 74.7572 69.5185 74.3302 69.6468C74.0156 69.741 73.6953 69.8593 73.371 70.0029C73.0863 70.1297 72.7741 70.1428 72.4917 70.0403C72.2196 69.9403 72.0106 69.7415 71.9039 69.4801L71.2082 67.7784L68.8358 69.7604C68.6786 69.8898 68.5511 70.2054 68.5775 70.3974L68.8875 72.594C68.9484 73.0279 68.775 73.6302 68.4846 73.9952C68.1149 74.4586 67.7636 74.951 67.4382 75.4559C67.1661 75.8773 66.568 76.2002 66.0456 76.2087L64.4138 76.2334C64.2404 76.236 64.012 76.3854 63.9511 76.5342L62.6476 79.7686C62.6246 79.827 62.6418 79.8759 62.6544 79.8996C62.6694 79.9285 62.6992 79.9669 62.7601 79.9864L64.1113 80.4203C64.6646 80.5981 65.0239 81.1588 64.9326 81.6975C64.8443 82.1977 64.788 82.6916 64.7639 83.1661C64.7386 83.6232 64.4849 84.1812 64.16 84.4947L62.0552 86.5198C61.9117 86.6571 61.8187 86.9722 61.8669 87.1558L62.4501 89.3713L64.5389 87.8664C64.7392 87.7281 64.97 87.6607 65.2007 87.6607ZM70.5722 85.9307C70.2519 85.9307 69.9419 85.8892 69.6469 85.8055C68.5511 85.4941 67.7659 84.6278 67.4341 83.3665C66.712 80.6228 68.3296 76.5742 71.0412 74.3424C72.5628 73.0884 74.2056 72.5861 75.5494 72.9685C76.6445 73.2799 77.4304 74.1462 77.7621 75.407C78.4842 78.1501 76.8667 82.1987 74.1568 84.4316C72.9675 85.411 71.707 85.9307 70.5722 85.9307ZM74.6155 73.7044C73.7194 73.7044 72.6816 74.1494 71.6703 74.9836C69.1889 77.0266 67.6982 80.6965 68.3485 83.165C68.6034 84.1334 69.1487 84.7619 69.9264 84.9829C70.9436 85.2737 72.2586 84.8382 73.5271 83.792C76.0074 81.7485 77.4964 78.0781 76.8477 75.6101C76.5929 74.6422 76.047 74.0137 75.2698 73.7927C75.0632 73.7333 74.8439 73.7044 74.6155 73.7044Z" fill="#27DEBF"/>
<path d="M110.225 73.8166C110.044 73.8166 109.874 73.7729 109.721 73.6856C109.368 73.4815 109.172 73.0759 109.172 72.5436V60.7586C109.172 59.7713 109.844 58.6109 110.701 58.117L129.597 47.232C130.06 46.9658 130.51 46.9316 130.862 47.1352C131.216 47.3393 131.411 47.7443 131.411 48.2771V60.0622C131.411 61.0495 130.739 62.2098 129.882 62.7043L127.082 64.317L125.193 70.7263C125.115 70.9967 124.881 71.1829 124.599 71.2002C124.33 71.2207 124.061 71.0624 123.949 70.8031L122.323 67.0585L110.987 73.5893C110.723 73.7403 110.465 73.8166 110.225 73.8166ZM129.883 47.7254L110.987 58.6104C110.313 58.9986 109.744 59.9822 109.744 60.7586V72.5436C109.744 72.8598 109.84 73.0959 110.007 73.1922C110.176 73.2884 110.428 73.2537 110.702 73.0954L122.594 66.2448L124.473 70.5759C124.495 70.6243 124.526 70.6332 124.564 70.6311C124.592 70.629 124.631 70.6164 124.645 70.5659L126.599 63.9372L129.597 62.2104C130.271 61.8222 130.84 60.838 130.84 60.0622V48.2771C130.84 47.9615 130.744 47.7254 130.577 47.6286C130.41 47.5323 130.157 47.5676 129.883 47.7254Z" fill="#27DEBF"/>
<path d="M113.791 61.9285C113.693 61.9285 113.597 61.8775 113.544 61.7859C113.465 61.6497 113.512 61.4756 113.649 61.3967L126.65 53.9075C126.785 53.8297 126.961 53.8754 127.039 54.0117C127.119 54.1479 127.072 54.322 126.935 54.4009L113.934 61.8901C113.89 61.9159 113.84 61.9285 113.791 61.9285Z" fill="#27DEBF"/>
<path d="M113.791 64.44C113.693 64.44 113.597 64.3889 113.544 64.2974C113.465 64.1612 113.512 63.9871 113.649 63.9082L126.65 56.419C126.785 56.3411 126.961 56.3869 127.039 56.5231C127.119 56.6594 127.072 56.8335 126.935 56.9124L113.934 64.4016C113.89 64.4273 113.84 64.44 113.791 64.44Z" fill="#27DEBF"/>
<path d="M113.791 66.9511C113.693 66.9511 113.597 66.9 113.544 66.8085C113.465 66.6723 113.512 66.4982 113.649 66.4193L126.65 58.9301C126.785 58.8522 126.961 58.898 127.039 59.0342C127.119 59.1705 127.072 59.3446 126.935 59.4235L113.934 66.9127C113.89 66.9384 113.84 66.9511 113.791 66.9511Z" fill="#27DEBF"/>
<path d="M193.761 66.8491L189.095 69.325L190.949 73.1427C190.989 73.2258 191.052 73.2863 191.126 73.3247C191.347 73.4399 192.657 74.1342 192.729 74.1731C192.951 74.2904 193.27 74.2079 193.355 73.9449L195.368 67.6991L193.761 66.8491Z" fill="#27DEBF"/>
<path opacity="0.2" d="M193.761 66.8491L189.095 69.325L190.949 73.1427C190.989 73.2258 191.052 73.2863 191.126 73.3247C191.347 73.4399 192.657 74.1342 192.729 74.1731C192.951 74.2904 193.27 74.2079 193.355 73.9449L195.368 67.6991L193.761 66.8491Z" fill="#333333"/>
<path d="M190.701 70.175L192.555 73.9927C192.716 74.3252 193.242 74.2936 193.355 73.9443L195.367 67.6986L190.701 70.175Z" fill="#27DEBF"/>
<path d="M200.343 51.4915L181.065 61.6901C180.821 61.8195 180.623 62.134 180.623 62.3923V73.3226C180.623 73.5814 180.822 73.8938 181.068 74.0211L182.653 74.8354C182.899 74.9627 183.296 74.9606 183.541 74.8312L202.819 64.6325C203.063 64.5032 203.261 64.1886 203.261 63.9303V53.0001C203.261 52.7413 203.062 52.4288 202.817 52.3015L201.231 51.4873C200.985 51.3605 200.588 51.3621 200.343 51.4915Z" fill="#27DEBF"/>
<path d="M183.098 74.5975V63.6672C183.098 63.4084 183.296 63.0939 183.541 62.965L202.819 52.7664C203.063 52.637 203.262 52.7417 203.262 53.0005V63.9308C203.262 64.1895 203.063 64.5041 202.819 64.633L183.541 74.8316C183.296 74.961 183.098 74.8563 183.098 74.5975Z" fill="#27DEBF"/>
<path opacity="0.2" d="M183.541 74.8316C183.305 74.9568 182.875 74.961 182.653 74.8363L181.068 74.0205C180.823 73.8948 180.623 73.5824 180.623 73.3236V62.3922C180.623 62.2576 180.678 62.1092 180.764 61.9783L183.229 63.268C183.148 63.3937 183.099 63.5379 183.099 63.6667V74.596C183.098 74.8337 183.28 74.9699 183.541 74.8316Z" fill="#333333"/>
<path opacity="0.4" d="M203.255 52.927C203.221 52.7229 203.039 52.6498 202.818 52.766L183.541 62.9652C183.418 63.0309 183.308 63.1414 183.228 63.2687L180.761 61.9789C180.841 61.8574 180.947 61.7522 181.066 61.6907L200.344 51.4915C200.588 51.3621 200.984 51.3606 201.231 51.4879L202.815 52.3021C203.038 52.4173 203.224 52.685 203.255 52.927Z" fill="white"/>
<path d="M186.679 67.8285C186.58 67.8285 186.485 67.7775 186.432 67.686C186.353 67.5497 186.4 67.3756 186.536 67.2967L199.537 59.8075C199.673 59.7297 199.848 59.7754 199.927 59.9117C200.006 60.0479 199.959 60.222 199.823 60.3009L186.822 67.7901C186.777 67.8159 186.728 67.8285 186.679 67.8285Z" fill="white"/>
<path d="M51.0959 178.832L46.4298 181.308L48.2833 185.126C48.3234 185.209 48.3866 185.269 48.4606 185.308C48.6822 185.423 49.9915 186.118 50.0638 186.156C50.2854 186.274 50.6051 186.191 50.69 185.928L52.7025 179.682L51.0959 178.832Z" fill="#27DEBF"/>
<path opacity="0.2" d="M51.0959 178.832L46.4298 181.308L48.2833 185.126C48.3234 185.209 48.3866 185.269 48.4606 185.308C48.6822 185.423 49.9915 186.118 50.0638 186.156C50.2854 186.274 50.6051 186.191 50.69 185.928L52.7025 179.682L51.0959 178.832Z" fill="#333333"/>
<path d="M48.0358 182.158L49.8892 185.976C50.0505 186.308 50.5769 186.276 50.6894 185.927L52.7018 179.681L48.0358 182.158Z" fill="#27DEBF"/>
<path d="M57.6779 163.474L38.4001 173.673C38.1556 173.802 37.9575 174.117 37.9575 174.375V185.305C37.9575 185.564 38.1567 185.877 38.4024 186.004L39.9878 186.818C40.2334 186.945 40.6312 186.943 40.8752 186.814L60.1535 176.615C60.398 176.486 60.5961 176.171 60.5961 175.913V164.983C60.5961 164.724 60.3969 164.412 60.1512 164.284L58.5658 163.47C58.3196 163.343 57.9224 163.345 57.6779 163.474Z" fill="#27DEBF"/>
<path d="M40.4326 186.58V175.65C40.4326 175.391 40.6306 175.077 40.8752 174.948L60.1535 164.749C60.3981 164.62 60.5961 164.725 60.5961 164.983V175.914C60.5961 176.172 60.3981 176.487 60.1535 176.616L40.8752 186.814C40.6306 186.944 40.4326 186.839 40.4326 186.58Z" fill="#27DEBF"/>
<path opacity="0.2" d="M40.8752 186.815C40.6398 186.94 40.2093 186.944 39.9872 186.819L38.4029 186.003C38.1578 185.878 37.9575 185.565 37.9575 185.306V174.375C37.9575 174.24 38.0126 174.092 38.0987 173.961L40.5641 175.251C40.4825 175.377 40.4332 175.521 40.4332 175.65V186.579C40.4326 186.817 40.6146 186.953 40.8752 186.815Z" fill="#333333"/>
<path opacity="0.4" d="M60.5897 164.91C60.5547 164.706 60.3733 164.632 60.1523 164.749L40.8757 174.948C40.7529 175.014 40.6427 175.124 40.5629 175.251L38.0958 173.962C38.1756 173.84 38.2818 173.735 38.4006 173.673L57.679 163.474C57.9224 163.345 58.3184 163.343 58.5658 163.471L60.1501 164.285C60.3728 164.4 60.5587 164.668 60.5897 164.91Z" fill="white"/>
<path d="M44.0138 179.811C43.9151 179.811 43.8192 179.76 43.7664 179.669C43.6872 179.533 43.7342 179.358 43.8709 179.28L56.872 171.79C57.0074 171.712 57.1831 171.758 57.2617 171.894C57.3409 172.031 57.2938 172.205 57.1572 172.284L44.1561 179.773C44.1119 179.799 44.0626 179.811 44.0138 179.811Z" fill="white"/>
<path d="M249.292 83.4396C249.283 84.2954 248.518 84.9819 247.584 84.9724C246.65 84.9635 245.901 84.2623 245.911 83.4065C245.921 82.5507 246.686 81.8648 247.62 81.8737C248.553 81.8832 249.302 82.5838 249.292 83.4396Z" fill="#37474F"/>
<path d="M245.573 83.5054C244.46 82.9021 244.472 81.9416 245.598 81.3604C246.724 80.7792 248.54 80.7965 249.652 81.3999C250.765 82.0032 250.754 82.9631 249.627 83.5449C248.501 84.1261 246.686 84.1082 245.573 83.5054Z" fill="#455A64"/>
<path d="M245.517 82.9452C244.37 82.3235 244.382 81.3336 245.542 80.7345C246.703 80.1353 248.574 80.1532 249.721 80.775C250.868 81.3967 250.856 82.3866 249.696 82.9857C248.535 83.5849 246.664 83.567 245.517 82.9452Z" fill="#37474F"/>
<path d="M245.46 82.3683C244.278 81.7276 244.289 80.7071 245.486 80.0896C246.683 79.4721 248.611 79.4905 249.793 80.1312C250.975 80.7718 250.964 81.7923 249.767 82.4098C248.57 83.0273 246.642 83.0089 245.46 82.3683Z" fill="#455A64"/>
<path d="M245.401 81.7733C244.182 81.1127 244.195 80.0612 245.428 79.4247C246.661 78.7883 248.648 78.8072 249.867 79.4679C251.085 80.1285 251.073 81.18 249.84 81.8164C248.606 82.4529 246.619 82.434 245.401 81.7733Z" fill="#37474F"/>
<path d="M245.363 81.149C244.12 80.4752 244.132 79.4021 245.39 78.7525C246.649 78.1029 248.677 78.1224 249.92 78.7967C251.164 79.4705 251.151 80.5435 249.893 81.1931C248.634 81.8428 246.606 81.8228 245.363 81.149Z" fill="#455A64"/>
<path d="M247.836 63.1276C243.388 63.0845 239.745 66.3536 239.698 70.429C239.63 76.2876 244.894 77.3112 244.866 79.6724C244.862 80.0485 245.129 80.4272 245.668 80.7197C246.747 81.3041 248.505 81.3214 249.597 80.7576C250.143 80.4756 250.419 80.1022 250.423 79.7261C250.45 77.3649 255.737 76.4433 255.804 70.5847C255.851 66.5098 252.283 63.1708 247.836 63.1276Z" fill="#27DEBF"/>
<g opacity="0.6">
<path d="M247.836 63.1276C243.388 63.0845 239.745 66.3536 239.698 70.429C239.63 76.2876 244.894 77.3112 244.866 79.6724C244.862 80.0485 245.129 80.4272 245.668 80.7197C246.747 81.3041 248.505 81.3214 249.597 80.7576C250.143 80.4756 250.419 80.1022 250.423 79.7261C250.45 77.3649 255.737 76.4433 255.804 70.5847C255.851 66.5098 252.283 63.1708 247.836 63.1276Z" fill="white"/>
</g>
<path d="M246.159 80.4058C245.348 79.9661 245.356 79.2665 246.177 78.8426C246.997 78.4186 248.32 78.4318 249.132 78.8715C249.943 79.3112 249.935 80.0108 249.114 80.4348C248.292 80.8582 246.97 80.8451 246.159 80.4058Z" fill="#27DEBF"/>
<path d="M248.722 79.4653C248.574 79.4637 248.453 79.3543 248.451 79.2175C248.451 79.1376 248.437 77.2419 249.065 75.0059C249.187 74.5724 249.327 74.1806 249.48 73.8371C249.256 73.7613 249.024 73.6567 248.784 73.5173C248.358 73.2695 248.004 72.9813 247.726 72.6836C247.441 72.976 247.081 73.2574 246.649 73.4968C246.406 73.6314 246.171 73.7319 245.946 73.8029C246.091 74.149 246.222 74.5435 246.334 74.9795C246.91 77.2271 246.853 79.1223 246.85 79.2018C246.845 79.3401 246.726 79.4363 246.568 79.4442C246.418 79.44 246.299 79.3243 246.304 79.186C246.304 79.1676 246.36 77.2745 245.802 75.0937C245.684 74.6303 245.549 74.2416 245.409 73.9212C244.74 74.0017 244.202 73.8113 243.89 73.4968C243.579 73.1827 243.536 72.7672 243.784 72.4621C243.973 72.2312 244.243 72.1286 244.531 72.1839C244.961 72.2664 245.376 72.6757 245.728 73.3405C245.929 73.2811 246.143 73.1922 246.366 73.0686C246.799 72.8282 247.14 72.5515 247.395 72.2743C247.028 71.7446 246.896 71.2234 247.012 70.8636C247.113 70.5533 247.39 70.3697 247.753 70.3728C248.116 70.3765 248.388 70.5654 248.482 70.8778C248.59 71.2397 248.446 71.7589 248.067 72.2806C248.315 72.5621 248.65 72.8461 249.077 73.0944C249.298 73.2222 249.509 73.3153 249.709 73.3789C250.076 72.722 250.501 72.3201 250.932 72.2459C251.22 72.1991 251.49 72.3043 251.672 72.5389C251.913 72.8482 251.861 73.2632 251.543 73.5709C251.224 73.8792 250.681 74.059 250.015 73.9659C249.868 74.2836 249.724 74.6692 249.594 75.1305C248.985 77.3034 248.999 79.1933 248.999 79.2117C249 79.3501 248.879 79.4637 248.728 79.4648C248.725 79.4653 248.724 79.4653 248.722 79.4653ZM244.38 72.6704C244.333 72.6699 244.281 72.6883 244.222 72.7625C244.087 72.9287 244.243 73.1091 244.293 73.1606C244.467 73.3358 244.774 73.4531 245.164 73.4363C244.879 72.9434 244.599 72.7093 244.419 72.6746C244.407 72.672 244.393 72.6704 244.38 72.6704ZM250.269 73.4857C250.656 73.5094 250.968 73.3989 251.146 73.2269C251.198 73.1759 251.358 72.9986 251.227 72.8303C251.152 72.733 251.087 72.7293 251.032 72.7388C250.85 72.7698 250.566 72.9986 250.269 73.4857ZM247.747 70.8741C247.608 70.8725 247.562 70.9262 247.536 71.0067C247.476 71.1913 247.539 71.4911 247.736 71.8288C247.94 71.4953 248.01 71.1966 247.954 71.0109C247.93 70.9293 247.886 70.8752 247.747 70.8741Z" fill="white"/>
<path d="M247.917 60.3167C247.873 60.3277 247.826 60.3335 247.778 60.333C247.488 60.3319 247.253 60.1152 247.254 59.8491L247.265 57.3358C247.267 57.0686 247.504 56.854 247.793 56.8556C248.084 56.8567 248.319 57.0734 248.318 57.3395L248.306 59.8527C248.305 60.0752 248.14 60.2614 247.917 60.3167Z" fill="#E0E0E0"/>
<path d="M242.058 61.7311C241.833 61.7869 241.587 61.699 241.465 61.5049L240.104 59.3236C239.96 59.0922 240.047 58.7981 240.299 58.6656C240.551 58.5336 240.872 58.6135 241.017 58.8444L242.379 61.0257C242.523 61.2572 242.435 61.5512 242.184 61.6838C242.143 61.7053 242.101 61.7206 242.058 61.7311Z" fill="#E0E0E0"/>
<path d="M237.757 65.6399C237.626 65.6725 237.481 65.6583 237.355 65.591L234.986 64.3249C234.735 64.1908 234.65 63.8957 234.796 63.6658C234.942 63.4354 235.265 63.3586 235.515 63.4917L237.885 64.7578C238.136 64.8919 238.221 65.187 238.075 65.4169C238.002 65.5315 237.886 65.6083 237.757 65.6399Z" fill="#E0E0E0"/>
<path d="M236.165 70.9971C236.12 71.0081 236.074 71.0139 236.025 71.0134L233.283 71.0029C232.992 71.0018 232.758 70.7851 232.759 70.519C232.76 70.2523 232.997 70.0366 233.287 70.0387L236.029 70.0492C236.32 70.0503 236.555 70.267 236.554 70.5332C236.552 70.7557 236.388 70.9419 236.165 70.9971Z" fill="#E0E0E0"/>
<path d="M260.349 77.7084C260.218 77.741 260.073 77.7268 259.947 77.6595L257.577 76.3934C257.326 76.2593 257.242 75.9642 257.387 75.7343C257.534 75.5039 257.856 75.4271 258.107 75.5602L260.476 76.8263C260.727 76.9604 260.812 77.2555 260.666 77.4854C260.594 77.6 260.478 77.6768 260.349 77.7084Z" fill="#E0E0E0"/>
<path d="M235.206 77.7084C235.337 77.741 235.482 77.7268 235.608 77.6595L237.978 76.3934C238.229 76.2593 238.314 75.9642 238.168 75.7343C238.021 75.5039 237.699 75.4271 237.449 75.5602L235.079 76.8263C234.828 76.9604 234.743 77.2555 234.889 77.4854C234.961 77.6 235.078 77.6768 235.206 77.7084Z" fill="#E0E0E0"/>
<path d="M262.315 71.0965C262.271 71.1076 262.224 71.1134 262.176 71.1128L259.433 71.1028C259.143 71.1018 258.908 70.8851 258.909 70.6189C258.91 70.3522 259.147 70.1361 259.437 70.1387L262.18 70.1492C262.47 70.1503 262.705 70.367 262.704 70.6331C262.703 70.8551 262.539 71.0418 262.315 71.0965Z" fill="#E0E0E0"/>
<path d="M258.028 65.7182C257.803 65.774 257.556 65.6862 257.435 65.4921C257.291 65.2606 257.378 64.9661 257.63 64.834L260.012 63.5864C260.265 63.4549 260.586 63.5343 260.73 63.7652C260.874 63.9966 260.787 64.2912 260.535 64.4232L258.153 65.6709C258.112 65.6919 258.071 65.7077 258.028 65.7182Z" fill="#E0E0E0"/>
<path d="M253.762 61.7753C253.631 61.8079 253.487 61.7937 253.36 61.7269C253.109 61.5928 253.024 61.2977 253.17 61.0679L254.552 58.8965C254.698 58.6661 255.021 58.5894 255.271 58.7224C255.523 58.8566 255.607 59.1516 255.461 59.3815L254.08 61.5528C254.007 61.667 253.891 61.7438 253.762 61.7753Z" fill="#E0E0E0"/>
<rect y="268" width="287" height="86" fill="black" fill-opacity="0.44"/>
<rect x="0.5" y="268.5" width="286" height="85" stroke="white" stroke-opacity="0.45"/>
<path d="M130.64 304.44C132.379 304.44 133.771 304.925 134.816 305.896C135.861 306.867 136.384 308.136 136.384 309.704C136.384 311.261 135.856 312.536 134.8 313.528C133.755 314.509 132.368 315 130.64 315H127.328V304.44H130.64ZM130.624 305.976H129.024V313.48H130.624C131.851 313.48 132.827 313.128 133.552 312.424C134.277 311.72 134.64 310.813 134.64 309.704C134.64 308.573 134.277 307.672 133.552 307C132.837 306.317 131.861 305.976 130.624 305.976ZM141.318 306.968C142.289 306.968 143.067 307.251 143.654 307.816C144.241 308.381 144.534 309.192 144.534 310.248V315H142.966V314.12C142.379 314.824 141.542 315.176 140.454 315.176C139.633 315.176 138.971 314.968 138.47 314.552C137.969 314.136 137.718 313.587 137.718 312.904C137.718 312.221 137.979 311.677 138.502 311.272C139.025 310.867 139.729 310.664 140.614 310.664H142.838V310.152C142.838 309.608 142.689 309.192 142.39 308.904C142.102 308.616 141.691 308.472 141.158 308.472C140.369 308.472 139.643 308.861 138.982 309.64L138.006 308.648C138.795 307.528 139.899 306.968 141.318 306.968ZM140.806 313.88C141.371 313.88 141.851 313.704 142.246 313.352C142.641 313 142.838 312.557 142.838 312.024V311.88H140.822C139.894 311.88 139.43 312.2 139.43 312.84C139.43 313.171 139.558 313.427 139.814 313.608C140.07 313.789 140.401 313.88 140.806 313.88ZM150.504 313.656C150.739 313.656 151.086 313.629 151.544 313.576V315C151.011 315.117 150.547 315.176 150.152 315.176C149.246 315.176 148.536 314.952 148.024 314.504C147.512 314.045 147.256 313.357 147.256 312.44V308.6H145.976V307.144H147.256V305.08H148.952V307.144H151.288V308.6H148.952V312.296C148.952 312.797 149.08 313.149 149.336 313.352C149.603 313.555 149.992 313.656 150.504 313.656ZM156.271 306.968C157.242 306.968 158.021 307.251 158.607 307.816C159.194 308.381 159.487 309.192 159.487 310.248V315H157.919V314.12C157.333 314.824 156.495 315.176 155.407 315.176C154.586 315.176 153.925 314.968 153.423 314.552C152.922 314.136 152.671 313.587 152.671 312.904C152.671 312.221 152.933 311.677 153.455 311.272C153.978 310.867 154.682 310.664 155.567 310.664H157.791V310.152C157.791 309.608 157.642 309.192 157.343 308.904C157.055 308.616 156.645 308.472 156.111 308.472C155.322 308.472 154.597 308.861 153.935 309.64L152.959 308.648C153.749 307.528 154.853 306.968 156.271 306.968ZM155.759 313.88C156.325 313.88 156.805 313.704 157.199 313.352C157.594 313 157.791 312.557 157.791 312.024V311.88H155.775C154.847 311.88 154.383 312.2 154.383 312.84C154.383 313.171 154.511 313.427 154.767 313.608C155.023 313.789 155.354 313.88 155.759 313.88Z" fill="white"/>
</svg>
