<svg width="110" height="114" viewBox="0 0 110 114" fill="none" xmlns="http://www.w3.org/2000/svg">
<path d="M55 0H0.171387V24.3589H55V0Z" fill="#00A75F"/>
<path d="M0.171387 40.0183H55V59.1575H15.219V71.8328H55V96.4419H0.171387V40.0183ZM84.0224 4.72168H108.447L81.5985 49.8926V63.6754L108.447 96.4419H83.4037L61.9607 67.1597V37.3238L84.0224 4.72168Z" fill="#026635"/>
<path d="M5.54072 101.257H2.36769V102.53H5.28045V103.571H2.36769V105.113H5.68713V106.191H1.14319V100.195H5.54057V101.257H5.54072ZM6.55756 100.215H7.6966V103.445L9.14064 101.777H10.5767L9.02678 103.474L10.6377 106.191H9.23845L8.17655 104.295L7.69675 104.796V106.191H6.55756V100.215ZM13.1964 105.373C13.5354 105.373 13.7957 105.253 13.9774 105.011C14.1591 104.77 14.25 104.427 14.25 103.982C14.25 103.537 14.159 103.196 13.9774 102.957C13.7957 102.716 13.5354 102.595 13.1964 102.595C12.8573 102.595 12.5957 102.716 12.4112 102.957C12.2296 103.196 12.1387 103.537 12.1387 103.982C12.1387 104.427 12.2296 104.77 12.4113 105.011C12.5957 105.253 12.8573 105.373 13.1964 105.373ZM15.4663 103.982C15.4663 104.633 15.2792 105.19 14.9048 105.654C14.5306 106.115 13.9624 106.346 13.2005 106.346C12.4383 106.346 11.8703 106.115 11.496 105.654C11.1217 105.19 10.9346 104.633 10.9346 103.982C10.9346 103.342 11.1217 102.787 11.4961 102.318C11.8703 101.849 12.4385 101.615 13.2005 101.615C13.9626 101.615 14.5306 101.849 14.9049 102.318C15.2792 102.787 15.4663 103.342 15.4663 103.982ZM18.7572 101.651C19.2154 101.651 19.5897 101.772 19.8799 102.013C20.1727 102.252 20.3193 102.649 20.3193 103.205V106.191H19.1313V103.494C19.1313 103.261 19.1002 103.082 19.0379 102.957C18.924 102.729 18.7069 102.615 18.387 102.615C17.9937 102.615 17.7239 102.782 17.5775 103.116C17.5016 103.292 17.4636 103.517 17.4636 103.791V106.191H16.3084V101.765H17.4269V102.412C17.5761 102.184 17.7171 102.02 17.8501 101.92C18.0887 101.741 18.3911 101.651 18.7572 101.651ZM23.0284 101.651C23.2968 101.651 23.5355 101.711 23.7444 101.83C23.9531 101.947 24.1227 102.11 24.2529 102.318V100.203H25.4285V106.191H24.3017V105.577C24.1363 105.84 23.9477 106.031 23.7362 106.15C23.5247 106.27 23.2617 106.329 22.9471 106.329C22.429 106.329 21.9924 106.121 21.6373 105.703C21.2846 105.282 21.1084 104.744 21.1084 104.088C21.1084 103.331 21.282 102.736 21.6291 102.302C21.9789 101.868 22.4454 101.651 23.0284 101.651ZM23.2806 105.353C23.6088 105.353 23.8583 105.231 24.029 104.987C24.2 104.743 24.2855 104.427 24.2855 104.039C24.2855 103.497 24.1485 103.109 23.8745 102.876C23.7065 102.735 23.5111 102.664 23.2888 102.664C22.9497 102.664 22.7003 102.793 22.5403 103.051C22.3831 103.306 22.3044 103.623 22.3044 104.002C22.3044 104.412 22.3843 104.74 22.5443 104.987C22.707 105.231 22.9525 105.353 23.2806 105.353ZM28.4753 105.373C28.8143 105.373 29.0747 105.253 29.2563 105.011C29.438 104.77 29.5289 104.427 29.5289 103.982C29.5289 103.537 29.438 103.196 29.2563 102.957C29.0747 102.716 28.8143 102.595 28.4753 102.595C28.1364 102.595 27.8746 102.716 27.6902 102.957C27.5085 103.196 27.4176 103.537 27.4176 103.982C27.4176 104.427 27.5085 104.77 27.6902 105.011C27.8746 105.253 28.1364 105.373 28.4753 105.373ZM30.7452 103.982C30.7452 104.633 30.5581 105.19 30.1838 105.654C29.8095 106.115 29.2415 106.346 28.4793 106.346C27.7174 106.346 27.1492 106.115 26.7749 105.654C26.4008 105.19 26.2136 104.633 26.2136 103.982C26.2136 103.342 26.4008 102.787 26.7749 102.318C27.1492 101.849 27.7174 101.615 28.4793 101.615C29.2415 101.615 29.8095 101.849 30.1838 102.318C30.5581 102.787 30.7452 103.342 30.7452 103.982ZM37.9656 100.195H39.7677V106.191H38.6003V102.135C38.6003 102.019 38.6015 101.856 38.6043 101.647C38.6071 101.436 38.6083 101.273 38.6083 101.159L37.4734 106.191H36.2571L35.1303 101.159C35.1303 101.273 35.1316 101.436 35.1344 101.647C35.137 101.856 35.1384 102.019 35.1384 102.135V106.191H33.971V100.195H35.7933L36.8836 104.91L37.9656 100.195ZM42.0294 101.228H40.8538V100.158H42.0294V101.228ZM40.8538 101.757H42.0294V106.191H40.8538V101.757ZM45.8044 103.348C45.7847 103.187 45.7275 103.034 45.6376 102.9C45.5074 102.721 45.3055 102.632 45.0315 102.632C44.641 102.632 44.374 102.825 44.2302 103.213C44.1543 103.419 44.1163 103.693 44.1163 104.035C44.1163 104.36 44.1543 104.622 44.2302 104.82C44.3684 105.189 44.6288 105.373 45.0111 105.373C45.2823 105.373 45.4749 105.3 45.5889 105.154C45.7027 105.007 45.7719 104.817 45.7962 104.584H46.98C46.9529 104.937 46.8254 105.27 46.5977 105.585C46.2342 106.092 45.696 106.346 44.9827 106.346C44.2695 106.346 43.7447 106.134 43.4085 105.711C43.0722 105.288 42.904 104.739 42.904 104.064C42.904 103.301 43.0897 102.709 43.4613 102.286C43.8329 101.863 44.3454 101.651 44.9989 101.651C45.5549 101.651 46.0091 101.776 46.3617 102.026C46.717 102.275 46.9271 102.716 46.9922 103.348H45.8044ZM50.2018 101.651C50.2235 101.651 50.2411 101.653 50.2547 101.655C50.2709 101.655 50.3049 101.657 50.3564 101.659V102.847C50.2456 102.835 50.1343 102.828 50.0228 102.827C49.5563 102.827 49.2431 102.979 49.0831 103.282C48.9936 103.453 48.9489 103.716 48.9489 104.072V106.191H47.7813V101.757H48.8878V102.53C49.0668 102.234 49.2227 102.032 49.3557 101.924C49.5727 101.742 49.8547 101.651 50.2018 101.651ZM53.0289 105.373C53.3679 105.373 53.6283 105.253 53.81 105.011C53.9916 104.77 54.0825 104.427 54.0825 103.982C54.0825 103.537 53.9916 103.196 53.81 102.957C53.6283 102.716 53.3679 102.595 53.0289 102.595C52.69 102.595 52.4283 102.716 52.2438 102.957C52.0622 103.196 51.9714 103.537 51.9714 103.982C51.9714 104.427 52.0622 104.77 52.2438 105.011C52.4283 105.253 52.69 105.373 53.0289 105.373ZM55.2988 103.982C55.2988 104.633 55.1117 105.19 54.7374 105.654C54.3633 106.115 53.7951 106.346 53.0329 106.346C52.271 106.346 51.7028 106.115 51.3286 105.654C50.9544 105.19 50.7672 104.633 50.7672 103.982C50.7672 103.342 50.9544 102.787 51.3286 102.318C51.7028 101.849 52.271 101.615 53.0329 101.615C53.7951 101.615 54.3633 101.849 54.7374 102.318C55.1117 102.787 55.2988 103.342 55.2988 103.982ZM57.768 100.134C57.8413 100.134 57.9077 100.137 57.9674 100.142C58.0271 100.145 58.1084 100.15 58.2114 100.158V101.102C58.1463 101.094 58.0365 101.088 57.8819 101.086C57.7301 101.08 57.6242 101.114 57.5647 101.187C57.5093 101.254 57.479 101.337 57.4792 101.423V101.798H58.2398V102.615H57.4792V106.191H56.324V102.615H55.6771V101.798H56.3117V101.513C56.3117 101.038 56.3917 100.712 56.5517 100.533C56.7199 100.267 57.1253 100.134 57.768 100.134ZM60.0989 101.228H58.9233V100.158H60.0989V101.228ZM58.9233 101.757H60.0989V106.191H58.9233V101.757ZM63.6827 101.651C64.1409 101.651 64.5152 101.772 64.8054 102.013C65.0984 102.252 65.2448 102.649 65.2448 103.205V106.191H64.057V103.494C64.057 103.261 64.0257 103.082 63.9634 102.957C63.8495 102.729 63.6326 102.615 63.3125 102.615C62.9194 102.615 62.6495 102.782 62.503 103.116C62.4271 103.292 62.3891 103.517 62.3891 103.791V106.191H61.2339V101.765H62.3525V102.412C62.5017 102.184 62.6427 102.02 62.7756 101.92C63.0142 101.741 63.3166 101.651 63.6827 101.651ZM68.7634 104.035C68.6926 104.08 68.6177 104.118 68.5397 104.149C68.4666 104.176 68.3648 104.202 68.2347 104.226L67.9743 104.275C67.7302 104.318 67.5553 104.371 67.4496 104.434C67.2706 104.539 67.1811 104.703 67.1811 104.926C67.1811 105.124 67.2353 105.268 67.3437 105.357C67.455 105.444 67.5892 105.487 67.7466 105.487C67.996 105.487 68.2251 105.414 68.434 105.268C68.6455 105.121 68.7554 104.854 68.7634 104.466V104.035ZM68.0597 103.494C68.274 103.467 68.4272 103.433 68.5193 103.392C68.6849 103.322 68.7676 103.212 68.7676 103.063C68.7676 102.881 68.7038 102.756 68.5764 102.689C68.4516 102.618 68.2673 102.583 68.0232 102.583C67.7492 102.583 67.5553 102.65 67.4414 102.786C67.3601 102.887 67.3058 103.022 67.2786 103.193H66.16C66.1845 102.805 66.293 102.486 66.4855 102.237C66.7919 101.847 67.318 101.651 68.0638 101.651C68.5493 101.651 68.9805 101.748 69.3574 101.94C69.7343 102.133 69.9228 102.496 69.9228 103.03V105.064C69.9228 105.205 69.9256 105.376 69.931 105.577C69.9392 105.729 69.9621 105.832 70.0001 105.886C70.038 105.94 70.095 105.985 70.1709 106.02V106.191H68.91C68.877 106.11 68.8524 106.025 68.8367 105.939C68.8219 105.85 68.811 105.76 68.8041 105.67C68.6429 105.845 68.4564 105.994 68.2509 106.114C68.0014 106.257 67.7194 106.329 67.4048 106.329C67.0034 106.329 66.6712 106.215 66.4082 105.988C66.1478 105.757 66.0177 105.432 66.0177 105.011C66.0177 104.466 66.2279 104.072 66.6481 103.827C66.8787 103.695 67.2177 103.6 67.6651 103.543L68.0597 103.494ZM73.413 101.651C73.8714 101.651 74.2457 101.772 74.5357 102.013C74.8287 102.252 74.9751 102.649 74.9751 103.205V106.191H73.7873V103.494C73.7873 103.261 73.7561 103.082 73.6937 102.957C73.5798 102.729 73.3629 102.615 73.0429 102.615C72.6497 102.615 72.3798 102.782 72.2334 103.116C72.1574 103.292 72.1194 103.517 72.1194 103.791V106.191H70.9642V101.765H72.0828V102.412C72.232 102.184 72.373 102.02 72.5059 101.92C72.7445 101.741 73.0469 101.651 73.413 101.651ZM78.6972 103.348C78.6774 103.187 78.6203 103.034 78.5304 102.9C78.4002 102.721 78.1983 102.632 77.9243 102.632C77.5338 102.632 77.2667 102.825 77.1229 103.213C77.047 103.419 77.0091 103.693 77.0091 104.035C77.0091 104.36 77.047 104.622 77.1229 104.82C77.2612 105.189 77.5216 105.373 77.9039 105.373C78.1751 105.373 78.3677 105.3 78.4817 105.154C78.5955 105.007 78.6646 104.817 78.689 104.584H79.8728C79.8456 104.937 79.7182 105.27 79.4905 105.585C79.127 106.092 78.5887 106.346 77.8755 106.346C77.1623 106.346 76.6374 106.134 76.3013 105.711C75.9649 105.288 75.7968 104.739 75.7968 104.064C75.7968 103.301 75.9825 102.709 76.3542 102.286C76.7257 101.863 77.2382 101.651 77.8917 101.651C78.4477 101.651 78.9019 101.776 79.2544 102.026C79.6097 102.275 79.8199 102.716 79.885 103.348H78.6972ZM82.4357 102.595C82.1671 102.595 81.9583 102.679 81.8091 102.847C81.6627 103.015 81.5705 103.243 81.5325 103.531H83.3346C83.3157 103.224 83.222 102.992 83.0538 102.835C82.8885 102.675 82.6823 102.595 82.4357 102.595ZM82.4357 101.639C82.8044 101.639 83.1365 101.708 83.4321 101.847C83.7277 101.985 83.9719 102.203 84.1645 102.501C84.3381 102.765 84.4505 103.07 84.502 103.417C84.5318 103.62 84.5442 103.913 84.5386 104.295H81.504C81.5203 104.74 81.6599 105.052 81.923 105.231C82.083 105.342 82.2755 105.398 82.5006 105.398C82.7393 105.398 82.9332 105.33 83.0824 105.194C83.1637 105.121 83.2356 105.019 83.2979 104.889H84.4817C84.4519 105.152 84.3149 105.419 84.0708 105.691C83.6912 106.122 83.1597 106.337 82.4762 106.337C81.9122 106.337 81.4145 106.156 80.9833 105.792C80.5522 105.429 80.3365 104.838 80.3365 104.019C80.3365 103.251 80.5305 102.663 80.9183 102.253C81.3088 101.844 81.8145 101.639 82.4357 101.639ZM88.9523 101.236V102.558H90.4249C90.688 102.558 90.9009 102.509 91.0635 102.412C91.229 102.312 91.3117 102.135 91.3117 101.883C91.3117 101.604 91.2032 101.419 90.9862 101.33C90.799 101.268 90.5605 101.236 90.2703 101.236H88.9523ZM88.9523 103.551V105.15H90.4249C90.688 105.15 90.8927 105.114 91.0391 105.044C91.3049 104.914 91.4378 104.664 91.4378 104.295C91.4378 103.983 91.3089 103.769 91.0513 103.653C90.9077 103.588 90.7056 103.554 90.4453 103.551H88.9523ZM90.669 100.195C91.4038 100.206 91.9245 100.419 92.231 100.834C92.4154 101.088 92.5077 101.394 92.5077 101.749C92.5077 102.115 92.4154 102.409 92.231 102.632C92.128 102.756 91.976 102.87 91.7755 102.973C92.0819 103.084 92.3124 103.261 92.4669 103.502C92.6243 103.743 92.7028 104.036 92.7028 104.381C92.7028 104.736 92.6133 105.055 92.4344 105.337C92.3238 105.52 92.1788 105.68 92.0073 105.809C91.8147 105.955 91.5869 106.055 91.3239 106.11C91.0635 106.164 90.7801 106.191 90.4737 106.191H87.7564V100.195H90.669ZM96.1077 104.035C96.0369 104.08 95.9619 104.118 95.8839 104.149C95.8108 104.176 95.7091 104.202 95.5789 104.226L95.3185 104.275C95.0744 104.318 94.8996 104.371 94.7938 104.434C94.6148 104.539 94.5253 104.703 94.5253 104.926C94.5253 105.124 94.5795 105.268 94.6879 105.357C94.7992 105.444 94.9334 105.487 95.0907 105.487C95.3402 105.487 95.5693 105.414 95.7782 105.268C95.9897 105.121 96.0996 104.854 96.1077 104.466V104.035ZM95.4039 103.494C95.6182 103.467 95.7714 103.433 95.8637 103.392C96.0291 103.322 96.1118 103.212 96.1118 103.063C96.1118 102.881 96.048 102.756 95.9206 102.689C95.7958 102.618 95.6114 102.583 95.3674 102.583C95.0934 102.583 94.8996 102.65 94.7856 102.786C94.7043 102.887 94.65 103.022 94.623 103.193H93.5043C93.5287 102.805 93.6371 102.486 93.8297 102.237C94.1361 101.847 94.6622 101.651 95.4079 101.651C95.8934 101.651 96.3247 101.748 96.7016 101.94C97.0786 102.133 97.267 102.496 97.267 103.03V105.064C97.267 105.205 97.2698 105.376 97.2752 105.577C97.2833 105.729 97.3063 105.832 97.3443 105.886C97.3822 105.94 97.4392 105.985 97.5152 106.02V106.191H96.2541C96.2212 106.11 96.1966 106.025 96.1809 105.939C96.1661 105.85 96.1552 105.76 96.1483 105.67C95.9871 105.845 95.8006 105.994 95.5951 106.114C95.3456 106.257 95.0636 106.329 94.749 106.329C94.3476 106.329 94.0154 106.215 93.7524 105.988C93.4921 105.757 93.3619 105.432 93.3619 105.011C93.3619 104.466 93.572 104.072 93.9924 103.827C94.2229 103.695 94.5619 103.6 95.0093 103.543L95.4039 103.494ZM100.757 101.651C101.216 101.651 101.59 101.772 101.88 102.013C102.173 102.252 102.319 102.649 102.319 103.205V106.191H101.131V103.494C101.131 103.261 101.1 103.082 101.038 102.957C100.924 102.729 100.707 102.615 100.387 102.615C99.9938 102.615 99.724 102.782 99.5776 103.116C99.5017 103.292 99.4637 103.517 99.4637 103.791V106.191H98.3084V101.765H99.427V102.412C99.5762 102.184 99.7172 102.02 99.8501 101.92C100.089 101.741 100.391 101.651 100.757 101.651ZM103.381 100.215H104.52V103.445L105.964 101.777H107.4L105.85 103.474L107.461 106.191H106.062L105 104.295L104.52 104.796V106.191H103.381V100.215Z" fill="#69BC97"/>
</svg>
