<svg width="195" height="41" viewBox="0 0 195 41" fill="none" xmlns="http://www.w3.org/2000/svg">
<g clip-path="url(#clip0_181_930)">
<path fill-rule="evenodd" clip-rule="evenodd" d="M112.275 0.150033C108.345 0.569596 104.625 2.13406 101.577 4.64922C98.5287 7.16437 96.2861 10.5194 95.1278 14.2979C93.9695 18.0764 93.9465 22.1118 95.0615 25.9033C96.1765 29.6947 98.3806 33.0752 101.4 35.625C103.949 37.7779 106.993 39.2649 110.258 39.9527C113.523 40.6405 116.908 40.5078 120.109 39.5663C123.31 38.6249 126.228 36.9041 128.601 34.5582C130.974 32.2123 132.728 29.3144 133.706 26.1241C134.684 22.9339 134.855 19.5509 134.205 16.2781C133.554 13.0053 132.102 9.94499 129.979 7.37119C127.855 4.79739 125.126 2.7905 122.037 1.53026C118.947 0.270019 115.593 -0.204215 112.275 0.150033ZM112.35 0.600033C117.534 0.0780353 122.713 1.62799 126.758 4.91153C130.803 8.19507 133.385 12.9455 133.939 18.1257C134.494 23.306 132.977 28.4953 129.719 32.5608C126.461 36.6262 121.727 39.2377 116.55 39.825C113.966 40.1182 111.349 39.8975 108.851 39.1755C106.352 38.4535 104.021 37.2445 101.991 35.6181C99.9618 33.9917 98.2739 31.98 97.0249 29.6988C95.7759 27.4175 94.9903 24.9118 94.7134 22.3258C94.4365 19.7398 94.6738 17.1246 95.4115 14.6306C96.1492 12.1366 97.3729 9.8132 99.0121 7.79398C100.651 5.77476 102.674 4.09963 104.963 2.865C107.252 1.63037 109.762 0.860617 112.35 0.600033Z" fill="#ACBB16"/>
<path fill-rule="evenodd" clip-rule="evenodd" d="M113.625 1.42491C110.848 1.55372 108.134 2.29841 105.681 3.60509C103.227 4.91176 101.094 6.7477 99.4376 8.97999C97.7808 11.2123 96.6411 13.7851 96.101 16.5121C95.5609 19.2391 95.634 22.052 96.3149 24.7473C96.9958 27.4426 98.2676 29.9528 100.038 32.096C101.809 34.2393 104.033 35.9621 106.552 37.1396C109.07 38.3172 111.819 38.92 114.598 38.9045C117.378 38.889 120.12 38.2555 122.625 37.0499C125.082 35.8304 127.243 34.0888 128.956 31.9468C130.669 29.8049 131.894 27.3144 132.544 24.6497C133.194 21.985 133.254 19.2105 132.719 16.5202C132.185 13.8299 131.069 11.2888 129.45 9.07491C129.15 8.54991 128.775 8.32491 128.4 7.79991C126.589 5.6773 124.316 3.99869 121.754 2.89343C119.193 1.78817 116.411 1.28575 113.625 1.42491ZM114.075 17.9999C114.15 18.1499 114.15 17.9249 114.15 18.2249L113.775 19.6499L113.4 21.4499C112.8 20.5499 112.35 18.5999 112.125 17.3999C111.825 15.3749 112.125 14.3249 112.2 12.4499C111.9 13.1999 111.75 14.2499 111.675 15.1499C110.925 14.4749 110.85 13.8749 109.8 13.4999C110.85 14.3249 111.3 15.2999 111.45 17.0249C111.525 19.1249 111.825 19.7249 112.2 21.5249C111.525 21.0749 111.15 20.6249 110.625 20.0249C108 17.0249 107.175 19.0499 106.125 15.0749C106.05 16.5749 106.35 16.7249 106.725 17.7749C105.9 17.7749 105.075 17.6249 104.4 18.0749C106.125 18.2249 107.325 18.4499 108.45 19.2749C110.85 20.9999 113.85 25.8749 114 29.2499C113.25 28.8749 112.5 27.2249 109.125 25.9499C108 25.5749 107.1 25.4249 106.125 24.8999C105.6 24.5249 104.475 23.4749 104.475 22.6499C104.475 23.6249 105.375 24.8249 105.75 25.1249L102.225 25.2749C104.625 25.4999 105.75 25.2749 107.85 26.0999C109.275 26.6999 110.925 27.7499 111.75 28.5749C112.275 29.1749 113.925 30.5249 113.625 31.3499L112.2 34.8749C111.75 36.0749 111.825 36.1499 111.675 37.4999C107.333 36.8313 103.408 34.5385 100.693 31.0854C97.9776 27.6322 96.6755 23.2767 97.05 18.8999C97.3384 15.6304 98.5417 12.5081 100.522 9.89074C102.503 7.27336 105.18 5.26668 108.249 4.10049C111.317 2.93431 114.651 2.65577 117.87 3.29677C121.089 3.93777 124.063 5.4724 126.45 7.72491L126.9 8.24991C129.137 10.5748 130.683 13.4757 131.366 16.6285C132.049 19.7814 131.842 23.0621 130.769 26.1043C129.695 29.1464 127.797 31.8301 125.286 33.8557C122.775 35.8813 119.75 37.169 116.55 37.5749C116.025 35.3249 116.25 34.4249 116.85 32.2499C117.525 29.9249 117.9 29.7749 119.4 28.5749C122.925 25.8749 124.425 25.8749 127.8 24.6749C126.525 24.5999 125.55 24.8249 124.35 25.0499C124.95 23.9999 125.25 23.8499 125.4 22.3499C125.1 25.1249 121.875 25.5749 118.95 27.3749L116.775 28.8749C115.425 26.1749 117.375 25.2749 119.4 22.3499C119.925 21.5999 120.675 20.0999 120.9 18.8999C121.2 17.0249 121.65 16.7999 122.775 15.7499C121.875 16.0499 121.575 16.5749 121.05 17.0249L120.825 15.6749C120.75 17.8499 120.675 19.8749 118.575 21.7499C119.025 18.9749 118.875 18.7499 117.975 16.4999C118.875 19.2749 118.125 21.8999 116.325 23.9999L114.75 25.7249C114.525 24.4499 114.375 22.9499 114.375 21.5999C114.375 20.9249 114.6 18.6749 115.05 17.9999C115.2 17.0249 116.25 15.2999 116.7 14.6249L118.425 12.5249L119.025 11.9249C118.65 12.1499 117.675 12.8249 117.45 13.1249V11.5499L117.075 10.3499C117.225 11.1749 117.45 11.6249 117.15 12.6749C116.55 14.6249 114.225 16.5749 114.15 17.7749V15.8249C113.325 16.1249 112.5 17.0249 112.95 18.2249L113.4 17.1749L113.175 18.2999C113.85 18.1499 113.775 18.2249 114.075 17.9999Z" fill="#293737"/>
<path fill-rule="evenodd" clip-rule="evenodd" d="M120.6 12.3C121.425 11.925 122.325 11.025 123.975 10.95C122.85 11.4 121.5 11.85 120.825 12.675C122.625 14.55 124.35 11.925 125.025 11.4C125.475 11.025 125.925 10.95 126.375 10.575C125.25 10.2 124.05 9.74998 122.7 10.05C121.5 10.275 120.45 10.95 120.6 12.3ZM121.5 27.825C123.525 27.6 123.75 27.9 125.4 28.2C123.75 28.125 123.375 27.825 121.5 28.275C122.925 31.05 124.65 28.8 127.275 28.875C125.7 26.55 121.875 25.8 121.5 27.825ZM102.975 12.15L103.2 12.225L103.275 12.3L103.725 12.45C104.025 12.45 104.175 12.6 104.4 12.675C105.675 13.2 106.95 14.625 108.075 12.45C107.4 12 105.9 11.775 105 11.775C106.425 11.7 106.875 11.775 108.075 12.075C107.775 11.1 106.8 10.725 105.525 10.95C104.25 11.1 103.8 11.775 102.975 12.15ZM126 23.475C126.675 22.875 126.75 22.35 127.725 21.825C127.35 22.425 126.525 22.95 126.3 23.85C128.7 24.675 128.175 23.175 130.05 20.55C128.025 20.325 125.55 21.375 126 23.475ZM116.475 9.29998C116.55 8.69998 115.725 7.57498 115.5 7.19998C116.25 7.79998 116.325 8.24998 116.7 8.77498L116.925 9.07498C117.225 7.87498 116.775 7.27498 116.1 6.59998C115.5 6.07498 114.6 5.54998 113.55 5.62498C114.825 7.57498 113.925 9.82498 116.475 9.29998ZM121.725 19.875C122.475 20.55 122.175 19.95 123.9 21.75C123.75 21.3 122.175 20.4 121.425 20.1C120.675 22.2 122.925 22.35 123.75 22.65C124.275 22.8 124.575 23.1 124.95 23.25C124.8 19.725 121.8 19.275 121.725 19.875ZM113.85 15.075C114 14.325 113.85 13.65 113.85 12.975L113.925 13.125C114.075 13.5 114.15 13.875 114.15 14.925C115.5 14.1 114.6 11.475 112.8 10.5C113.025 12.525 111.525 14.625 113.85 15.075ZM100.95 15.525C102.075 16.125 102.15 16.2 102.975 16.875C103.8 17.625 104.85 17.4 105.3 16.425L103.2 15.525C104.1 15.6 104.625 15.9 105.375 16.125C105.075 14.7 103.35 14.55 102.075 14.925L100.95 15.525ZM99.9 21.9C100.725 22.575 100.8 22.575 101.55 23.625C102 24.375 102.825 24.75 103.8 23.925C103.575 23.4 102.525 22.65 101.925 22.425C102.9 22.65 103.35 23.325 104.025 23.625C103.875 21.75 101.7 21.375 99.9 21.9ZM109.35 32.025C110.1 29.85 111.9 30.675 111.675 28.65C110.925 28.875 110.1 29.625 109.875 30.225C110.25 29.175 111.075 28.725 111.45 28.35C109.425 26.55 108.375 30.75 109.35 32.025ZM110.7 26.25C110.925 25.425 110.925 25.2 110.925 24.225C111.15 24.825 111.075 25.65 110.925 26.325C112.35 26.175 112.5 25.2 111.9 24C111.525 23.1 110.7 22.575 110.025 22.125C110.1 23.025 110.325 23.25 110.1 24.3C109.875 25.35 109.875 25.95 110.7 26.25ZM110.25 19.05L110.1 16.425L110.55 18.975C111.75 18.225 111.075 15.825 109.275 14.85C109.425 16.725 108 18.825 110.25 19.05ZM123.9 16.125L126.225 15.975C125.4 16.125 124.5 16.05 123.9 16.5C124.575 18.45 126.225 16.575 127.725 16.5C127.575 16.125 127.725 16.35 127.35 16.125L126.975 15.825C125.925 15.15 124.35 15 123.9 16.125ZM111.15 12.6C111.15 12.075 110.85 11.7 110.7 11.175L111.075 11.625L111.375 12.3C111.375 12.3 111.6 12.225 111.675 11.775C111.75 10.8 110.4 9.59998 108.975 9.44998L109.575 11.55C109.725 12.45 110.1 12.675 111.15 12.6ZM103.875 29.25C104.4 28.65 104.475 28.35 105.075 27.975C105.675 27.525 106.125 27.45 106.05 26.475C105.525 26.4 105.375 26.7 104.925 26.925C105.225 26.475 105.45 26.4 105.75 26.1C104.025 24.675 103.35 27.6 103.875 29.25ZM104.25 21.45C104.925 21.15 105.075 20.85 105.9 20.7C106.725 20.475 107.175 20.475 107.175 19.5C106.35 19.575 106.275 19.725 105.6 19.95C106.275 19.5 106.35 19.575 107.1 19.275C106.725 17.85 104.625 18.525 104.25 21.45ZM118.125 26.775L119.025 25.125C118.8 25.725 118.575 26.1 118.425 26.925C120.225 26.925 119.625 25.95 120.3 23.7C119.1 24 117.6 25.2 118.125 26.775ZM115.725 22.725L116.325 20.925L115.95 22.8C117.75 23.025 117.075 21 117.375 19.5C116.475 19.8 114.525 21.75 115.725 22.725ZM119.025 29.55L119.175 29.625L119.4 29.7L120.45 30.225C119.85 30.075 119.625 29.925 118.8 29.85C118.95 31.725 120.3 31.05 121.95 31.5C121.8 30.75 121.35 30.225 120.975 29.85C120.6 29.475 119.625 28.875 119.025 29.55ZM100.425 19.05C101.25 18.975 101.55 18.9 102.3 19.2C103.05 19.425 103.5 19.425 103.725 18.825C103.2 18.45 102.825 18.6 102.225 18.45L103.8 18.6C103.8 16.35 101.025 17.85 100.425 19.05ZM113.85 10.275C114 9.89998 113.625 9.44998 113.4 8.92498C113.625 9.22498 113.925 9.74998 114.225 9.97498C114.6 9.37498 114 8.62498 113.625 8.39998C113.175 8.02498 112.65 7.87498 111.975 7.79998C112.725 9.52498 112.65 10.5 113.85 10.275ZM123.6 13.875C124.2 13.725 124.425 13.5 125.025 13.5C124.575 13.65 123.975 13.8 123.675 14.1C124.05 14.625 124.575 14.925 125.25 14.325L126.75 13.425C125.925 12.9 123.975 12.45 123.6 13.875ZM108.15 29.475C108.225 28.875 108.225 28.575 108.45 28.05C109.2 26.7 108.6 26.175 108.15 27.15L107.925 27.9C107.925 27.225 108.15 27.075 108.3 26.55C106.5 26.55 107.025 28.575 108.15 29.475ZM115.275 17.85H116.325L115.35 18.3C115.875 19.5 116.7 18.675 117.9 18.075L118.2 17.85C117.75 17.625 116.925 17.025 115.875 17.4L115.5 17.625V17.7L115.425 17.775L115.275 17.85ZM122.1 18.6C122.55 18.45 122.925 18.3 123.45 18.3C122.925 18.375 122.475 18.45 122.1 18.825C122.775 19.95 123.6 18.9 124.05 18.6L124.725 18.3C123.975 17.85 122.475 17.325 122.1 18.6ZM114.075 18L114.375 17.7V15.75C113.55 16.05 112.725 16.95 113.175 18.075L113.625 17.025L113.4 18.225C113.85 18.15 113.775 18.225 114.075 18ZM120.45 14.625L120.15 13.5L120.3 13.725L120.6 14.25L120.825 14.475C121.725 13.35 120.3 12.6 118.95 12.525L119.1 12.825C120.075 14.325 119.475 14.625 120.45 14.625ZM119.55 10.575L119.7 10.5C120.45 10.275 120.3 8.84998 119.4 8.09998C118.875 9.44998 118.575 10.275 119.55 10.575ZM108.225 22.8C108.6 22.425 108.45 22.275 109.05 21.6C109.2 21.375 109.425 21.3 109.425 20.925C109.275 20.4 109.2 20.7 108.825 20.925C109.05 20.55 109.275 20.4 108.75 20.325C108.45 20.325 108.225 20.55 108.075 20.775C107.775 21.525 108.075 22.2 108.225 22.8ZM115.275 13.725L115.65 13.5L115.875 13.125L115.65 13.875C117.075 14.175 116.55 12 115.95 11.625C115.425 13.125 115.05 12.825 115.275 13.725ZM119.55 18.975L120 18.45L119.775 19.05C120.675 18.825 120.9 17.625 120.375 16.875L120.3 16.95C120.225 17.325 120.3 16.95 120.225 17.1C119.625 17.775 118.725 18.3 119.55 18.975ZM119.55 22.8L120.45 22.575C120 22.725 120 22.65 119.625 23.025C119.925 23.4 120.225 23.55 120.825 23.175L121.725 22.575L121.65 22.35L121.275 22.2L120.6 22.125C120 22.125 119.775 22.35 119.55 22.8ZM126 25.875L126.75 25.725C126.45 25.875 126.3 25.8 126.075 26.175C126.6 26.775 126.825 26.55 127.95 25.8L128.175 25.575C127.425 25.35 126.45 24.825 126 25.875ZM108 25.35L108.375 24.675L108.225 25.5C109.425 25.35 108.975 24.6 109.2 23.475C108.525 23.625 107.4 24.525 108 25.35ZM106.725 24.6C106.95 24.3 106.875 24.3 106.875 23.925L106.95 24.15L107.025 24.3L107.175 24.525C107.4 23.55 107.1 22.8 106.275 22.35C106.35 23.475 105.675 24.375 106.725 24.6ZM122.025 25.05L122.175 24.825L122.325 25.2C123.75 25.125 122.7 23.475 122.25 23.175C122.175 24 121.65 24.6 122.025 25.05ZM106.725 15.675L107.025 15.75H107.325C106.8 15.825 106.875 15.825 106.725 16.125C107.1 16.35 107.325 16.5 107.775 16.2L108.75 15.675C108.15 15.3 107.175 14.925 106.725 15.675ZM119.925 16.2C120.225 15.75 119.85 16.125 120 15.9L120.225 15.75C120 15.15 119.55 15 118.875 14.925C119.4 16.125 119.25 16.2 119.925 16.2ZM117.75 16.2L117.525 15.45L117.975 15.975C118.05 15.225 117.6 14.925 116.85 14.85C117.075 15.675 116.925 16.125 117.75 16.2ZM0 18.675V14.925H2.925V14.25C2.925 10.275 4.8 8.32498 8.625 8.32498C10.05 8.32498 11.1 8.47498 11.775 8.92498C12.525 9.29998 12.9 9.89998 12.9 10.65C12.9 11.325 12.675 12 12.225 12.75C11.475 12.375 10.575 12.15 9.6 12.15C8.775 12.15 8.175 12.3 7.8 12.675C7.425 13.05 7.2 13.65 7.2 14.4V15L11.775 14.925V18.675L7.575 18.6V30.525H2.925V18.6L0 18.675ZM26.325 30.525H23.55C22.05 30.525 21.15 29.7 21 28.05C20.025 29.925 18.375 30.825 16.05 30.825C14.625 30.825 13.5 30.45 12.525 29.625C12.0253 29.2216 11.6287 28.7052 11.3679 28.1184C11.1071 27.5316 10.9895 26.8912 11.025 26.25C11.025 22.725 13.575 20.925 18.75 20.925H20.925C20.925 19.95 20.7 19.275 20.25 18.825C19.8 18.45 18.975 18.225 18 18.225C16.05 18.225 14.4 18.675 12.975 19.575C12.525 18.9 12.225 18.15 12.225 17.325C12.225 16.5 12.525 15.975 13.05 15.675C14.325 14.925 16.125 14.55 18.375 14.55C20.625 14.55 22.35 15.075 23.625 16.125C24.9 17.25 25.5 18.75 25.5 20.775V26.85C25.575 28.575 25.8 29.7 26.325 30.525ZM17.1 27.3C18.6 27.3 19.95 26.7 21 25.275V23.625H18.825C16.5 23.625 15.3 24.3 15.3 25.725C15.3 26.175 15.45 26.55 15.825 26.85C16.2 27.15 16.575 27.3 17.1 27.3ZM32.625 17.55C33 16.8 33.675 16.125 34.5 15.525C35.325 14.925 36.3 14.625 37.275 14.625C38.1 14.625 38.775 14.85 39.375 15.3C39.975 15.825 40.2 16.5 40.2 17.4C40.2 18.375 39.975 19.275 39.6 20.25C38.7376 19.4773 37.6068 19.0734 36.45 19.125C34.875 19.125 33.6 19.725 32.55 20.925V30.525H27.9V14.925H29.775C30.75 14.925 31.425 15.15 31.875 15.6C32.325 15.975 32.55 16.725 32.625 17.55ZM60.6 27.825V20.625C60.6 19.2 59.925 18.45 58.725 18.45C58.05 18.45 57.375 18.675 56.7 19.125C56.1 19.575 55.65 20.1 55.35 20.7V30.525H50.775V20.625C50.775 19.2 50.1 18.45 48.9 18.45C48.15 18.45 47.55 18.675 46.875 19.125C46.275 19.575 45.825 20.1 45.45 20.7V30.525H40.875V14.925H42.675C43.65 14.925 44.325 15.15 44.775 15.525C45.15 15.975 45.375 16.575 45.45 17.4C46.725 15.6 48.45 14.625 50.775 14.625C52.95 14.625 54.3 15.675 54.975 17.7C55.539 16.7534 56.3414 15.9713 57.3021 15.4317C58.2628 14.8922 59.3482 14.614 60.45 14.625C61.95 14.625 63.15 15.075 63.975 16.05C64.8 17.025 65.175 18.45 65.175 20.175V30.525H63.45C61.5 30.525 60.6 29.625 60.6 27.825Z" fill="#ACBB16"/>
<path fill-rule="evenodd" clip-rule="evenodd" d="M68.8499 28.65C67.4249 27.225 66.6749 25.275 66.6749 22.65C66.6749 20.175 67.4249 18.15 68.8499 16.725C70.2749 15.225 72.2999 14.475 74.8499 14.475C76.5749 14.475 77.9999 14.7 79.1249 15.3C79.6499 15.525 79.9499 15.75 80.0999 15.975C80.2499 16.275 80.3249 16.725 80.3249 17.25C80.3249 18.075 80.0999 18.825 79.7249 19.65C78.3749 18.825 76.9499 18.375 75.2999 18.375C72.6749 18.375 71.3999 19.725 71.3999 22.65C71.3999 24 71.6999 25.05 72.3749 25.8C73.0499 26.55 74.0999 26.925 75.4499 26.925C76.9499 26.925 78.5249 26.475 79.9499 25.5C80.3999 26.325 80.6249 27.15 80.6249 27.975C80.6249 28.5 80.5499 28.875 80.3249 29.175C80.1749 29.4 79.8749 29.7 79.4249 29.925C78.2999 30.525 76.8749 30.825 74.9999 30.825C72.3749 30.9 70.2749 30.15 68.8499 28.65ZM86.5499 17.55C86.9999 16.8 87.5999 16.125 88.4249 15.525C89.2499 14.925 90.2249 14.625 91.1999 14.625C92.0249 14.625 92.7749 14.85 93.3749 15.3C93.8999 15.825 94.1999 16.5 94.1999 17.4C94.1999 18.375 93.8999 19.275 93.5249 20.25C92.6626 19.4773 91.5317 19.0734 90.3749 19.125C88.7999 19.125 87.5249 19.725 86.5499 20.925V30.525H81.8249V14.925H83.6999C84.6749 14.925 85.3499 15.15 85.7999 15.6C86.2499 15.975 86.4749 16.725 86.5499 17.55ZM147.9 23.475L145.95 30.075H139.575L135.375 14.475H140.55L142.05 20.7C142.65 22.8 142.875 24.825 142.95 26.7H143.1C143.25 24.825 143.7 22.725 144.375 20.475L146.25 14.475H151.275L153.15 20.475C153.75 22.725 154.125 24.9 154.275 26.7H154.35C154.35 24.825 154.65 22.8 155.1 20.625L156.975 14.475H162.15L157.5 30.075H151.65L149.775 23.475L148.875 18.3H148.8C148.5 20.475 148.275 22.2 147.9 23.475ZM172.8 23.85V20.1C171.9 18.675 170.775 18 169.65 18C168.675 18 168 18.375 167.4 19.125C166.8 19.875 166.5 20.925 166.5 22.275C166.5 23.625 166.8 24.675 167.325 25.425C167.85 26.175 168.675 26.55 169.65 26.55C170.325 26.55 170.925 26.325 171.525 25.725C172.05 25.2 172.5 24.6 172.8 23.85ZM177.375 10.95V26.475C177.375 28.05 177.6 29.325 178.05 30.075H175.2C173.7 30.075 172.8 29.25 172.65 27.6C172.252 28.4723 171.606 29.2079 170.792 29.7148C169.978 30.2217 169.033 30.4774 168.075 30.45C166.2 30.45 164.625 29.7 163.5 28.275C162.375 26.85 161.775 24.825 161.775 22.275C161.775 19.725 162.375 17.625 163.5 16.2C164.7 14.85 166.275 14.1 168.225 14.1C169.107 14.0831 169.979 14.2953 170.754 14.716C171.53 15.1367 172.183 15.7514 172.65 16.5V8.25H174.45C176.4 8.25 177.375 9.15 177.375 10.95ZM194.925 14.475V28.275C194.925 30.9 194.25 33 192.825 34.425C191.325 35.85 189.375 36.525 186.75 36.525C184.425 36.525 182.85 36.3 181.95 35.7C181.2 35.1 180.75 34.425 180.75 33.525C180.75 32.4 180.975 31.575 181.5 30.975C182.7 32.1 184.275 32.55 186.15 32.55C187.575 32.55 188.55 32.325 189.3 31.725C189.975 31.2 190.275 30.225 190.275 28.875V27.375C189.727 28.2067 188.981 28.889 188.104 29.3604C187.227 29.8317 186.246 30.0773 185.25 30.075C183.45 30.075 182.1 29.55 181.125 28.425C180.15 27.3 179.7 25.65 179.7 23.475V14.475H181.575C183.45 14.475 184.425 15.375 184.425 17.175V23.025C184.425 25.05 185.175 26.1 186.75 26.1C188.4 26.1 189.525 25.425 190.35 24V14.475H194.925Z" fill="#293737"/>
</g>
<defs>
<clipPath id="clip0_181_930">
<rect width="195" height="40.5" fill="white"/>
</clipPath>
</defs>
</svg>
