<svg width="143" height="63" viewBox="0 0 143 63" fill="none" xmlns="http://www.w3.org/2000/svg">
<g clip-path="url(#clip0_181_908)">
<path d="M47.3631 22.429V20.038H20.949V29.1463H34.2699C32.9037 34.042 28.4634 36.3191 23.5677 36.3191C16.0533 36.3191 11.3854 30.171 11.3854 22.8844C11.3854 15.9393 16.281 10.0189 23.5677 10.0189C27.7803 10.0189 31.3097 12.0683 33.3591 15.7116H46.1107C43.3782 6.26178 33.4729 -0.00016689 23.7954 -0.00016689C10.8161 -0.00016689 0 9.56353 0 22.8844C0 36.0914 10.4745 46.2243 23.6815 46.2243C37.3439 46.2243 47.3631 36.0914 47.3631 22.429ZM88.2365 27.7801V0.796808H76.8511V27.7801C76.8511 31.9927 76.6234 36.2052 71.2723 36.2052C66.1489 36.2052 65.4658 31.765 65.4658 27.7801V0.796808H54.0804V27.7801C54.0804 33.3589 54.5358 37.2299 58.5207 41.4425C61.8224 44.8581 66.7181 46.2243 71.3861 46.2243C76.168 46.2243 80.4944 44.8581 83.7962 41.4425C87.6672 37.5715 88.2365 33.0173 88.2365 27.7801ZM142.203 23.1121C142.203 10.0189 131.729 -0.00016689 118.749 -0.00016689C115.633 -0.06329 112.536 0.507846 109.646 1.67854C106.757 2.84924 104.136 4.59506 101.943 6.80995C99.7492 9.02483 98.0288 11.6625 96.8861 14.5628C95.7433 17.4631 95.2021 20.5655 95.2954 23.6814C95.2954 36.433 106.111 46.2243 118.635 46.2243C131.729 46.2243 142.203 36.3191 142.203 23.1121ZM130.818 23.1121C130.818 29.9433 126.036 36.2052 118.863 36.2052C111.463 36.2052 106.567 30.0572 106.567 22.9982C106.567 16.0532 111.463 10.0189 118.749 10.0189C126.036 10.0189 130.818 16.2809 130.818 23.1121Z" fill="#064785"/>
<path d="M13.207 52.6004V49.8679H5.12341V52.6004H7.51434V62.3918H10.8161V52.6004H13.207ZM24.2508 62.3918L20.8352 58.0653C22.7707 57.7238 23.9092 56.016 23.9092 54.1943C23.9092 52.8281 23.4538 51.5757 22.4291 50.6649C21.2906 49.8679 19.9244 49.8679 18.5581 49.8679H14.5733V62.3918H17.6473V58.293L20.6075 62.3918H24.2508ZM20.949 54.3082C20.949 55.5606 20.0382 56.1298 18.7858 56.1298H17.6473V52.6004H18.7858C19.9244 52.6004 20.949 53.0558 20.949 54.3082ZM37.344 62.3918L32.3344 49.8679H29.8296L24.8201 62.3918H28.2357L28.9188 60.5701H33.2452L33.8145 62.3918H37.344ZM32.3344 57.9515H29.7158L31.082 53.7389L32.3344 57.9515ZM49.1847 62.3918V49.8679H46.1107L46.3384 57.6099L46.2245 57.7238L41.4427 49.8679H38.7102V62.3918H41.7842L41.6704 54.7636L46.4522 62.3918H49.1847ZM59.7731 58.7485C59.7731 56.8129 58.5207 55.9021 56.8129 55.1051C56.3575 54.8774 54.6497 54.3082 54.422 53.7389L54.3081 53.2835C54.3081 52.6004 54.7635 52.2588 55.3328 52.2588C56.1298 52.2588 56.3575 52.8281 56.4713 53.5112H59.6592C59.6592 52.4865 59.4315 51.8034 58.8623 51.0064C58.0653 50.0956 56.699 49.6402 55.4467 49.6402C53.2834 49.6402 51.1202 50.8926 51.1202 53.2835C51.1202 55.219 52.4865 56.1298 54.1943 56.8129L55.219 57.3822C55.9021 57.6099 56.5852 57.9515 56.5852 58.7485C56.5852 59.4316 56.0159 59.887 55.3328 59.887C54.422 59.887 54.0804 58.9762 54.0804 58.1792H50.8925V58.6346C50.8925 61.2532 52.9419 62.6195 55.4467 62.6195C57.8376 62.6195 59.7731 61.3671 59.7731 58.7485ZM70.8169 54.0805C70.8169 52.7142 70.3615 51.5757 69.3368 50.7787C68.3121 49.8679 66.832 49.8679 65.4658 49.8679H61.367V62.3918H64.4411V58.4069H65.8073C67.2874 58.4069 68.426 58.293 69.4506 57.3822C70.3615 56.5852 70.8169 55.219 70.8169 54.0805ZM67.7428 54.0805C67.7428 55.3329 66.832 55.5606 65.8073 55.5606H64.4411V52.6004H65.6935C66.7182 52.6004 67.7428 52.8281 67.7428 54.0805ZM85.2763 56.1298C85.2763 52.3727 82.3161 49.6402 78.6728 49.6402C77.8013 49.6247 76.9357 49.785 76.1276 50.1114C75.3194 50.4378 74.5853 50.9236 73.969 51.5399C73.3527 52.1562 72.8669 52.8903 72.5405 53.6985C72.2141 54.5066 72.0538 55.3722 72.0693 56.2437C72.0693 59.887 75.0295 62.6195 78.6728 62.6195C82.3161 62.6195 85.2763 59.7731 85.2763 56.1298ZM82.0884 56.1298C82.0884 58.0653 80.7221 59.7731 78.6728 59.7731C76.6234 59.7731 75.2572 58.0653 75.2572 56.016C75.2572 54.0805 76.6234 52.3727 78.6728 52.3727C80.7221 52.3727 82.0884 54.1943 82.0884 56.1298ZM96.6616 62.3918L93.3599 58.0653C95.2954 57.7238 96.4339 56.016 96.4339 54.1943C96.4339 52.8281 95.8647 51.5757 94.84 50.6649C93.8153 49.8679 92.3352 49.8679 90.9689 49.8679H87.0979V62.3918H90.172V58.293L93.0183 62.3918H96.6616ZM93.3599 54.3082C93.3599 55.5606 92.449 56.1298 91.3105 56.1298H90.172V52.6004H91.3105C92.449 52.6004 93.3599 53.0558 93.3599 54.3082ZM104.973 52.6004V49.8679H96.7755V52.6004H99.2803V62.3918H102.468V52.6004H104.973ZM124.1 57.6099H120.685C120.115 58.8623 119.091 59.7731 117.725 59.7731C115.675 59.7731 114.309 57.9515 114.309 56.016C114.309 54.0805 115.675 52.3727 117.725 52.3727C119.091 52.3727 120.229 53.2835 120.685 54.5359H124.1C123.986 53.8528 123.645 53.1696 123.189 52.4865C122.586 51.5964 121.77 50.8702 120.816 50.3734C119.862 49.8765 118.8 49.6246 117.725 49.6402C114.081 49.6402 111.121 52.3727 111.121 56.016C111.121 59.7731 114.081 62.6195 117.725 62.6195C120.799 62.6195 123.303 60.5701 124.1 57.6099ZM138.446 56.1298C138.446 52.3727 135.486 49.6402 131.842 49.6402C130.971 49.6247 130.105 49.785 129.297 50.1114C128.489 50.4378 127.755 50.9236 127.139 51.5399C126.522 52.1562 126.036 52.8903 125.71 53.6985C125.384 54.5066 125.223 55.3722 125.239 56.2437C125.239 59.887 128.313 62.6195 131.842 62.6195C135.486 62.6195 138.446 59.7731 138.446 56.1298ZM135.258 56.1298C135.258 58.0653 133.892 59.7731 131.956 59.7731C129.793 59.7731 128.427 58.0653 128.427 56.016C128.427 54.0805 129.793 52.3727 131.842 52.3727C133.892 52.3727 135.258 54.1943 135.258 56.1298ZM143 62.3918V59.4316H140.04V62.3918H143Z" fill="#0C809B"/>
</g>
<defs>
<clipPath id="clip0_181_908">
<rect width="143" height="62.6194" fill="white"/>
</clipPath>
</defs>
</svg>
