<svg width="1440" height="832" viewBox="0 0 1440 832" fill="none" xmlns="http://www.w3.org/2000/svg">
<rect width="1440" height="832" fill="#292D33"/>
<path d="M720 730C546.854 730 406 589.146 406 416C406 242.854 546.854 102 720 102C893.146 102 1034 242.854 1034 416C1034 589.146 893.146 730 720 730ZM720 105.894C549.038 105.894 409.894 244.991 409.894 416C409.894 586.962 548.991 726.106 720 726.106C891.009 726.106 1030.11 587.009 1030.11 416C1030.06 244.991 890.962 105.894 720 105.894Z" fill="white" fill-opacity="0.01"/>
<path d="M720 699.702C563.57 699.702 436.298 572.43 436.298 416C436.298 259.57 563.57 132.298 720 132.298C876.43 132.298 1003.7 259.57 1003.7 416C1003.7 572.43 876.43 699.702 720 699.702ZM720 140.134C567.891 140.134 444.134 263.891 444.134 416C444.134 568.109 567.891 691.866 720 691.866C872.109 691.866 995.866 568.109 995.866 416C995.818 263.891 872.109 140.134 720 140.134Z" fill="white" fill-opacity="0.01"/>
<path d="M720 620.869C607.023 620.869 515.083 528.93 515.083 415.952C515.083 302.975 607.023 211.036 720 211.036C832.977 211.036 924.917 302.975 924.917 415.952C924.917 528.977 832.977 620.869 720 620.869ZM720 218.919C611.344 218.919 522.966 307.297 522.966 415.952C522.966 524.608 611.344 612.986 720 612.986C828.656 612.986 917.034 524.608 917.034 415.952C917.034 307.344 828.656 218.919 720 218.919Z" fill="white" fill-opacity="0.01"/>
<path d="M720 585.68C626.446 585.68 550.32 509.554 550.32 416C550.32 322.446 626.446 246.273 720 246.273C813.554 246.273 889.727 322.398 889.727 416C889.68 509.554 813.554 585.68 720 585.68ZM720 250.214C628.583 250.214 554.215 324.583 554.215 416C554.215 507.417 628.583 581.786 720 581.786C811.417 581.786 885.786 507.417 885.786 416C885.786 324.583 811.417 250.214 720 250.214Z" fill="white" fill-opacity="0.01"/>
<path d="M720 521.521C661.778 521.521 614.431 474.174 614.431 415.952C614.431 357.73 661.778 310.384 720 310.384C778.222 310.384 825.569 357.73 825.569 415.952C825.569 474.174 778.175 521.521 720 521.521ZM720 318.267C666.147 318.267 622.314 362.099 622.314 415.952C622.314 469.805 666.147 513.638 720 513.638C773.853 513.638 817.686 469.805 817.686 415.952C817.686 362.099 773.853 318.267 720 318.267Z" fill="white" fill-opacity="0.01"/>
<path d="M720 468.428C691.079 468.428 667.524 444.874 667.524 415.952C667.524 387.031 691.079 363.477 720 363.477C748.921 363.477 772.476 387.031 772.476 415.952C772.428 444.921 748.921 468.428 720 468.428ZM720 367.466C693.216 367.466 671.466 389.263 671.466 416C671.466 442.784 693.216 464.534 720 464.534C746.784 464.534 768.534 442.784 768.534 416C768.534 389.216 746.736 367.466 720 367.466Z" fill="white" fill-opacity="0.01"/>
<path d="M1056.5 290C1069.48 290 1080 279.479 1080 266.5C1080 253.521 1069.48 243 1056.5 243C1043.52 243 1033 253.521 1033 266.5C1033 279.479 1043.52 290 1056.5 290Z" fill="url(#paint0_linear_234_5)"/>
<path d="M671.5 673C684.479 673 695 662.479 695 649.5C695 636.521 684.479 626 671.5 626C658.521 626 648 636.521 648 649.5C648 662.479 658.521 673 671.5 673Z" fill="url(#paint1_linear_234_5)"/>
<path d="M1149.5 532C1158.61 532 1166 524.613 1166 515.5C1166 506.387 1158.61 499 1149.5 499C1140.39 499 1133 506.387 1133 515.5C1133 524.613 1140.39 532 1149.5 532Z" fill="url(#paint2_linear_234_5)"/>
<circle cx="1453" cy="691" r="218" fill="url(#paint3_linear_234_5)"/>
<path d="M607.002 108.079C607.041 97.6196 598.593 89.1089 588.133 89.0702C577.673 89.0314 569.163 97.4793 569.124 107.939C569.085 118.399 577.533 126.909 587.993 126.948C598.452 126.987 606.963 118.539 607.002 108.079Z" stroke="#F8F0E4" stroke-opacity="0.43" stroke-width="0.4" stroke-miterlimit="10"/>
<path d="M1380.67 239L1353 266.658" stroke="#F8F0E4" stroke-opacity="0.27" stroke-miterlimit="10"/>
<path d="M1380.67 266.658L1353 239" stroke="#F8F0E4" stroke-opacity="0.27" stroke-miterlimit="10"/>
<path d="M1380.67 276.603L1353 304.27" stroke="#F8F0E4" stroke-opacity="0.27" stroke-miterlimit="10"/>
<path d="M1380.67 304.27L1353 276.603" stroke="#F8F0E4" stroke-opacity="0.27" stroke-miterlimit="10"/>
<path d="M1380.67 314.206L1353 341.874" stroke="#F8F0E4" stroke-opacity="0.27" stroke-miterlimit="10"/>
<path d="M1380.67 341.874L1353 314.206" stroke="#F8F0E4" stroke-opacity="0.27" stroke-miterlimit="10"/>
<defs>
<linearGradient id="paint0_linear_234_5" x1="1033" y1="266.499" x2="1080" y2="266.499" gradientUnits="userSpaceOnUse">
<stop stop-color="#263238"/>
<stop offset="1" stop-color="#3D3D3D"/>
</linearGradient>
<linearGradient id="paint1_linear_234_5" x1="648" y1="649.499" x2="695.001" y2="649.499" gradientUnits="userSpaceOnUse">
<stop stop-color="#263238"/>
<stop offset="1" stop-color="#3D3D3D"/>
</linearGradient>
<linearGradient id="paint2_linear_234_5" x1="1133" y1="515.499" x2="1166" y2="515.499" gradientUnits="userSpaceOnUse">
<stop stop-color="#263238"/>
<stop offset="1" stop-color="#3D3D3D"/>
</linearGradient>
<linearGradient id="paint3_linear_234_5" x1="1487.5" y1="622.5" x2="858" y2="1276" gradientUnits="userSpaceOnUse">
<stop stop-color="white" stop-opacity="0.03"/>
<stop offset="0.43" stop-color="white" stop-opacity="0"/>
<stop offset="1" stop-color="white" stop-opacity="0"/>
</linearGradient>
</defs>
</svg>
