<svg width="49" height="48" viewBox="0 0 49 48" fill="none" xmlns="http://www.w3.org/2000/svg">
<g clip-path="url(#clip0_711_2917)">
<path d="M0.555664 0H48.5557V48H0.555664V0Z" fill="#040A0F"/>
<path d="M21.8918 21.166V26.645H20.3933V23.5719L19.3923 25.0528H18.6079L17.5075 23.5719V26.645H16.1377V21.166H17.5192L19.0996 23.3143L20.5162 21.166H21.8918ZM22.325 22.407V21.166H27.4411V22.407H25.6499V26.645H24.1221V22.407H22.325ZM33.0782 21.166V26.645H31.8196L29.244 23.5133V26.645H27.8743V21.166H29.2382L31.7026 24.1865V21.166H33.0782Z" fill="white"/>
<path d="M24.5558 32.3704C20.1304 32.3704 15.9568 31.545 12.8075 30.0406C9.5119 28.466 7.69727 26.3235 7.69727 23.9996C7.69727 21.6757 9.5119 19.5333 12.8075 17.9587C15.9568 16.4543 20.1304 15.6289 24.5558 15.6289C28.9812 15.6289 33.1548 16.4543 36.3041 17.9587C39.5997 19.5333 41.4143 21.6757 41.4143 23.9996C41.4143 26.3235 39.5997 28.466 36.3041 30.0406C33.1548 31.545 28.9812 32.3704 24.5558 32.3704ZM24.5558 16.864C20.306 16.864 16.3256 17.6484 13.3402 19.0767C10.5012 20.4348 8.93239 22.185 8.93239 24.0055C8.93239 25.826 10.4953 27.5762 13.3402 28.9284C16.3256 30.3567 20.3119 31.1411 24.5558 31.1411C28.7997 31.1411 32.786 30.3567 35.7714 28.9284C38.6104 27.5762 40.1792 25.8201 40.1792 24.0055C40.1792 22.1909 38.6163 20.4348 35.7714 19.0826C32.786 17.6484 28.8056 16.864 24.5558 16.864Z" fill="white"/>
</g>
<defs>
<clipPath id="clip0_711_2917">
<rect width="48" height="48" fill="white" transform="translate(0.555664)"/>
</clipPath>
</defs>
</svg>
