<svg width="49" height="49" viewBox="0 0 49 49" fill="none" xmlns="http://www.w3.org/2000/svg">
<circle cx="24.5" cy="24.5" r="24" stroke="#616161"/>
<path d="M30.6667 25.6666H18.6667C18.2933 25.6666 18 25.3733 18 24.9999C18 24.6266 18.2933 24.3333 18.6667 24.3333H30.6667C31.04 24.3333 31.3333 24.6266 31.3333 24.9999C31.3333 25.3733 31.04 25.6666 30.6667 25.6666Z" fill="#616161"/>
<path d="M27.3333 30.3335C27.2459 30.3345 27.1592 30.3173 27.0788 30.2828C26.9984 30.2484 26.9262 30.1975 26.8666 30.1335C26.6 29.8668 26.6 29.4535 26.8666 29.1868L31.0666 24.9868L26.8666 20.7868C26.6 20.5201 26.6 20.1068 26.8666 19.8401C27.1333 19.5735 27.5466 19.5735 27.8133 19.8401L32.48 24.5068C32.7466 24.7735 32.7466 25.1868 32.48 25.4535L27.8133 30.1201C27.68 30.2535 27.5066 30.3201 27.3466 30.3201L27.3333 30.3335Z" fill="#616161"/>
</svg>
