<svg width="101" height="84" viewBox="0 0 101 84" fill="none" xmlns="http://www.w3.org/2000/svg">
<g clip-path="url(#clip0_181_885)">
<mask id="mask0_181_885" style="mask-type:luminance" maskUnits="userSpaceOnUse" x="0" y="0" width="101" height="84">
<path d="M0 0H101V83.5343H0V0Z" fill="white"/>
</mask>
<g mask="url(#mask0_181_885)">
<path d="M81.3102 7.7841C58.2189 7.98034 34.6043 -7.13041 12.1671 4.25171C6.54145 7.06454 0 13.3443 0 20.1474V83.5341C18.3161 69.8625 37.7442 66.9188 56.9106 66.7226C65.2837 66.6572 73.6567 66.1992 81.7681 63.8443C88.3096 61.9473 95.636 58.742 101 54.6209V2.68176C93.2811 8.11117 90.7953 7.71868 81.3102 7.7841Z" fill="white"/>
<path d="M99.3647 5.36401C93.5428 8.96181 90.3375 9.02722 83.2727 9.02722H81.3757C72.6755 9.15805 63.91 7.06479 55.4061 5.10235C40.557 1.63538 26.5583 -1.56993 12.8867 5.2986C7.32644 8.11142 1.63538 13.9987 1.63538 19.7552V80.329L3.92488 78.8245V22.0447C3.92488 16.2228 9.55053 10.3355 15.1108 7.5881C28.8478 0.654165 42.8465 3.92489 57.6302 7.32645C66.1341 9.28888 73.1989 11.9709 81.8336 11.9055C81.8336 11.9055 95.5052 12.3634 99.3647 5.36401Z" fill="#BBE2F1"/>
<path d="M82.9456 60.5738C75.6846 62.6017 68.6852 63.9099 55.3407 62.7325C37.875 61.2279 11.513 61.7513 1.63538 80.329C20.9327 68.0965 41.0149 65.6761 56.7798 65.5453C64.2371 65.4799 73.0026 65.0874 81.3757 62.7325C86.0201 61.4242 96.9443 57.6956 99.2338 53.9015C95.3744 55.7331 87.9171 59.1347 82.9456 60.5738ZM90.1412 22.3717C88.2442 22.3717 87.59 21.1289 87.59 19.7551C87.59 18.4469 88.2442 17.204 90.1412 17.204C92.0382 17.204 92.627 18.4469 92.627 19.8206C92.627 21.1289 92.0382 22.3717 90.1412 22.3717ZM90.1412 17.6619C88.5713 17.6619 88.0479 18.5777 88.0479 19.8206C88.0479 20.998 88.5713 21.9792 90.1412 21.9792C91.7111 21.9792 92.1691 20.998 92.1691 19.8206C92.1691 18.5777 91.7111 17.6619 90.1412 17.6619ZM90.6645 21.3251L90.0758 20.213H89.7487V21.3251H88.9637V18.316H90.272C91.1878 18.316 91.3841 18.8393 91.3841 19.2972C91.3841 19.7551 91.1224 20.0168 90.7299 20.1476L91.4495 21.3251H90.6645ZM90.2066 18.9702H89.7487V19.6897H90.2066C90.5991 19.6897 90.5991 19.4935 90.5991 19.2972C90.5991 19.101 90.5337 18.9702 90.2066 18.9702ZM75.4229 41.0803C75.75 40.884 76.1425 40.8186 76.535 40.7532L77.5816 40.4915C78.8245 39.1178 80.3944 38.0058 81.6373 37.8096H81.7027C81.8336 37.5479 81.8336 37.3516 81.8336 37.2208L81.7681 36.8937C81.4411 36.6321 81.0486 36.5667 80.4599 36.6321C78.6937 36.9592 76.3387 39.1178 75.0959 41.0149V41.4073L75.4229 41.0803Z" fill="#AE9A63"/>
<path d="M88.5058 50.1075C87.5246 50.5654 86.2817 50.1729 85.5622 49.3879C84.6464 48.3413 83.8614 47.1638 83.2726 45.9209C82.8802 45.2014 82.5531 44.4164 82.0298 43.7623C81.5065 43.1735 80.5907 42.1923 79.7403 42.3232C86.6088 41.2765 88.5712 33.7539 82.8147 33.2305C78.9553 32.838 75.75 35.9779 74.3109 38.6599V27.932C74.3109 25.7079 74.0492 20.213 76.6658 19.2972C79.544 18.3814 77.9741 22.1101 81.114 22.3063C82.4223 22.3717 83.5997 21.3905 83.8614 20.2785C84.1884 18.9048 83.0764 17.5311 81.8989 16.8769C78.4974 15.1761 68.4236 19.1664 68.4236 32.2493V46.7713C67.9657 47.2947 67.5078 47.6871 66.9844 48.0796C64.3024 49.8458 63.9754 46.9676 63.9754 46.9676V36.5667C63.9754 36.5667 63.8445 34.2118 64.8258 33.8193H61.0317C59.2655 33.8193 59.3964 35.0621 59.3964 35.0621V35.7817C58.8076 34.6697 57.4993 33.9501 55.9294 33.8847C51.2195 33.6884 48.3413 38.202 48.1451 42.3232C48.0796 43.5006 48.2105 44.7435 48.4721 45.9209C48.2105 46.248 48.0142 46.5751 47.6872 46.8368C45.3977 49.0608 42.0615 50.2383 38.987 49.5187L38.0712 49.2571C35.5201 48.3413 34.3426 45.6593 34.408 42.9773C34.4734 40.4261 35.8471 37.1554 38.3329 36.2396C38.8562 36.1088 39.3795 35.9779 39.9028 36.0434C40.1645 36.1088 40.4916 36.1742 40.6878 36.3704C40.9495 36.5013 41.1457 36.8937 41.2765 37.1554C41.8653 38.9216 40.6878 43.1735 34.8005 44.0893C34.8005 44.0893 36.4359 45.8555 40.2299 44.8743C41.669 44.4818 42.9773 43.9585 44.0894 42.8465C44.7435 42.1269 45.2014 41.3419 45.5285 40.3607C45.7901 39.4449 45.7901 38.3329 45.5285 37.3516C45.2014 36.1742 44.351 35.1276 43.3698 34.5388C42.454 34.0155 41.4728 33.7538 40.4261 33.5576C36.1088 32.9035 29.9598 35.8471 29.5673 42.5848C29.2403 48.8646 33.3614 52.6586 39.772 52.6586C44.2202 52.6586 47.1638 49.9766 48.9954 47.6871C49.7804 49.8458 51.285 51.612 53.509 52.1353C57.8918 53.2474 59.4618 48.4067 59.4618 48.4067C59.4618 48.4067 59.3964 50.5654 60.5084 51.612C61.4242 52.4624 62.6671 52.397 63.7791 52.0699C65.4799 51.4812 67.0499 50.2383 68.4236 48.7992V50.1075C68.4236 50.1075 68.489 51.2849 67.5078 52.2007H72.9372C72.9372 52.2007 74.3109 52.1353 74.3109 50.4346V40.8186C75.9462 38.2675 79.8711 34.8005 81.9644 36.4358C81.9644 36.4358 82.8147 37.2208 81.6373 38.7254C81.1794 39.1833 80.6561 39.6412 80.1328 39.9682C79.3478 40.4261 78.5628 40.7532 77.7124 41.0803L76.535 41.3419C76.1425 41.4073 75.8154 41.4728 75.5537 41.669C75.3575 41.7998 75.1613 41.9307 75.0958 42.1269C74.8996 42.3886 74.8342 42.7156 74.7688 43.0427C74.7688 43.0427 75.2921 42.7811 76.0116 42.9119C76.9929 43.1081 77.5162 43.7623 77.9087 44.6127L79.1515 47.2947L80.1328 49.1263C80.9831 50.6962 82.2914 52.0699 84.123 52.3316C85.5622 52.5278 87.0013 52.3316 88.0479 51.2195C88.3096 50.8925 88.5058 50.5 88.5058 50.1075ZM59.3964 42.9119C59.3964 49.3879 56.0602 48.7992 56.0602 48.7992C54.2286 48.7992 52.3316 45.9209 52.3316 42.6502C52.3316 39.3141 53.9669 36.7629 56.0602 36.6321C57.5647 36.5013 59.2655 37.7441 59.3964 39.9682V42.9119Z" fill="#20307F"/>
<path d="M45.2668 18.2506C44.2202 14.1949 40.3607 11.1205 36.5667 9.61593C33.0692 8.26415 29.2669 7.90203 25.577 8.5693C20.2808 9.52204 15.4244 12.1335 11.7092 16.0266C10.8588 16.9424 10.0738 18.1852 9.48508 19.3627C7.84972 22.7642 8.50386 27.3433 12.1017 29.1749C12.7558 29.5019 13.6062 29.6328 14.3258 29.6328C17.2694 29.7636 20.5401 27.2124 19.2318 24.0071C17.6619 26.4275 15.5032 25.3808 15.5032 25.3808C13.8679 24.5959 13.5408 22.6988 13.9987 21.1289C14.4566 19.2973 15.634 17.6619 16.9423 16.3536C19.886 13.5408 23.8109 11.9709 27.8011 11.5129C31.8568 11.055 36.5013 12.4942 38.7908 16.1574C40.6224 19.1664 40.0991 22.9605 37.9404 25.6425C35.7163 28.3245 30.941 28.6516 28.8478 25.5117C28.1331 24.5049 27.8077 23.2731 27.932 22.0447C28.1936 20.1477 29.4365 18.3815 31.4644 18.1852C31.2681 17.6619 30.8102 16.5499 28.3899 16.9424C28.3899 16.9424 20.9326 18.1198 20.9326 28.8478V42.3232C20.9326 44.5473 21.1943 49.9113 18.5123 50.8271C15.6995 51.8083 17.2694 47.9488 14.0641 47.818C12.7558 47.7526 11.6438 48.6684 11.3821 49.8459C11.055 51.285 12.1017 52.5933 13.3445 53.2474C16.6807 54.9482 27.147 51.6775 27.147 43.239V28.5207C29.9598 31.2027 33.8847 31.8569 37.5479 30.8102C38.5291 30.5486 39.4449 30.0253 40.2953 29.5674C43.0427 27.932 44.9397 25.1192 45.4631 22.0447C45.6593 20.8018 45.5285 19.4281 45.2668 18.2506Z" fill="#20307F"/>
<path d="M84.8426 20.4093C84.7187 20.9514 84.4708 21.4573 84.1184 21.8874C83.7661 22.3175 83.3188 22.6601 82.8117 22.8883C82.3047 23.1165 81.7516 23.224 81.196 23.2025C80.6404 23.181 80.0973 23.031 79.6095 22.7642C80.0019 23.4838 80.7869 24.2033 82.2915 24.3342C83.9922 24.3996 85.5622 23.2221 85.9547 21.5868C86.3471 19.886 85.3659 18.4469 84.1231 17.5311C84.7118 18.3815 85.0389 19.3627 84.8426 20.4093ZM55.6023 47.6872C54.9482 46.7059 54.4249 45.3322 54.4249 43.7623C54.4249 40.7532 55.9294 38.7908 57.3031 38.66C57.6302 38.5945 57.9573 38.7254 58.2843 38.8562C58.0881 38.5291 57.8918 38.2021 57.6302 38.0058C57.2377 37.6133 56.649 37.4171 56.1911 37.4825C54.7519 37.5479 53.3128 39.5758 53.3128 42.5848C53.3128 45.0706 54.4903 47.0984 55.6023 47.6872ZM66.1995 35.7817V47.4255C65.807 47.6217 65.5453 47.6872 65.4145 47.6217C65.2183 47.4909 65.022 47.033 65.022 46.7059V35.6509C65.022 35.6509 65.022 34.0155 65.8724 33.8193H67.1153C67.1153 33.8193 66.1995 34.2772 66.1995 35.7817ZM76.4696 34.5388V28.9786V27.6703C76.4696 25.5116 76.6004 21.8484 78.2357 21.2597H78.3012L78.0395 20.671C77.7124 19.886 77.7124 19.886 77.0583 20.1476C75.4229 20.671 75.2921 24.3342 75.2921 26.4929V35.7163L76.4696 34.5388ZM87.1975 36.1742V36.305C87.1975 38.66 85.3005 41.1457 82.226 42.454L82.8148 43.1081L84.1885 45.3976C84.7772 46.7059 85.4968 47.7526 86.3471 48.6684L86.8705 49.0609C86.3471 48.3413 85.7584 47.5563 85.3005 46.5751L83.9922 44.2856L83.3381 43.6315C86.478 42.3232 88.375 39.772 88.375 37.4825V37.3517C88.3096 36.1742 87.7863 34.9967 86.6088 34.2118C87.0013 34.8005 87.1975 35.5201 87.1975 36.1742ZM68.8161 54.2286H74.18C75.1613 54.1632 76.4696 53.3782 76.4696 51.4812V44.8743H77.1237C76.7312 44.0894 76.4041 43.7623 75.9462 43.6969L75.2921 43.7623V50.3037C75.2921 52.2662 73.9838 52.9857 73.068 53.0511H67.5078C67.5078 53.0511 68.3582 54.1632 68.8161 54.2286ZM47.2947 42.454C46.9676 43.239 46.5097 43.9585 45.9864 44.5473C44.6781 45.921 43.0427 46.4443 41.7345 46.8368C39.5758 47.3601 38.0712 47.0984 37.0246 46.7059L37.6788 47.8834C36.8284 47.3601 36.2396 46.5097 35.8472 45.5285C36.8938 45.921 38.3983 46.1826 40.557 45.6593C41.9307 45.2668 43.5006 44.7435 44.8089 43.4352C45.5939 42.6502 46.1172 41.7344 46.5097 40.557C46.8368 39.4449 46.8368 38.2021 46.5097 37.0246C46.3789 36.3704 46.0518 35.7817 45.6593 35.193C46.2933 35.6756 46.8189 36.286 47.202 36.9847C47.5851 37.6833 47.8173 38.4546 47.8834 39.2487C47.8834 39.1833 48.0142 40.884 47.2947 42.454ZM59.9197 52.2008C59.5926 51.8083 59.331 51.3504 59.1347 50.8925C57.9573 52.397 56.0602 53.6399 53.3782 52.9857C52.4624 52.7241 51.612 52.2662 50.8925 51.6774C51.8737 52.9203 53.1166 53.7707 54.5557 54.0978C57.0415 54.7519 58.8731 53.6399 60.0505 52.2662L59.9197 52.2008ZM90.272 50.4346C90.0104 50.2383 89.7487 50.2383 89.487 50.3037C89.3562 50.9579 89.0291 51.4812 88.8329 51.6774C87.7209 52.9203 86.0855 53.3782 84.0576 53.1166C83.0764 52.9857 82.226 52.5932 81.4411 52.0045C82.4877 53.3128 83.796 54.0978 85.2351 54.294C87.2629 54.5557 88.8983 54.0978 89.9449 52.8549C90.272 52.5932 90.6645 51.9391 90.6645 51.2195C90.6645 50.8925 90.5337 50.5654 90.272 50.4346ZM66.7882 52.4624L66.7228 52.1353C66.7228 51.8737 66.8536 51.612 66.9845 51.4812L67.2461 51.0233C66.1995 51.8083 65.2183 52.4624 64.1716 52.8549C62.7979 53.3128 61.555 53.182 60.5738 52.5932L61.0971 53.3128C62.1438 54.294 63.6483 54.5557 65.3491 53.9669C66.0032 53.7707 66.6574 53.3782 67.3115 52.9857C67.1153 52.8549 66.8536 52.7241 66.7882 52.4624ZM48.7992 49.1917C46.2481 52.0045 43.239 53.509 39.8374 53.509C36.6975 53.509 34.081 52.6587 32.1839 51.0233L32.511 51.4158C34.4734 53.509 37.4171 54.6211 41.0149 54.6211C44.2856 54.6211 47.2293 53.182 49.715 50.5654L48.7992 49.1917ZM39.9029 38.2021C38.3329 38.7908 37.2863 40.557 36.8284 42.454L35.4547 42.8465C35.5201 40.557 36.763 37.7442 38.7254 37.0246C39.1179 36.8938 39.5104 36.8283 39.8374 36.8938L40.1645 36.9592C40.1645 36.9592 41.342 37.7442 39.9029 38.2021ZM27.9974 12.3633C23.8763 12.8866 20.2131 14.522 17.6619 17.0078C16.6807 17.9236 15.4378 19.4935 14.9145 21.3251C14.6529 22.4372 14.7837 23.9417 15.9611 24.465L16.1574 24.5958C15.9611 23.9417 15.8957 23.1567 16.092 22.4372C16.6153 20.6055 17.8582 19.101 18.8394 18.1198C21.3905 15.634 25.0538 13.9987 29.1749 13.5408C31.8569 13.2791 35.0622 13.8679 37.4171 15.6995C35.1276 12.9521 31.1373 12.0362 27.9974 12.3633ZM19.7552 29.829C19.252 30.4607 18.6006 30.9584 17.8588 31.2779C17.1171 31.5974 16.308 31.7289 15.5032 31.6606C15.0453 31.6606 13.9333 31.5952 12.9521 31.1373C11.9054 30.614 11.1205 29.9598 10.5317 29.1094L11.7746 29.9598C12.7558 30.4177 13.9333 30.5486 14.3258 30.5486C16.092 30.614 18.1852 29.8944 19.2319 28.3899C19.9514 27.4087 20.4093 25.8387 19.8206 24.3342C19.8206 24.3342 21.8484 27.0162 19.7552 29.829ZM18.1852 49.8458C17.9236 49.3225 17.5311 48.7338 16.8769 48.4067L17.3348 49.2571C17.6619 50.0421 17.6619 50.0421 18.1852 49.8458Z" fill="#AE9A63"/>
<path d="M47.36 19.101C46.7713 16.7461 45.3322 14.7183 43.566 13.1483C44.7435 14.522 45.7247 16.092 46.1826 17.9236C46.765 20.2874 46.5557 22.777 45.5868 25.0104C44.6178 27.2437 42.9427 29.0974 40.8186 30.2869C40.099 30.6794 39.0524 31.2681 37.8749 31.5952C34.408 32.5764 30.8756 32.1185 28.1282 30.3523V43.1736C28.1282 46.9676 26.1657 50.3038 22.5679 52.4624C19.2318 54.4903 15.1107 55.1444 12.8866 53.967L12.2979 53.5745C12.7558 54.2286 13.4099 54.8174 14.064 55.1444C16.2881 56.3219 20.4093 55.6677 23.68 53.6399C27.2778 51.4812 29.3056 48.1451 29.3056 44.351V31.5298C31.2144 32.7094 33.4164 33.3287 35.6602 33.3171C37.9041 33.3056 40.0995 32.6636 41.996 31.4644C45.0051 29.6328 47.033 26.6891 47.5563 23.2876C47.7525 21.9793 47.6871 20.4747 47.36 19.101ZM30.8102 26.035C30.2214 25.1192 29.9598 24.138 30.0906 23.2876C30.2214 21.8484 31.1372 20.3439 32.7726 20.1477C33.0343 20.1477 33.2959 20.0168 33.4267 19.7552C33.5576 19.4935 33.623 19.1664 33.4922 18.9048C33.2305 18.1852 32.7726 17.6619 32.1184 17.4003L32.3801 17.7927C32.5109 18.0544 32.4455 18.3161 32.3147 18.5777C32.1839 18.8394 31.8568 18.9702 31.5951 19.0356C29.9598 19.1664 29.1094 20.671 28.9131 22.1101C28.8594 22.873 29.0063 23.6366 29.3391 24.3251C29.6719 25.0137 30.179 25.6031 30.8102 26.035Z" fill="#AE9A63"/>
<path d="M54.4248 48.6684C52.9857 47.5563 51.8737 45.2014 51.8737 42.6503C51.8737 39.1179 53.6399 36.3705 56.0602 36.1742C56.5835 36.1088 57.2377 36.2396 57.761 36.5013C57.1068 36.0434 56.3219 35.7817 55.5369 35.8471C53.182 36.0434 51.3504 38.7908 51.3504 42.3232C51.3504 45.2014 52.7241 47.7526 54.4248 48.6684ZM63.0595 46.6405V36.2396V35.9126C63.0595 35.5201 63.125 34.8659 63.3212 34.2772H63.9754C63.6483 34.9968 63.5829 35.7817 63.5829 36.2396V46.9676C63.5829 46.9676 63.7137 48.3413 64.5641 48.7338C64.5641 48.7338 63.0595 48.93 63.0595 46.6405ZM40.7532 35.9126C39.9028 35.4547 38.8562 35.5855 38.2674 35.8471C35.5855 36.7629 34.0809 40.2299 34.0155 42.9773C33.9501 45.136 34.6696 47.6872 36.6975 48.9955C34.2772 47.7526 33.4922 45.0052 33.4922 42.7157C33.623 39.9028 35.1276 36.5013 37.7441 35.5201C38.3983 35.3238 38.987 35.193 39.5103 35.3238C39.5103 35.2584 40.1645 35.3892 40.7532 35.9126ZM82.9456 19.886C82.6839 20.7364 81.8335 21.6522 80.6561 21.5868L80.0019 21.456C80.2636 21.6522 80.5906 21.8484 81.1794 21.8484C82.2914 21.9139 83.2072 21.0635 83.4035 20.2131C83.6651 19.0356 82.7493 17.8582 81.7027 17.3348C82.4877 17.9236 83.1418 18.9048 82.9456 19.886ZM79.6748 41.8653C83.5343 41.2766 85.8238 38.5291 85.7584 36.305C85.7584 35.2584 85.2351 34.5389 84.3193 34.081C84.908 34.5389 85.2351 35.193 85.3005 35.978C85.3005 38.2021 83.011 41.0149 79.1515 41.5382C79.1515 41.5382 78.6936 41.8653 79.6748 41.8653ZM73.395 39.1833V27.0162C73.395 24.3996 73.3296 19.4935 76.077 18.5777C77.0583 18.2506 77.647 18.4469 78.0395 18.8394C77.7124 18.7085 77.2545 18.7085 76.6004 18.9048C73.7875 19.8206 73.8529 24.7267 73.9184 27.3433V38.5291L73.395 39.1833ZM85.693 50.1075L85.3005 49.715C84.3847 48.7338 83.5343 47.4909 82.8801 46.1172L81.7027 44.0894C81.3102 43.6315 80.7869 43.1082 80.2636 42.8465L81.1794 43.7623L82.3568 45.8556C83.011 47.2293 83.8614 48.4067 84.7118 49.388C85.0388 49.715 85.3659 49.9113 85.693 50.1075ZM58.5459 35.6509C58.6114 35.8471 58.8076 35.9126 59.0038 35.9126C58.6768 35.3892 58.2189 34.9968 57.6301 34.7351C58.0226 34.9968 58.3497 35.3238 58.5459 35.6509ZM74.3108 39.1179L73.4605 40.2299L73.395 40.4262V50.0421C73.395 51.285 72.6101 51.4158 72.4792 51.4158H68.5544L68.4235 51.7429H73.0026C73.1334 51.7429 73.9184 51.612 73.9184 50.3692V40.7532L73.9838 40.4916C75.1612 38.7254 77.8432 35.978 80.1982 35.5855C80.7869 35.4547 81.3756 35.5201 81.8335 35.7163C81.2448 35.2584 80.5252 35.1276 79.6748 35.2584C78.2357 35.5201 76.6658 36.6321 75.4229 37.875L74.3108 39.1179Z" fill="#0069B4"/>
<path d="M44.6781 37.1554C44.9398 38.1367 44.8744 39.1179 44.6127 39.9028C44.351 40.8186 43.8931 41.6036 43.3044 42.1924C42.1924 43.3044 40.8187 43.7623 39.6412 44.0894C38.1367 44.4819 36.9592 44.4164 36.1742 44.2202L35.978 44.2856C36.763 44.6127 38.0712 44.9398 40.1645 44.4164C41.342 44.0894 42.7157 43.6315 43.7623 42.5194C44.4165 41.9307 44.8089 41.1457 45.136 40.2299C45.3977 39.4449 45.3977 38.3983 45.136 37.4825C44.8744 36.5013 44.0894 35.5201 43.239 34.9968L42.9773 34.8659C43.7623 35.4547 44.4165 36.305 44.6781 37.1554ZM83.6652 51.5466L82.6839 51.2196C83.1418 51.5466 83.6652 51.7429 84.1885 51.8083C85.8238 52.0699 86.9359 51.7429 87.7209 50.8925L87.7863 50.7617L87.0667 50.6962C86.2817 51.4158 85.1697 51.7429 83.6652 51.5466ZM48.9955 47.1639C48.9301 47.033 48.7338 46.9022 48.603 46.9022L48.1451 47.033L48.0797 47.1639C45.5939 50.3037 42.6503 51.8737 39.3141 51.8737C37.09 51.8737 35.1276 51.4158 33.6231 50.5C35.2584 51.612 37.3517 52.2008 39.8374 52.2008C43.1736 52.2008 46.1826 50.5654 48.6684 47.3601L48.9955 47.2293V47.1639ZM68.3582 48.3413C68.3582 48.2105 68.2273 48.0797 68.1619 48.0797C67.9657 48.0142 67.7694 48.0142 67.6386 48.2105C66.1995 49.715 64.695 50.7617 63.1904 51.285C62.6671 51.4812 61.8167 51.6775 61.0317 51.3504C61.8821 52.0699 63.0596 51.8083 63.7137 51.612C65.2183 51.0887 66.6574 50.0421 68.1619 48.4721L68.3582 48.3413ZM59.3964 47.9488C59.2655 48.0142 59.1347 48.0797 59.0693 48.2759C58.9385 48.6684 57.4339 52.5933 53.6399 51.6775C52.9858 51.5466 52.4624 51.285 51.9391 50.8925C52.3316 51.0887 52.7241 51.285 53.182 51.3504C56.4527 52.2008 58.0227 49.2571 58.4152 48.2105C58.4806 48.2105 58.8731 47.3601 59.3964 47.9488ZM27.2779 10.7934C22.8297 11.3167 18.9048 13.0829 16.1574 15.7649C14.5874 17.3348 13.5408 19.0356 13.0175 20.7364C12.5596 22.4372 12.9521 24.6613 14.7837 25.5771V25.5117H14.7183C13.41 24.465 13.1483 22.568 13.5408 21.0635C13.9987 19.3627 15.1108 17.6619 16.6807 16.092C19.4281 13.41 23.353 11.6438 27.8012 11.1205C30.2215 10.8588 33.0343 11.2513 35.4547 12.4942C32.9689 10.9896 29.8944 10.5317 27.2779 10.7934ZM30.8102 17.9236C28.8478 18.4469 27.7358 20.2785 27.5395 22.0447L27.4741 22.6334C27.5039 23.57 27.7569 24.486 28.212 25.3052C28.6671 26.1244 29.3112 26.8231 30.0907 27.3433C29.2403 26.9508 28.5207 26.362 27.9974 25.5117C27.3435 24.5681 26.9797 23.454 26.9508 22.3063L27.0162 21.783C27.2124 20.0168 28.5207 18.0544 30.5486 17.5311C30.5486 17.5311 31.0719 17.7927 30.8102 17.9236ZM44.8089 18.3815C44.0894 15.2416 41.4728 12.7558 38.7254 11.1859C41.2766 12.7558 43.6315 15.1107 44.351 18.0544C44.6127 19.2319 44.6781 20.5401 44.5473 21.6522C44.0894 24.6613 42.2578 27.2778 39.5758 28.9132C38.0396 29.8987 36.2749 30.4707 34.4527 30.5739C32.6304 30.677 30.8125 30.3078 29.1749 29.5019C31.5298 30.8756 34.4734 31.2681 37.4825 30.3523C38.5291 30.0907 39.445 29.5674 40.0991 29.1749C42.7811 27.6049 44.5473 24.9883 45.0052 21.9793C45.2014 20.8672 45.136 19.4935 44.8089 18.3815ZM27.0162 27.932C26.8854 27.8012 26.6891 27.7357 26.4929 27.8666C26.2966 27.932 26.2312 28.0628 26.2312 28.2591V42.9773C26.2312 47.4255 23.1567 49.9767 21.2597 51.0887C18.1852 52.9857 14.5874 53.3128 13.0829 52.5933L13.5408 52.8549C15.0453 53.6399 18.6431 53.3128 21.8484 51.3504C23.6801 50.3037 26.7545 47.7526 26.7545 43.3044V28.5861C26.7545 28.3899 26.82 28.2591 27.0162 28.1282H27.2124L27.0162 27.932ZM14.3912 29.2403C15.9611 29.3057 17.6619 28.4553 18.5123 27.2778C18.8394 26.8199 19.101 26.2312 19.101 25.4462L19.0356 25.0537L18.5777 25.4462C18.5123 26.035 18.2506 26.5583 17.989 26.9508C17.512 27.5913 16.8896 28.1092 16.173 28.4618C15.4565 28.8144 14.6664 28.9915 13.8679 28.9786C13.0829 28.9132 12.3633 28.7824 11.84 28.5207L11.5784 28.3245L12.3633 28.8478C12.8867 29.044 13.6062 29.1749 14.3912 29.2403Z" fill="#0069B4"/>
<path d="M15.5033 49.5842C15.6995 50.1729 16.0266 50.8271 16.6807 51.0233C16.3536 50.7617 16.1574 50.3038 16.0266 49.9113C15.6995 49.2571 15.4378 48.6684 14.7837 48.4067C15.1108 48.7338 15.307 49.1263 15.5033 49.5842Z" fill="#0069B4"/>
</g>
</g>
<defs>
<clipPath id="clip0_181_885">
<rect width="101" height="83.5343" fill="white"/>
</clipPath>
</defs>
</svg>
