<svg width="49" height="49" viewBox="0 0 49 49" fill="none" xmlns="http://www.w3.org/2000/svg">
<circle cx="24.5" cy="24.5" r="24.2" transform="matrix(-1 0 0 1 49 0)" stroke="#C8C8C8" stroke-width="0.6"/>
<path d="M18.3333 25.6666H30.3333C30.7067 25.6666 31 25.3733 31 24.9999C31 24.6266 30.7067 24.3333 30.3333 24.3333H18.3333C17.96 24.3333 17.6667 24.6266 17.6667 24.9999C17.6667 25.3733 17.96 25.6666 18.3333 25.6666Z" fill="#C8C8C8"/>
<path d="M21.6667 30.3335C21.7541 30.3345 21.8408 30.3173 21.9212 30.2828C22.0016 30.2484 22.0738 30.1975 22.1334 30.1335C22.4 29.8668 22.4 29.4535 22.1334 29.1868L17.9334 24.9868L22.1334 20.7868C22.4 20.5201 22.4 20.1068 22.1334 19.8401C21.8667 19.5735 21.4534 19.5735 21.1867 19.8401L16.52 24.5068C16.2534 24.7735 16.2534 25.1868 16.52 25.4535L21.1867 30.1201C21.32 30.2535 21.4934 30.3201 21.6534 30.3201L21.6667 30.3335Z" fill="#C8C8C8"/>
</svg>
