<svg width="41" height="41" viewBox="0 0 41 41" fill="none" xmlns="http://www.w3.org/2000/svg">
<path d="M17.548 6.32938C17.7264 6.61474 17.8468 6.93244 17.9023 7.26433C17.9579 7.59623 17.9476 7.93582 17.8719 8.26371C17.7962 8.59161 17.6567 8.90139 17.4613 9.17537C17.2659 9.44934 17.0185 9.68216 16.7331 9.86051C13.6127 11.8013 11.1346 14.6199 9.60938 17.9631C11.1517 17.8342 12.6971 18.1737 14.0432 18.9374C15.3894 19.7011 16.4737 20.8534 17.1543 22.2434C17.8349 23.6334 18.0801 25.1966 17.8578 26.7282C17.6354 28.2599 16.956 29.6888 15.9082 30.8279C14.8605 31.9671 13.4933 32.7635 11.9856 33.1129C10.4778 33.4623 8.89967 33.3485 7.45767 32.7863C6.01566 32.2242 4.77692 31.2398 3.90351 29.9621C3.03011 28.6843 2.56272 27.1727 2.5625 25.625V25.5558C2.5645 25.3574 2.57305 25.1591 2.58812 24.9613C2.61119 24.5769 2.65731 24.0388 2.747 23.3777C2.92638 22.0631 3.27744 20.2514 3.98725 18.2168C5.40175 14.1424 8.26662 9.10713 14.0169 5.51451C14.3022 5.33615 14.6199 5.21576 14.9518 5.16018C15.2837 5.10461 15.6233 5.11495 15.9512 5.19062C16.2791 5.26629 16.5889 5.4058 16.8629 5.60119C17.1368 5.79658 17.3696 6.04402 17.548 6.32938ZM35.4855 6.32938C35.6639 6.61474 35.7843 6.93244 35.8398 7.26433C35.8954 7.59623 35.8851 7.93582 35.8094 8.26371C35.7337 8.59161 35.5942 8.90139 35.3988 9.17537C35.2034 9.44934 34.956 9.68216 34.6706 9.86051C31.5501 11.8011 29.072 14.6198 27.5469 17.9631C29.0892 17.8342 30.6346 18.1737 31.9807 18.9374C33.3269 19.7011 34.4112 20.8534 35.0918 22.2434C35.7724 23.6334 36.0176 25.1966 35.7953 26.7282C35.5729 28.2599 34.8935 29.6888 33.8457 30.8279C32.798 31.9671 31.4308 32.7635 29.9231 33.1129C28.4153 33.4623 26.8372 33.3485 25.3952 32.7863C23.9532 32.2242 22.7144 31.2398 21.841 29.9621C20.9676 28.6843 20.5002 27.1727 20.5 25.625V25.5558C20.502 25.3574 20.5105 25.1591 20.5256 24.9613C20.5487 24.5769 20.5948 24.0388 20.6845 23.3777C20.8639 22.0631 21.2149 20.2514 21.9247 18.2168C23.3392 14.1424 26.2041 9.10713 31.9544 5.51451C32.2397 5.33615 32.5574 5.21576 32.8893 5.16018C33.2212 5.10461 33.5608 5.11495 33.8887 5.19062C34.2166 5.26629 34.5264 5.4058 34.8004 5.60119C35.0743 5.79658 35.3071 6.04402 35.4855 6.32938Z" fill="white"/>
</svg>
