<svg width="239" height="48" viewBox="0 0 239 48" fill="none" xmlns="http://www.w3.org/2000/svg">
<g clip-path="url(#clip0_181_935)">
<path d="M19.0468 23.3826V18.9131H4.76394C4.14271 18.9228 3.52956 19.0555 2.95992 19.3035C2.39029 19.5516 1.87548 19.9101 1.44524 20.3583C0.507272 21.3798 -0.00909948 22.7185 -3.92329e-06 24.1052C0.10335 25.3325 0.66613 26.4756 1.57582 27.3059C2.48551 28.1362 3.67507 28.5925 4.90668 28.5837H19.0468V42.8666C19.0468 45.6144 21.5002 47.7733 24.1052 47.6306C25.3309 47.5251 26.4717 46.9614 27.3002 46.0519C28.1286 45.1424 28.5837 43.9541 28.5747 42.7239V28.5837H24.1052C22.7454 28.5626 21.4495 28.0033 20.5013 27.0284C19.5532 26.0535 19.0301 24.7425 19.0468 23.3826Z" fill="#094063"/>
<path d="M47.4789 23.3825C47.3734 22.1568 46.8097 21.016 45.9002 20.1875C44.9907 19.3591 43.8024 18.904 42.5722 18.913H28.4231V4.77283C28.4231 2.02509 25.9697 -0.133852 23.3737 0.0088883C22.1511 0.116366 21.0137 0.679725 20.1873 1.58708C19.361 2.49443 18.9061 3.6794 18.913 4.90665V19.0468H23.3737C24.7078 19.063 25.9828 19.6002 26.9262 20.5437C27.8697 21.4871 28.4069 22.7621 28.4231 24.0962V28.5747H42.7149C44.0085 28.5747 45.1683 27.9948 46.0336 27.1295C46.515 26.6348 46.8912 26.0478 47.1396 25.4039C47.388 24.7599 47.5034 24.0723 47.4789 23.3825Z" fill="#89CBF0"/>
<path d="M23.3736 19.0557H18.913V23.5342C18.9292 24.8683 19.4664 26.1433 20.4099 27.0867C21.3533 28.0302 22.6283 28.5674 23.9624 28.5836H28.432V24.1051C28.4479 23.4377 28.3281 22.774 28.08 22.1542C27.8319 21.5344 27.4605 20.9714 26.9884 20.4993C26.5163 20.0272 25.9533 19.6559 25.3335 19.4077C24.7137 19.1596 24.05 19.0398 23.3826 19.0557H23.3736Z" fill="#5299D3"/>
<path d="M62.0472 13.8636H67.2483C70.1299 13.8636 73.8857 14.1491 75.0366 17.325C76.3391 21.0719 74.0285 24.3996 70.2816 24.9705L76.1874 34.4984H73.1542L67.5338 25.2649H64.3489V34.4984H62.0383V13.8636H62.0472ZM64.5006 22.9543H66.6685C68.8363 22.9543 72.155 23.0971 72.7349 20.501C73.4486 17.1823 70.4154 16.1742 67.8282 16.1742H64.3579V22.9543H64.5006ZM91.4963 32.0451C89.1857 34.9355 84.7161 35.792 81.5402 33.7758C78.8013 31.9023 77.936 28.1554 78.9441 25.1222C80.1038 21.9462 83.2709 20.2155 86.5896 20.6437C90.2027 21.2236 91.9334 24.2568 91.9334 27.7183V28.432H80.9603C81.2547 33.0532 87.0267 34.0702 89.7655 30.7515L91.4963 32.0451ZM89.6228 26.4247C89.4801 21.2236 81.6829 21.518 81.103 26.4247H89.6228ZM95.6803 12.4183H97.9998V34.3557H95.6803V12.4183ZM103.906 13.8636C106.074 13.8636 106.074 17.1823 103.906 17.1823C101.738 17.1823 101.738 13.8636 103.906 13.8636ZM102.746 20.7865H105.065V34.3557H102.746V20.7954V20.7865ZM109.25 22.6599C111.275 20.6437 114.879 19.9211 117.475 21.0809C119.643 21.9462 120.365 24.1141 120.365 26.4158V32.3305C120.365 33.0532 120.508 33.9185 120.508 34.6501H118.34C118.198 34.0702 118.198 33.2048 118.198 32.6249C115.887 36.3719 108.099 35.6582 108.67 30.4571C109.107 26.4158 114.156 26.273 117.189 26.273H118.055V25.8359C118.055 21.9462 112.711 22.3744 110.695 24.3996L109.25 22.6688V22.6599ZM115.887 27.861C114.593 27.861 112.711 28.0037 111.703 29.0208C110.838 29.8772 110.989 31.6079 111.997 32.3305C114.736 34.3557 118.055 31.6168 118.198 28.7264V27.861H115.887ZM124.541 24.1052C124.541 22.8116 124.398 21.7946 124.398 20.9292H126.566V23.2487C127.725 20.7865 130.892 20.2155 133.203 20.9292C135.371 21.7946 136.236 23.9624 136.236 26.1303V34.4984H134.211V26.273C134.211 23.8197 132.623 22.08 130.027 22.6688C127.574 23.2398 126.851 25.5504 126.851 27.861V34.4984H124.541V24.1052ZM150.376 24.2479C149.709 23.4469 148.789 22.8966 147.768 22.6874C146.747 22.4783 145.684 22.6227 144.756 23.0971C143.999 23.5342 143.372 24.1658 142.94 24.9266C142.509 25.6873 142.289 26.5495 142.303 27.4239C142.303 29.2973 143.016 31.1797 144.756 32.1878C145.68 32.6867 146.75 32.8439 147.778 32.6318C148.806 32.4196 149.726 31.8517 150.376 31.028L152.116 32.6249C150.091 34.9355 146.335 35.3638 143.739 34.0702C141.286 32.9104 139.992 30.3143 139.992 27.7183C139.951 26.3943 140.279 25.085 140.941 23.9377C141.603 22.7903 142.572 21.8504 143.739 21.2236C146.487 19.9211 150.091 20.3582 152.259 22.6688L150.385 24.2479H150.376ZM166.97 32.0451C164.659 34.9355 160.19 35.792 157.014 33.7758C154.275 31.9023 153.401 28.1554 154.418 25.1222C155.578 21.9462 158.745 20.2155 162.063 20.6437C165.676 21.2236 167.407 24.2568 167.407 27.7183V28.432H156.434C156.728 33.0532 162.5 34.0702 165.239 30.7515L166.97 32.0451ZM164.954 26.4247C164.802 21.2236 157.014 21.518 156.434 26.4247H164.954Z" fill="#094063"/>
<path d="M171.306 13.8636H173.759V22.5172H184.723V13.8636H187.177V34.4984H184.723V24.9794H173.75V34.5073H171.306V13.8636ZM192.369 13.8636H195.973L202.905 30.0288L209.979 13.8636H213.583V34.4984H211.13V17.1823L203.77 34.4984H202.325L194.965 17.1823V34.4984H192.52V13.8636H192.378H192.369ZM217.491 24.1051C217.491 19.6356 220.078 15.4515 224.414 13.8636C228.741 12.4183 233.799 13.5692 236.681 17.0395C239.428 20.501 239.714 25.6931 237.546 29.5917C235.235 33.633 230.471 35.3637 226.002 34.6411C220.952 33.9274 217.491 29.3062 217.491 24.1141V24.1051ZM236.395 24.1051C236.395 20.6437 234.522 17.325 231.194 16.0314C229.572 15.3977 227.792 15.2938 226.107 15.7346C224.423 16.1753 222.921 17.138 221.818 18.4848C217.197 24.3995 221.96 33.7758 229.758 32.4822C233.799 31.9023 236.395 28.1465 236.395 24.1051Z" fill="#89CBF0"/>
</g>
<defs>
<clipPath id="clip0_181_935">
<rect width="239" height="47.6394" fill="white"/>
</clipPath>
</defs>
</svg>
